<svg xmlns="http://www.w3.org/2000/svg" width="18" height="23" viewBox="0 0 18 23">
    <path fill="#000" fill-rule="nonzero" d="M16.7 8.625H15.27V6.708C15.269 3.01 12.272 0 8.589 0c-3.684 0-6.68 3.01-6.68 6.708v1.917H.477a.478.478 0 0 0-.477.48v11.978C0 22.14.856 23 1.909 23h13.36c1.052 0 1.908-.86 1.908-1.917V9.104a.478.478 0 0 0-.477-.479zm-6.683 10.01a.482.482 0 0 1-.474.532H7.634a.476.476 0 0 1-.474-.532l.301-2.719a1.915 1.915 0 0 1 1.128-3.458 1.915 1.915 0 0 1 1.127 3.458l.301 2.719zm2.389-10.01H4.77V6.708c0-2.113 1.713-3.833 3.818-3.833 2.104 0 3.817 1.72 3.817 3.833v1.917z" opacity=".26"/>
</svg>
