<svg xmlns="http://www.w3.org/2000/svg" width="11" height="16" viewBox="0 0 11 16">
    <g fill="#323232" fill-rule="nonzero" opacity=".9">
        <path d="M3.258 2.227h4.356L8.397 0H2.475zM.024 2.227L2.8 8.843a4.013 4.013 0 0 1 2.161-.976l-1.985-5.64L2.193 0 .023 2.227zM8.679 0l-.784 2.227-1.984 5.636c.82.095 1.567.44 2.168.961l2.769-6.597L8.678 0zM5.45 15.99c2.114 0 3.826-1.764 3.826-3.94a3.99 3.99 0 0 0-1.102-2.768c-.032-.034-.068-.066-.102-.099A3.752 3.752 0 0 0 5.82 8.126c-.046-.004-.092-.004-.138-.007-.046-.003-.092-.006-.138-.007-.031 0-.061-.005-.093-.005-.04 0-.08.005-.12.006-.046.001-.092.004-.138.007-.046.003-.093.003-.138.008-.82.087-1.56.443-2.143.977-.035.032-.07.064-.103.098a3.99 3.99 0 0 0-1.184 2.847c0 2.176 1.713 3.94 3.826 3.94z"/>
    </g>
</svg>
