<svg xmlns="http://www.w3.org/2000/svg" width="16" height="16" viewBox="0 0 16 16">
    <g fill="#323232" fill-rule="nonzero" opacity=".9">
        <path d="M7.237.03a7.962 7.962 0 0 0-4.902 2.307A7.95 7.95 0 0 0 .03 7.24c1.962.228 4.048 1.23 5.76 2.943 1.714 1.714 2.718 3.801 2.944 5.762a7.957 7.957 0 0 0 4.904-2.304 7.944 7.944 0 0 0 2.304-4.904c-1.958-.227-4.047-1.23-5.76-2.943C8.47 4.081 7.466 1.993 7.237.031z"/>
        <path d="M15.974 7.746a7.965 7.965 0 0 0-2.333-5.41A7.971 7.971 0 0 0 8.228 0c.221 1.716 1.132 3.56 2.66 5.088 1.527 1.527 3.369 2.437 5.086 2.658zM0 8.23a7.955 7.955 0 0 0 2.335 5.41 7.952 7.952 0 0 0 5.41 2.334c-.221-1.714-1.132-3.556-2.66-5.084C3.56 9.363 1.715 8.453 0 8.23z"/>
    </g>
</svg>
