<svg xmlns="http://www.w3.org/2000/svg" width="50" height="50" viewBox="0 0 50 50">
    <g fill="none" fill-rule="evenodd" transform="translate(1 1)">
        <path fill="#000" fill-rule="nonzero" d="M37.054 16.97a1.265 1.265 0 0 0-1.148-.443l-2.466.345a7.537 7.537 0 0 1-6.41-2.173 7.532 7.532 0 0 0-6.726-2.112l.256-.786a1.36 1.36 0 0 0-.87-1.716 1.36 1.36 0 0 0-1.713.877l-7.549 23.231a1.36 1.36 0 0 0 .87 1.716 1.36 1.36 0 0 0 1.713-.877l3.853-11.856a7.532 7.532 0 0 1 6.725 2.112 7.537 7.537 0 0 0 6.41 2.173l3.688-.516a1.276 1.276 0 0 0 1.035-.87l2.565-7.893a1.276 1.276 0 0 0-.233-1.212z" opacity=".26"/>
        <circle cx="24" cy="24" r="24" stroke="#000" stroke-opacity=".26"/>
    </g>
</svg>
