<svg xmlns="http://www.w3.org/2000/svg" width="44" height="44" viewBox="0 0 44 44">
    <path fill="#FFF" fill-rule="nonzero" d="M25.382 22.327a.527.527 0 0 1 0-.763l8.182-8.182c.218-.218.327-.546.327-.764 0-.218-.11-.545-.327-.763l-1.528-1.528a1.178 1.178 0 0 0-.763-.327c-.328 0-.546.11-.764.327l-8.182 8.182a.527.527 0 0 1-.763 0l-8.182-8.182a1.178 1.178 0 0 0-.764-.327c-.218 0-.545.11-.763.327l-1.528 1.528a1.178 1.178 0 0 0-.327.763c0 .218.11.546.327.764l8.182 8.182a.527.527 0 0 1 0 .763l-8.182 8.182a1.178 1.178 0 0 0-.327.764c0 .218.11.545.327.763l1.528 1.528c.218.218.545.327.763.327.218 0 .546-.11.764-.327l8.182-8.182a.527.527 0 0 1 .763 0l8.182 8.182c.218.218.546.327.764.327.218 0 .545-.11.763-.327l1.528-1.528c.218-.218.327-.545.327-.763 0-.218-.11-.546-.327-.764l-8.182-8.182z"/>
</svg>
