<svg xmlns="http://www.w3.org/2000/svg" width="15" height="16" viewBox="0 0 15 16">
    <g fill="#FFF" fill-rule="nonzero" opacity=".48">
        <path d="M2.98 3.2a6.339 6.339 0 0 1 8.292-.22l-1.898.072a.442.442 0 0 0-.425.46c.01.241.206.43.441.43l2.931-.11a.442.442 0 0 0 .425-.444v-.033L12.638.429a.442.442 0 0 0-.882.033l.068 1.822A7.144 7.144 0 0 0 7.616.659a7.158 7.158 0 0 0-5.228 1.882A7.357 7.357 0 0 0 .205 9.695a.44.44 0 1 0 .856-.211A6.463 6.463 0 0 1 2.98 3.2zM14.44 6.305a.44.44 0 0 0-.531-.326.446.446 0 0 0-.322.537 6.47 6.47 0 0 1-1.912 6.284 6.287 6.287 0 0 1-4.256 1.658 6.296 6.296 0 0 1-4.06-1.48l1.915-.174a.443.443 0 0 0 .397-.485.438.438 0 0 0-.479-.402l-2.894.264a.443.443 0 0 0-.398.484l.26 2.93a.44.44 0 0 0 .437.405c.013 0 .026 0 .04-.003a.443.443 0 0 0 .396-.485l-.156-1.782a7.132 7.132 0 0 0 4.546 1.62 7.14 7.14 0 0 0 4.842-1.89 7.372 7.372 0 0 0 2.175-7.155z"/>
    </g>
</svg>
