<svg xmlns="http://www.w3.org/2000/svg" width="12" height="10" viewBox="0 0 12 10">
    <path fill="#000" fill-opacity=".72" fill-rule="nonzero" d="M11.304.017V0H.643v.017A.705.705 0 0 0 0 .65v7.006c0 .135.035.248.094.35a.653.653 0 0 0 .608.358H4.55v.97h-.731a.318.318 0 0 0-.322.322c0 .18.14.322.322.322h4.31a.322.322 0 0 0 .327-.322.322.322 0 0 0-.327-.322h-.731v-.97h3.848c.274 0 .475-.12.608-.357.06-.108.1-.222.1-.35V.648a.722.722 0 0 0-.65-.632zm0 .69v6.948c0 .041-.017.059-.058.059H.702c-.041 0-.059-.018-.059-.059V.65h10.661v.058z"/>
</svg>
