<?xml version="1.0" encoding="UTF-8"?>
<svg width="24px" height="24px" viewBox="0 0 24 24" version="1.1" xmlns="http://www.w3.org/2000/svg" xmlns:xlink="http://www.w3.org/1999/xlink">
    <!-- Generator: Sketch 55.1 (78136) - https://sketchapp.com -->
    <title>Menu Panel/hide</title>
    <desc>Created with Sketch.</desc>
    <g id="Icons" stroke="none" stroke-width="1" fill="none" fill-rule="evenodd" fill-opacity="0.64">
        <g id="Menu-Panel/hide" fill="#FFFFFF">
            <path d="M8.82883278,5.09477916 C9.83320593,4.80629412 10.8960516,4.63297319 12.0001219,4.63297319 C18.4402355,4.63297319 23.4780781,10.5306032 23.6888818,10.7820382 C24.1036654,11.2752946 24.1036654,11.9906518 23.6891255,12.4836616 C23.5759465,12.6184993 22.0746378,14.3771875 19.713349,15.9792954 L18.1883301,14.4542765 C19.7648309,13.4387743 20.965517,12.2907484 21.5949797,11.6329732 C20.7100916,10.7085798 18.6956369,8.81591505 16.0955623,7.68371799 C16.6027097,8.46415254 16.8997845,9.39668063 16.8997845,10.4004486 C16.8997845,11.205867 16.7098367,11.9664007 16.3727824,12.6387288 L8.82883278,5.09477916 Z M23.6329732,22.6329732 L22.6329732,23.6329732 L16.6512623,17.6512623 C15.2338122,18.2394018 13.6637545,18.6329732 12.0001219,18.6329732 C5.55976452,18.6329732 0.522165618,12.7355897 0.311118226,12.4841547 C-0.103665449,11.9906518 -0.103665449,11.2752946 0.310874522,10.7822847 C0.442796603,10.6251444 2.45614673,8.26705749 5.51765539,6.51765539 L0,1 L1,-3.37507799e-14 L23.6329732,22.6329732 Z M7.07782018,8.07782018 C4.87974298,9.21594959 3.1936701,10.8091146 2.4050203,11.6329732 C3.71541502,13.0015685 7.5013518,16.4962686 12.0001219,16.4962686 C13.0460695,16.4962686 14.0534943,16.3073836 15.0002367,16.0002367 L13.948878,14.948878 C13.3515671,15.2110755 12.6925021,15.3564299 11.9998781,15.3564299 C9.29379241,15.3564299 7.10021553,13.1376392 7.10021553,10.4004486 C7.10021553,9.72009428 7.23680762,9.07246851 7.48274836,8.48274836 L7.07782018,8.07782018 Z M13.967298,8.17574179 C13.5339929,8.41485156 13.4357803,9.07696375 13.7472336,9.65452476 C14.0591743,10.2318393 14.6633157,10.5064457 15.0961335,10.2670895 C15.5291949,10.0279797 15.6276512,9.36586751 15.3159542,8.7883065 C15.0042572,8.210992 14.4003595,7.93663203 13.967298,8.17574179 Z" id="hide"></path>
        </g>
    </g>
</svg>