<?xml version="1.0" encoding="UTF-8"?>
<svg width="16px" height="16px" viewBox="0 0 16 16" version="1.1" xmlns="http://www.w3.org/2000/svg" xmlns:xlink="http://www.w3.org/1999/xlink">
    <!-- Generator: Sketch 55.1 (78136) - https://sketchapp.com -->
    <title>Bet Process/bet_status_win</title>
    <desc>Created with Sketch.</desc>
    <g id="Icons" stroke="none" stroke-width="1" fill="none" fill-rule="evenodd">
        <g id="Bet-Process/bet_status_win" fill="#33997A" fill-rule="nonzero">
            <path d="M8,-9.41469125e-14 C12.418278,-9.41469125e-14 16,3.581722 16,8 C16,12.418278 12.418278,16 8,16 C3.581722,16 1.59872116e-14,12.418278 1.59872116e-14,8 C1.59872116e-14,3.581722 3.581722,-9.41469125e-14 8,-9.41469125e-14 Z M10.4503531,5.77678879 L7.24449418,9.27537201 L5.9873961,7.8762214 C5.65376308,7.50457852 5.08677762,7.49853597 4.74450843,7.86068119 C4.4241741,8.20315693 4.41835761,8.74481757 4.7300821,9.09205587 L6.6089084,11.1847444 C6.76895806,11.3631243 6.99383217,11.4662665 7.23172235,11.4682185 C7.47471257,11.4682185 7.69854056,11.3678939 7.86004518,11.1916424 L11.6952041,7.00629833 C12.0103479,6.662379 12.0103479,6.12070812 11.6952041,5.77678879 C11.3570307,5.40773707 10.7885265,5.40773707 10.4503531,5.77678879 Z" id="bet_status_win"></path>
        </g>
    </g>
</svg>