<svg xmlns="http://www.w3.org/2000/svg" width="12" height="12" viewBox="0 0 12 12">
    <path fill="#FFF" fill-opacity=".64" fill-rule="evenodd" d="M6 0c3.308 0 6 2.692 6 6s-2.692 6-6 6-6-2.692-6-6 2.692-6 6-6zm0 1C3.243 1 1 3.243 1 6s2.243 5 5 5 5-2.243 5-5-2.243-5-5-5zm.912 7.867c-.41.506-.795.752-1.172.752-.158 0-.526-.062-.526-.64 0-.14.049-.54.146-1.224l.27-1.887a1.8 1.8 0 0 0 .023-.255.503.503 0 0 0-.002-.054c-.104.03-.306.164-.593.713l-.105.2-.17-.15c-.1-.088-.15-.188-.15-.294 0-.251.189-.541.594-.912.395-.362.714-.538.976-.538.16 0 .534.066.534.672 0 .067-.013.205-.04.413l-.042.321-.032.231L6.36 8.04c-.05.361-.06.514-.06.578v.017c.114-.036.324-.192.602-.78l.083-.177.168.1c.142.086.215.187.215.301 0 .117-.055.302-.455.79zm-.693-6.486a.785.785 0 0 1 0 1.567.784.784 0 0 1 0-1.567z"/>
</svg>
