<?xml version="1.0" encoding="UTF-8"?>
<svg width="24px" height="24px" viewBox="0 0 24 24" version="1.1" xmlns="http://www.w3.org/2000/svg" xmlns:xlink="http://www.w3.org/1999/xlink">
    <!-- Generator: Sketch 55.1 (78136) - https://sketchapp.com -->
    <title>Menu Panel/user_account</title>
    <desc>Created with Sketch.</desc>
    <g id="Icons" stroke="none" stroke-width="1" fill="none" fill-rule="evenodd" fill-opacity="0.64">
        <g id="Menu-Panel/user_account" fill="#FFFFFF">
            <path d="M2,12 C2,10.1989245 2.45026902,8.53225806 3.35080645,7 C4.25134388,5.46774194 5.46774194,4.25134388 7,3.35080645 C8.53225806,2.45026902 10.1989245,2 12,2 C13.8010755,2 15.4677419,2.45026902 17,3.35080645 C18.5322581,4.25134388 19.7486561,5.46774194 20.6491935,7 C21.549731,8.53225806 22,10.1989245 22,12 C22,13.8010755 21.549731,15.4677419 20.6491935,17 C19.7486561,18.5322581 18.5322581,19.7486561 17,20.6491935 C15.4677419,21.549731 13.8010755,22 12,22 C10.1989245,22 8.53225806,21.549731 7,20.6491935 C5.46774194,19.7486561 4.25134388,18.5322581 3.35080645,17 C2.45026902,15.4677419 2,13.8010755 2,12 Z M4.90322581,16.7667115 C5.70967742,17.7605108 6.73790323,18.5413531 7.98790323,19.1092384 C9.23790323,19.6771238 10.575269,19.9610664 12,19.9610664 C13.424731,19.9610664 14.7620968,19.6771238 16.0120968,19.1092384 C17.2620968,18.5413531 18.2903226,17.7605108 19.0967742,16.7667115 C19.016129,16.2934739 18.7943548,15.8734751 18.4314516,15.506716 C18.0685484,15.1399569 17.6182794,14.8974222 17.0806452,14.7791129 L15.7903226,14.4596774 C14.6881722,15.2878433 13.424731,15.7019265 12,15.7019265 C10.575269,15.7019265 9.31182775,15.2878433 8.20967742,14.4596774 L6.91935484,14.7791129 C6.38172064,14.8974222 5.93145161,15.1399569 5.56854839,15.506716 C5.20564516,15.8734751 4.98387097,16.2934739 4.90322581,16.7667115 Z M7.66165145,10.2422966 C7.66165145,11.0170017 7.85532773,11.74006 8.24268028,12.4114709 C8.63003282,13.0828818 9.15941484,13.6122638 9.83082573,13.9996163 C10.5022366,14.3869689 11.2252949,14.5806452 12,14.5806452 C12.7747051,14.5806452 13.4977634,14.3869689 14.1691743,13.9996163 C14.8405852,13.6122638 15.3699672,13.0828818 15.7573197,12.4114709 C16.1446723,11.74006 16.3383485,11.0170017 16.3383485,10.2422966 C16.3383485,9.46759152 16.1446723,8.74453323 15.7573197,8.07312234 C15.3699672,7.40171145 14.8405852,6.87232944 14.1691743,6.48497689 C13.4977634,6.09762434 12.7747051,5.90394807 12,5.90394807 C11.2252949,5.90394807 10.5022366,6.09762434 9.83082573,6.48497689 C9.15941484,6.87232944 8.63003282,7.40171145 8.24268028,8.07312234 C7.85532773,8.74453323 7.66165145,9.46759152 7.66165145,10.2422966 Z" id="user_account"></path>
        </g>
    </g>
</svg>