<svg xmlns="http://www.w3.org/2000/svg" width="16" height="16" viewBox="0 0 16 16">
    <path fill-opacity=".64" fill-rule="evenodd" d="M7.68 0v5.432C6.398 5.592 5.4 6.676 5.4 8s.998 2.408 2.28 2.568V16H1.377C.62 16 0 15.381 0 14.624V12.68h2.14c.673 0 1.222-.548 1.222-1.221V4.54c0-.673-.55-1.222-1.223-1.222H0V1.376C0 .62.62 0 1.377 0H7.68zm6.944 0C15.382 0 16 .62 16 1.376v1.943h-2.139c-.673 0-1.221.548-1.221 1.222v6.919c0 .673.548 1.22 1.221 1.22h2.14v1.944c0 .757-.62 1.376-1.377 1.376H8.32v-5.432c1.282-.16 2.281-1.243 2.281-2.568 0-1.324-1-2.408-2.28-2.569V0zM2.14 3.96c.32 0 .582.26.582.581v6.919c0 .32-.261.58-.582.58H.001V3.96zM16 3.96v8.08h-2.139c-.32 0-.581-.26-.581-.58V4.54c0-.32.261-.581.581-.581h2.14zM8.32 6.072c.929.155 1.64.956 1.64 1.928 0 .971-.711 1.773-1.64 1.927zm-.64.001v3.855C6.752 9.773 6.041 8.972 6.041 8c0-.97.711-1.773 1.64-1.927z"/>
</svg>
