<?xml version="1.0" encoding="utf-8"?>
<!-- Generator: Adobe Illustrator 23.0.3, SVG Export Plug-In . SVG Version: 6.00 Build 0)  -->
<svg version="1.1" id="Layer_1" xmlns="http://www.w3.org/2000/svg" xmlns:xlink="http://www.w3.org/1999/xlink" x="0px" y="0px"
	 width="24px" height="24px" viewBox="0 0 24 24" style="enable-background:new 0 0 24 24;" xml:space="preserve">
<style type="text/css">
	.st0{fill-rule:evenodd;clip-rule:evenodd;fill-opacity:0.64;}
</style>
<title>Button Icons/sort_by_time</title>
<desc>Created with Sketch.</desc>
<path id="sort_by_time" class="st0" d="M16.5,4.5c4.1,0,7.5,3.4,7.5,7.5s-3.4,7.5-7.5,7.5S9,16.1,9,12S12.3,4.5,16.5,4.5z
	 M19.7,15.2c0.3-0.3,0.3-0.8,0-1.1l-2.4-2.4V8.2c0-0.4-0.4-0.8-0.8-0.8c-0.4,0-0.8,0.4-0.8,0.8V12c0,0.2,0.1,0.4,0.2,0.6l2.7,2.7
	c0.2,0.2,0.4,0.2,0.6,0.2C19.4,15.5,19.6,15.4,19.7,15.2z M5.5,12.7c0.1,0,0.2,0,0.3,0.1c0.1,0.1,0.1,0.2,0.1,0.3
	c0,0.1,0,0.2-0.1,0.3l-2.5,2.5C3.1,16,3,16,2.9,16c-0.1,0-0.2,0-0.3-0.1l-2.5-2.5C0,13.3,0,13.2,0,13.1c0-0.1,0-0.2,0.1-0.3
	c0.1-0.1,0.2-0.1,0.3-0.1H5.5z M0.4,11.3c-0.1,0-0.2,0-0.3-0.1C0,11.1,0,11,0,10.9c0-0.1,0-0.2,0.1-0.3l2.5-2.5C2.7,8,2.8,8,2.9,8
	C3,8,3.1,8,3.2,8.1l2.5,2.5c0.1,0.1,0.1,0.2,0.1,0.3s0,0.2-0.1,0.3c-0.1,0.1-0.2,0.1-0.3,0.1H0.4z"/>
</svg>
