<?xml version="1.0" encoding="utf-8"?>
<!-- Generator: Adobe Illustrator 23.0.3, SVG Export Plug-In . SVG Version: 6.00 Build 0)  -->
<svg version="1.1" id="Layer_1" xmlns="http://www.w3.org/2000/svg" xmlns:xlink="http://www.w3.org/1999/xlink" x="0px" y="0px"
	 viewBox="0 0 16 16" style="enable-background:new 0 0 16 16;" xml:space="preserve">
<style type="text/css">
	.st0{fill-rule:evenodd;clip-rule:evenodd;fill-opacity:0.64;}
</style>
<title>Button Icons/competition_filter_normal</title>
<desc>Created with Sketch.</desc>
<path id="competition_filter_normal" class="st0" d="M15.1,2.3c0-0.1,0-0.2-0.1-0.3c-0.1-0.1-0.2-0.1-0.4-0.1h-1.3v0.7
	c0,1.1-0.2,2.1-0.5,3C14.1,4.8,14.9,3.6,15.1,2.3z M9.2,11.6c-0.5-0.4-0.7-1-0.7-1.6c-0.2,0-0.3,0-0.5,0c-0.2,0-0.3,0-0.5,0
	c0,0.4-0.2,0.9-0.4,1.3c-0.1,0.1-0.2,0.2-0.3,0.3H9.2z M12.5,14.8c0-0.2-0.2-0.4-0.4-0.4H4c-0.2,0-0.4,0.2-0.4,0.4v0.5h8.9V14.8z
	 M0.9,2.3c0.2,1.3,1.1,2.5,2.2,3.3c-0.3-0.9-0.5-2-0.5-3V1.9H1.4C1.2,1.9,1.1,1.9,1,2C0.9,2.1,0.8,2.2,0.9,2.3z M15.7,1.5
	C15.9,1.8,16,2.1,16,2.5c-0.3,1.8-1.7,3.4-3.6,4.3c-0.2,0.4-0.4,0.7-0.6,1c-0.7,1-1.5,1.7-2.5,2c-0.1,0.8,0.5,1.6,1.5,1.8
	c0,0,0,0,0,0c0.2,0,0.3,0.2,0.3,0.4v1.7H12c0.7,0,1.3,0.5,1.3,1.1v0.9c0,0.2-0.2,0.4-0.4,0.4H3.1c-0.2,0-0.4-0.2-0.4-0.4v-0.9
	c0-0.6,0.6-1.1,1.3-1.1h0.8v-1.7c0-0.2,0.1-0.3,0.3-0.4c0,0,0,0,0,0c1-0.2,1.6-1,1.5-1.8c-0.9-0.3-1.8-1-2.5-2
	c-0.2-0.3-0.4-0.6-0.6-1C1.7,5.9,0.4,4.3,0,2.5C0,2.1,0.1,1.8,0.3,1.5c0.3-0.3,0.6-0.4,1-0.4h1.3V0.8C2.7,0.4,3.1,0,3.6,0h8.9
	c0.5,0,0.9,0.4,0.9,0.8v0.3h1.3C15,1.1,15.4,1.3,15.7,1.5z"/>
</svg>
