<?xml version="1.0" encoding="utf-8"?>
<!-- Generator: Adobe Illustrator 23.0.4, SVG Export Plug-In . SVG Version: 6.00 Build 0)  -->
<svg version="1.1" id="圖層_1" xmlns="http://www.w3.org/2000/svg" xmlns:xlink="http://www.w3.org/1999/xlink" x="0px" y="0px"
	 viewBox="0 0 16 16" style="enable-background:new 0 0 16 16;" xml:space="preserve">
<style type="text/css">
	.st0{fill-rule:evenodd;clip-rule:evenodd;fill-opacity:0.56;}
</style>
<title>Event Widget Indicators/locked</title>
<desc>Created with Sketch.</desc>
<path id="locked" class="st0" d="M12.6,4.4v1.4c1.2,0,2.1,1,2.1,2.2v5.8c0,1.2-1,2.2-2.2,2.2H3.5c-1.2,0-2.2-1-2.2-2.2V8
	c0-1.2,0.9-2.1,2.1-2.2V4.4c0-0.5,0.1-1,0.3-1.4C4.1,1.9,5.2,0.1,8,0v0c0,0,0,0,0,0c0,0,0,0,0,0v0c2.7,0.1,3.9,1.9,4.3,2.9
	C12.5,3.4,12.6,3.9,12.6,4.4z M8,0.9C5.9,1,5,2.3,4.5,3.3C4.4,3.6,4.3,4,4.3,4.4v1.4h7.3V4.4c0-0.4-0.1-0.7-0.2-1.1
	C11.1,2.3,10.1,1,8,0.9z M9.2,11.2c0.2-0.2,0.3-0.5,0.3-0.8C9.5,9.6,8.8,9,8,9c-0.8,0-1.5,0.6-1.5,1.4c0,0.3,0.1,0.6,0.3,0.8
	l-0.1,0.4l-0.2,0.7c0,0.1,0,0.2,0.1,0.2c0,0,0,0,0.1,0h0.7h1.2h0.7c0.1,0,0.2-0.1,0.2-0.2c0,0,0,0,0-0.1l-0.2-0.7L9.2,11.2z"/>
</svg>
