<?xml version="1.0" encoding="utf-8"?>
<!-- Generator: Adobe Illustrator 23.0.3, SVG Export Plug-In . SVG Version: 6.00 Build 0)  -->
<svg version="1.1" id="Layer_1" xmlns="http://www.w3.org/2000/svg" xmlns:xlink="http://www.w3.org/1999/xlink" x="0px" y="0px"
	 width="16px" height="16px" viewBox="0 0 16 16" style="enable-background:new 0 0 16 16;" xml:space="preserve">
<style type="text/css">
	.st0{fill-rule:evenodd;clip-rule:evenodd;fill:#A78025;}
</style>
<path id="date_filter_active" class="st0" d="M14.1,1.3c1.1,0,1.9,0.9,1.9,1.9v10.8c0,1.1-0.9,1.9-1.9,1.9H1.9C0.9,16,0,15.1,0,14.1
	V3.3c0-1.1,0.9-1.9,1.9-1.9h2.5V0.5C4.5,0.2,4.7,0,5,0s0.5,0.2,0.5,0.5v0.9h5.2V0.6c0-0.3,0.2-0.5,0.5-0.5s0.5,0.2,0.5,0.5v0.8H14.1
	z M1.9,2.3c-0.6,0-1,0.5-1,1v2.5h14.1V3.3c0-0.6-0.5-1-1-1h-2.5v0.9c0,0.3-0.2,0.5-0.5,0.5s-0.5-0.2-0.5-0.5V2.3H5.4V3
	c0,0.3-0.2,0.5-0.5,0.5S4.5,3.3,4.5,3V2.3H1.9z M4.3,8.9c-0.3-0.3-0.7-0.3-1,0C3.2,8.9,3.1,9,3.1,9.1c0,0.1-0.1,0.2-0.1,0.3
	c0,0.1,0,0.2,0.1,0.3c0,0.1,0.1,0.2,0.2,0.2C3.3,9.9,3.4,10,3.5,10c0.1,0,0.2,0.1,0.3,0.1s0.2,0,0.3-0.1c0.1,0,0.2-0.1,0.2-0.2
	s0.1-0.1,0.2-0.2c0-0.1,0-0.2,0-0.3c0-0.1,0-0.2,0-0.3C4.4,9,4.3,8.9,4.3,8.9z M7.1,8.9C7,8.8,6.9,8.8,6.9,8.7
	c-0.3-0.1-0.6,0-0.8,0.2C6,8.9,6,9,5.9,9.1c0,0.1-0.1,0.2-0.1,0.3c0,0.1,0,0.2,0.1,0.3C6,9.7,6,9.8,6.1,9.9C6.2,9.9,6.2,10,6.3,10
	c0.1,0,0.2,0.1,0.3,0.1s0.2,0,0.3-0.1C6.9,10,7,9.9,7.1,9.9c0.1-0.1,0.1-0.1,0.2-0.2c0-0.1,0-0.2,0-0.3c0-0.1,0-0.2,0-0.3
	C7.2,9,7.1,8.9,7.1,8.9z M4.3,11.7c-0.3-0.3-0.7-0.3-1,0c-0.1,0.1-0.2,0.3-0.2,0.5c0,0.1,0,0.2,0.1,0.3c0,0.1,0.1,0.2,0.2,0.2
	c0.1,0.1,0.2,0.1,0.2,0.2c0.1,0,0.2,0.1,0.3,0.1c0.2,0,0.4-0.1,0.5-0.2c0.1-0.1,0.1-0.1,0.2-0.2c0-0.1,0-0.2,0-0.3s0-0.2,0-0.3
	C4.4,11.8,4.3,11.8,4.3,11.7z M7.1,11.7c-0.1-0.1-0.1-0.1-0.2-0.2c-0.2-0.1-0.4-0.1-0.5,0c-0.1,0-0.2,0.1-0.2,0.2
	C6,11.8,5.9,12,5.9,12.2c0,0.1,0,0.2,0.1,0.3c0,0.1,0.1,0.2,0.2,0.2c0.1,0.1,0.2,0.1,0.2,0.2c0.1,0,0.2,0.1,0.3,0.1s0.2,0,0.3-0.1
	c0.1,0,0.2-0.1,0.2-0.2c0.1-0.1,0.1-0.1,0.2-0.2c0-0.1,0-0.2,0-0.3s0-0.2,0-0.3C7.2,11.8,7.1,11.8,7.1,11.7z M9.9,8.9
	C9.7,8.7,9.4,8.6,9.1,8.7C9.1,8.8,9,8.8,8.9,8.9S8.8,9,8.8,9.1c0,0.1-0.1,0.2-0.1,0.3c0,0.1,0,0.2,0.1,0.3c0,0.1,0.1,0.2,0.2,0.2
	S9.1,10,9.1,10c0.1,0,0.2,0.1,0.3,0.1c0.1,0,0.2,0,0.3-0.1c0.1,0,0.2-0.1,0.2-0.2C10,9.8,10,9.7,10.1,9.6c0-0.1,0-0.2,0-0.3
	c0-0.1,0-0.2,0-0.3C10,9,10,8.9,9.9,8.9z M9.9,11.7c-0.1-0.1-0.1-0.1-0.2-0.2c-0.2-0.1-0.4-0.1-0.5,0c-0.1,0-0.2,0.1-0.2,0.2
	c-0.1,0.1-0.2,0.3-0.2,0.5c0,0.1,0,0.2,0.1,0.3c0,0.1,0.1,0.2,0.2,0.2c0.1,0.1,0.2,0.1,0.2,0.2c0.1,0,0.2,0.1,0.3,0.1
	c0.1,0,0.2,0,0.3-0.1c0.1,0,0.2-0.1,0.2-0.2c0.1-0.1,0.1-0.1,0.2-0.2c0-0.1,0-0.2,0-0.3s0-0.2,0-0.3C10,11.8,10,11.8,9.9,11.7z
	 M12.7,11.7c-0.3-0.3-0.7-0.3-1,0c-0.1,0.1-0.2,0.3-0.2,0.5c0,0.1,0,0.2,0.1,0.3c0,0.1,0.1,0.2,0.1,0.2c0.1,0.1,0.2,0.1,0.2,0.2
	c0.1,0,0.2,0.1,0.3,0.1c0.2,0,0.4-0.1,0.5-0.2c0.1-0.1,0.1-0.1,0.2-0.2c0-0.1,0-0.2,0-0.3s0-0.2,0-0.3
	C12.9,11.8,12.8,11.8,12.7,11.7z M12.7,8.9c-0.1-0.1-0.1-0.1-0.2-0.2c-0.3-0.1-0.6,0-0.8,0.2c-0.1,0.1-0.1,0.1-0.1,0.2
	c0,0.1-0.1,0.2-0.1,0.3c0,0.1,0,0.2,0.1,0.3c0,0.1,0.1,0.2,0.1,0.2C11.8,9.9,11.9,10,12,10c0.1,0,0.2,0.1,0.3,0.1
	c0.1,0,0.2,0,0.3-0.1c0.1,0,0.2-0.1,0.2-0.2c0.1-0.1,0.1-0.1,0.2-0.2c0-0.1,0-0.2,0-0.3c0-0.1,0-0.2,0-0.3C12.9,9,12.8,8.9,12.7,8.9
	z"/>
</svg>
