<?xml version="1.0" encoding="utf-8"?>
<!-- Generator: Adobe Illustrator 23.0.3, SVG Export Plug-In . SVG Version: 6.00 Build 0)  -->
<svg version="1.1" id="Layer_1" xmlns="http://www.w3.org/2000/svg" xmlns:xlink="http://www.w3.org/1999/xlink" x="0px" y="0px"
	 width="56px" height="56px" viewBox="0 0 56 56" style="enable-background:new 0 0 56 56;" xml:space="preserve">
<style type="text/css">
	.st0{fill:#FFFFFF;}
	.st1{fill:#F5F2EF;}
	.st2{fill-rule:evenodd;clip-rule:evenodd;fill:#E7DFD9;}
	.st3{fill-rule:evenodd;clip-rule:evenodd;fill:#A59A93;}
</style>
<title>Login/profile_avatar</title>
<desc>Created with Sketch.</desc>
<g id="Icons">
	<g>
		<g id="profile_avatar" transform="translate(0.218027, 0.218411)">
			<path id="Path" class="st0" d="M55.3,27.8h0.5c0,15.5-12.5,28-28,28c-15.5,0-28-12.5-28-28c0-15.5,12.5-28,28-28
				c15.5,0,28,12.5,28,28H55.3z"/>
			<path id="circle" class="st1" d="M55.3,27.8h0.5c0-15.5-12.5-28-28-28c-15.5,0-28,12.5-28,28c0,15.5,12.5,28,28,28
				c15.5,0,28-12.5,28-28H55.3z M55.3,27.8h-0.5c0,14.9-12.1,27-27,27c-14.9,0-27-12.1-27-27c0-14.9,12.1-27,27-27
				c14.9,0,27,12.1,27,27H55.3z"/>
			<path class="st2" d="M49.1,27.8c0,11.8-9.6,21.3-21.3,21.3C16,49.1,6.4,39.6,6.4,27.8S16,6.4,27.8,6.4
				C39.6,6.4,49.1,16,49.1,27.8"/>
			<path id="Fill-3" class="st3" d="M43,43.1c-0.7,0.2-1.1,0.3-1.3,0.1c-0.9-0.4-1.8-0.6-2.6-1.1c-0.3,0-0.6-0.1-0.7-0.3
				c-0.1,0-0.3-0.1-0.4-0.2c-0.4-0.1-0.8-0.3-1-0.7c-0.2-0.1-0.3-0.2-0.5-0.3c-0.2-0.1-0.3-0.2-0.4-0.5c-0.1-0.3-0.2-0.6-0.2-0.9
				c-0.1-0.3-0.1-0.6-0.2-0.9c0-0.2-0.1-0.3-0.3-0.4c-0.2-0.1-0.4,0-0.5,0c-0.4,0.1-0.6,0-0.6-0.4c0-0.3-0.1-0.6-0.1-0.8
				c0-0.6-0.1-1.2,0.5-1.7c0.7-1.4,1.2-2.8,1.6-4.3c0.1-0.3,0.2-0.6,0.7-0.6c0.3,0,0.5-0.2,0.6-0.5c0.3-0.9,0.5-1.7,0.9-2.6
				c0.1-0.6,0.4-1.1,0.4-1.8c0-0.1,0-0.2,0-0.4c0-0.1,0-0.1-0.1-0.1c0,0,0,0-0.1,0c0-0.3,0-0.5,0-0.8c0-0.4-0.2-0.7-0.6-0.8
				c-0.3-0.1-0.4-0.3-0.4-0.6c0.1-1.2,0.1-2.3,0.2-3.5c0,0,0-0.1,0-0.1c0,0,0,0,0-0.1c0-0.4-0.1-0.7-0.1-1.1
				c-0.1-0.8-0.2-1.7-0.6-2.4c-0.9-1.4-2-2.5-3.5-3.3c-1.3-0.6-2.6-1-4-1.2c-2.9-0.6-5.4,0.1-7.6,2c0,0,0,0,0,0.1
				c-0.3,0.2-0.4,0.4-0.6,0.6c-0.3,0.5-0.7,0.9-1.1,1.3c-0.7,0.7-1.1,1.5-1,2.5c0,0-0.1,0-0.1,0c0,0-0.1,0.1-0.1,0.1
				c-0.2,0.8,0,1.7,0,2.5c0.2,0.7,0.2,1.4,0.3,2.1c0,0.4-0.1,0.7-0.5,0.8c-0.5,0.2-0.7,0.6-0.7,1c-0.1,0.5-0.1,1,0.1,1.5
				c0.2,0.7,0.4,1.4,0.6,2c0.3,0.6,0.6,1.2,0.7,1.8c0.1,0.4,0.3,0.7,0.6,0.8c0.3,0.1,0.5,0.3,0.5,0.6c0.1,0.5,0.3,1,0.4,1.5
				c0.2,0.4,0.5,0.7,0.5,1.2c0,0,0,0.1,0,0.1c0.8,1.3,1.3,2.8,0.7,4.3c-0.3,0.3-0.6,0-0.9,0c-0.3,0-0.5,0-0.6,0.3
				c-0.2,0.7-0.3,1.4-0.6,2.1c-0.1,0.4-0.3,0.6-0.7,0.8c-0.8,0.4-1.6,0.8-2.4,1c-0.6,0.4-1.2,0.5-1.9,0.8c-1.2,0.5-1-0.1-2.3,0.2
				c-0.7,0.2,5.5,6.1,13.8,6.1C33.5,49.2,38.9,47.2,43,43.1z"/>
		</g>
	</g>
</g>
</svg>
