<?xml version="1.0" encoding="utf-8"?>
<!-- Generator: Adobe Illustrator 23.0.3, SVG Export Plug-In . SVG Version: 6.00 Build 0)  -->
<svg version="1.1" id="Layer_1" xmlns="http://www.w3.org/2000/svg" xmlns:xlink="http://www.w3.org/1999/xlink" x="0px" y="0px"
	 width="24px" height="24px" viewBox="0 0 24 24" style="enable-background:new 0 0 24 24;" xml:space="preserve">
<style type="text/css">
	.st0{fill-rule:evenodd;clip-rule:evenodd;fill-opacity:0.64;}
</style>
<title>Button Icons/sort_by_competitions</title>
<desc>Created with Sketch.</desc>
<path id="sort_by_competitions" class="st0" d="M0.4,11.3c-0.1,0-0.2,0-0.3-0.1C0.1,11.1,0,11,0,10.9c0-0.1,0-0.2,0.1-0.3l2.5-2.5
	C2.7,8,2.8,8,2.9,8s0.2,0,0.3,0.1l2.5,2.5c0.1,0.1,0.1,0.2,0.1,0.3s0,0.2-0.1,0.3c-0.1,0.1-0.2,0.1-0.3,0.1H0.4z M5.5,12.7
	c0.1,0,0.2,0,0.3,0.1c0.1,0.1,0.1,0.2,0.1,0.3c0,0.1,0,0.2-0.1,0.3l-2.5,2.5C3.1,16,3,16,2.9,16c-0.1,0-0.2,0-0.3-0.1l-2.5-2.5
	C0.1,13.3,0,13.2,0,13.1c0-0.1,0-0.2,0.1-0.3c0.1-0.1,0.2-0.1,0.3-0.1H5.5z M23.1,6.3c0-0.1,0-0.2-0.1-0.3c-0.1-0.1-0.2-0.1-0.4-0.1
	h-1.3v0.7c0,1.1-0.2,2.1-0.5,3C22.1,8.8,22.9,7.6,23.1,6.3z M17.2,15.6c-0.5-0.4-0.7-1-0.7-1.6c-0.2,0-0.3,0-0.5,0
	c-0.2,0-0.3,0-0.5,0c0,0.4-0.2,0.9-0.4,1.3c-0.1,0.1-0.2,0.2-0.3,0.3H17.2z M20.5,18.8c0-0.2-0.2-0.4-0.4-0.4h-8
	c-0.2,0-0.4,0.2-0.4,0.4v0.5h8.9V18.8z M8.9,6.3c0.2,1.3,1.1,2.5,2.2,3.3c-0.3-0.9-0.5-2-0.5-3V5.9H9.4C9.2,5.9,9.1,5.9,9,6
	C8.9,6.1,8.8,6.2,8.9,6.3z M23.7,5.5C23.9,5.8,24,6.1,24,6.5c-0.3,1.8-1.7,3.4-3.6,4.3c-0.2,0.4-0.4,0.7-0.6,1c-0.7,1-1.5,1.7-2.5,2
	c-0.1,0.8,0.5,1.6,1.5,1.8c0,0,0,0,0,0c0.2,0,0.3,0.2,0.3,0.4v1.7H20c0.7,0,1.3,0.5,1.3,1.1v0.9c0,0.2-0.2,0.4-0.4,0.4h-9.8
	c-0.2,0-0.4-0.2-0.4-0.4v-0.9c0-0.6,0.6-1.1,1.3-1.1h0.8v-1.7c0-0.2,0.1-0.3,0.3-0.4c0,0,0,0,0,0c1-0.2,1.6-1,1.5-1.8
	c-0.9-0.3-1.8-1-2.5-2c-0.2-0.3-0.4-0.6-0.6-1C9.7,9.9,8.4,8.3,8,6.5C8,6.1,8.1,5.8,8.3,5.5c0.3-0.3,0.6-0.4,1-0.4h1.3V4.8
	c0-0.4,0.4-0.8,0.9-0.8h8.9c0.5,0,0.9,0.4,0.9,0.8v0.3h1.3C23,5.1,23.4,5.3,23.7,5.5z"/>
</svg>
