<?xml version="1.0" encoding="utf-8"?>
<!-- Generator: Adobe Illustrator 23.1.0, SVG Export Plug-In . SVG Version: 6.00 Build 0)  -->
<svg version="1.1" id="圖層_1" xmlns="http://www.w3.org/2000/svg" xmlns:xlink="http://www.w3.org/1999/xlink" x="0px" y="0px"
	 viewBox="0 0 12 12" style="enable-background:new 0 0 12 12;" xml:space="preserve">
<style type="text/css">
	.st0{fill-rule:evenodd;clip-rule:evenodd;fill-opacity:0.64;}
</style>
<title>Event Widget Indicators/in_play_indicator</title>
<desc>Created with Sketch.</desc>
<path id="in_play_indicator" class="st0" d="M6,0c3.3,0,6,2.7,6,6s-2.7,6-6,6S0,9.3,0,6S2.7,0,6,0z M6,10.2c2.3,0,4.3-1.9,4.3-4.3
	c0-2.3-1.9-4.3-4.3-4.3c-2.3,0-4.3,1.9-4.3,4.3C1.7,8.3,3.7,10.2,6,10.2z M6.2,6h3.2c0,1.8-1.5,3.3-3.4,3.3S2.6,7.8,2.6,5.9
	c0-1.8,1.5-3.3,3.3-3.4v3.2C5.9,5.9,6.1,6,6.2,6z"/>
</svg>
