<?xml version="1.0" encoding="utf-8"?>
<!-- Generator: Adobe Illustrator 23.0.3, SVG Export Plug-In . SVG Version: 6.00 Build 0)  -->
<svg version="1.1" id="Layer_1" xmlns="http://www.w3.org/2000/svg" xmlns:xlink="http://www.w3.org/1999/xlink" x="0px" y="0px"
	 viewBox="0 0 16 16" style="enable-background:new 0 0 16 16;" xml:space="preserve">
<style type="text/css">
	.st0{fill-rule:evenodd;clip-rule:evenodd;fill-opacity:0.64;}
</style>
<title>Button Icons/date_filter_normal</title>
<desc>Created with Sketch.</desc>
<path id="date_filter_normal" class="st0" d="M14.1,1.3h-2.5V0.6c0-0.3-0.2-0.5-0.5-0.5s-0.5,0.2-0.5,0.5v0.8H5.4V0.5
	C5.4,0.2,5.2,0,5,0S4.5,0.2,4.5,0.5v0.9H1.9C0.9,1.3,0,2.2,0,3.3v10.8C0,15.1,0.9,16,1.9,16h12.1c1.1,0,1.9-0.9,1.9-1.9V3.3
	C16,2.2,15.1,1.3,14.1,1.3 M14.1,15.1H1.9c-0.6,0-1-0.5-1-1V6.5h14.1v7.5C15.1,14.6,14.6,15.1,14.1,15.1 M1.9,2.3h2.5V3
	c0,0.3,0.2,0.5,0.5,0.5S5.4,3.3,5.4,3V2.3h5.2v0.9c0,0.3,0.2,0.5,0.5,0.5s0.5-0.2,0.5-0.5V2.3h2.5c0.6,0,1,0.5,1,1v2.5H0.9V3.3
	C0.9,2.7,1.4,2.3,1.9,2.3z M4.3,8.9C4.3,8.9,4.4,9,4.4,9.1c0,0.1,0,0.2,0,0.3c0,0.1,0,0.2,0,0.3c0,0.1-0.1,0.2-0.2,0.2S4.1,10,4,10
	c-0.1,0-0.2,0.1-0.3,0.1s-0.2,0-0.3-0.1c-0.1,0-0.2-0.1-0.2-0.2C3.2,9.8,3.1,9.7,3.1,9.6c0-0.1-0.1-0.2-0.1-0.3c0-0.1,0-0.2,0.1-0.3
	c0-0.1,0.1-0.2,0.2-0.2C3.5,8.6,4,8.6,4.3,8.9z M7.1,8.9C7.1,8.9,7.2,9,7.2,9.1c0,0.1,0,0.2,0,0.3c0,0.1,0,0.2,0,0.3
	c0,0.1-0.1,0.2-0.2,0.2C7,9.9,6.9,10,6.9,10c-0.1,0-0.2,0.1-0.3,0.1s-0.2,0-0.3-0.1c-0.1,0-0.2-0.1-0.2-0.2C6,9.8,6,9.7,5.9,9.6
	c0-0.1-0.1-0.2-0.1-0.3c0-0.1,0-0.2,0.1-0.3C6,9,6,8.9,6.1,8.9c0.2-0.2,0.5-0.3,0.8-0.2C6.9,8.8,7,8.8,7.1,8.9z M4.3,11.7
	c0.1,0.1,0.1,0.1,0.2,0.2c0,0.1,0,0.2,0,0.3s0,0.2,0,0.3c0,0.1-0.1,0.2-0.2,0.2c-0.1,0.1-0.3,0.2-0.5,0.2c-0.1,0-0.2,0-0.3-0.1
	c-0.1,0-0.2-0.1-0.2-0.2c-0.1-0.1-0.1-0.1-0.2-0.2c0-0.1-0.1-0.2-0.1-0.3c0-0.2,0.1-0.4,0.2-0.5C3.5,11.4,4,11.4,4.3,11.7z
	 M7.1,11.7c0.1,0.1,0.1,0.1,0.2,0.2c0,0.1,0,0.2,0,0.3s0,0.2,0,0.3c0,0.1-0.1,0.2-0.2,0.2c-0.1,0.1-0.1,0.1-0.2,0.2
	c-0.1,0-0.2,0.1-0.3,0.1s-0.2,0-0.3-0.1c-0.1,0-0.2-0.1-0.2-0.2C6,12.6,6,12.5,5.9,12.5c0-0.1-0.1-0.2-0.1-0.3
	c0-0.2,0.1-0.4,0.2-0.5c0.1-0.1,0.1-0.1,0.2-0.2c0.2-0.1,0.4-0.1,0.5,0C6.9,11.6,7,11.6,7.1,11.7z M9.9,8.9C10,8.9,10,9,10.1,9.1
	c0,0.1,0,0.2,0,0.3c0,0.1,0,0.2,0,0.3c0,0.1-0.1,0.2-0.2,0.2C9.8,9.9,9.8,10,9.7,10c-0.1,0-0.2,0.1-0.3,0.1c-0.1,0-0.2,0-0.3-0.1
	C9.1,10,9,9.9,8.9,9.9S8.8,9.7,8.8,9.6c0-0.1-0.1-0.2-0.1-0.3c0-0.1,0-0.2,0.1-0.3c0-0.1,0.1-0.2,0.2-0.2s0.1-0.1,0.2-0.2
	C9.4,8.6,9.7,8.7,9.9,8.9z M9.9,11.7c0.1,0.1,0.1,0.1,0.2,0.2c0,0.1,0,0.2,0,0.3s0,0.2,0,0.3c0,0.1-0.1,0.2-0.2,0.2
	c-0.1,0.1-0.1,0.1-0.2,0.2c-0.1,0-0.2,0.1-0.3,0.1c-0.1,0-0.2,0-0.3-0.1c-0.1,0-0.2-0.1-0.2-0.2c-0.1-0.1-0.1-0.1-0.2-0.2
	c0-0.1-0.1-0.2-0.1-0.3c0-0.2,0.1-0.4,0.2-0.5c0.1-0.1,0.1-0.1,0.2-0.2c0.2-0.1,0.4-0.1,0.5,0C9.8,11.6,9.8,11.6,9.9,11.7z
	 M12.7,11.7c0.1,0.1,0.1,0.1,0.2,0.2c0,0.1,0,0.2,0,0.3s0,0.2,0,0.3c0,0.1-0.1,0.2-0.2,0.2c-0.1,0.1-0.3,0.2-0.5,0.2
	c-0.1,0-0.2,0-0.3-0.1c-0.1,0-0.2-0.1-0.2-0.2c-0.1-0.1-0.1-0.1-0.1-0.2c0-0.1-0.1-0.2-0.1-0.3c0-0.2,0.1-0.4,0.2-0.5
	C12,11.4,12.5,11.4,12.7,11.7z M12.7,8.9c0.1,0.1,0.1,0.1,0.2,0.2c0,0.1,0,0.2,0,0.3c0,0.1,0,0.2,0,0.3c0,0.1-0.1,0.2-0.2,0.2
	c-0.1,0.1-0.1,0.1-0.2,0.2c-0.1,0-0.2,0.1-0.3,0.1c-0.1,0-0.2,0-0.3-0.1c-0.1,0-0.2-0.1-0.2-0.2c-0.1-0.1-0.1-0.1-0.1-0.2
	c0-0.1-0.1-0.2-0.1-0.3c0-0.1,0-0.2,0.1-0.3c0-0.1,0.1-0.2,0.1-0.2c0.2-0.2,0.5-0.3,0.8-0.2C12.6,8.8,12.7,8.8,12.7,8.9z"/>
</svg>
