<?xml version="1.0" encoding="utf-8"?>
<!-- Generator: Adobe Illustrator 16.0.0, SVG Export Plug-In . SVG Version: 6.00 Build 0)  -->
<!DOCTYPE svg PUBLIC "-//W3C//DTD SVG 1.1//EN" "http://www.w3.org/Graphics/SVG/1.1/DTD/svg11.dtd">
<svg version="1.1" id="Layer_1" xmlns="http://www.w3.org/2000/svg" xmlns:xlink="http://www.w3.org/1999/xlink" x="0px" y="0px"
	 width="14px" height="16px" viewBox="0 0 14 16" enable-background="new 0 0 14 16" xml:space="preserve">
<g>
	<path fill="#FFFFFF" d="M12.225,1.81h-0.469V13.3c0,0.763-0.621,1.384-1.384,1.384H1.866v0.426c0,0.488,0.395,0.884,0.883,0.884
		h9.474c0.487,0,0.883-0.396,0.883-0.884V2.694c0.002-0.487-0.393-0.883-0.879-0.884C12.225,1.81,12.225,1.81,12.225,1.81z"/>
	<path fill="#FFFFFF" d="M5.633,14.184h4.737c0.487-0.001,0.883-0.396,0.883-0.885V0.884C11.253,0.396,10.857,0,10.37,0H4.058v0.292
		c0.004,0.03,0.005,0.062,0.005,0.094v2.42c0,0.686-0.557,1.244-1.244,1.244H0.4L0.323,4.047H0.015v9.252
		c0,0.488,0.396,0.885,0.884,0.885H5.633z M5.813,11.18h-3.09c-0.231-0.011-0.409-0.207-0.397-0.438
		c0.01-0.215,0.182-0.387,0.397-0.397h3.09c0.23-0.011,0.426,0.168,0.437,0.398S6.083,11.17,5.852,11.18
		c-0.014,0.001-0.027,0.001-0.041,0H5.813z M8.902,9.049H2.724c-0.23-0.012-0.409-0.207-0.397-0.438
		c0.01-0.215,0.182-0.387,0.397-0.397h6.178c0.23,0.011,0.408,0.208,0.396,0.438C9.289,8.867,9.117,9.039,8.902,9.049z M2.724,5.95
		h6.178c0.23,0.011,0.408,0.207,0.396,0.438c-0.01,0.215-0.182,0.387-0.396,0.397H2.724c-0.23-0.012-0.409-0.208-0.397-0.438
		C2.337,6.132,2.509,5.96,2.724,5.95z"/>
	<path fill="#FFFFFF" d="M0.4,3.55h2.425C3.23,3.547,3.557,3.219,3.56,2.814V0.386c0-0.205-0.167-0.371-0.373-0.371
		c-0.098,0-0.192,0.04-0.262,0.109l-2.79,2.79c-0.145,0.146-0.145,0.381,0,0.526c0.069,0.07,0.164,0.109,0.263,0.109L0.4,3.55z"/>
</g>
</svg>
