<?xml version="1.0" encoding="UTF-8"?>
<svg width="16px" height="16px" viewBox="0 0 16 16" version="1.1" xmlns="http://www.w3.org/2000/svg" xmlns:xlink="http://www.w3.org/1999/xlink">
    <!-- Generator: Sketch 55.1 (78136) - https://sketchapp.com -->
    <title>Bet Process/bet_status_pending</title>
    <desc>Created with Sketch.</desc>
    <g id="Icons" stroke="none" stroke-width="1" fill="none" fill-rule="evenodd">
        <g id="Bet-Process/bet_status_pending" fill="#B86800" fill-rule="nonzero">
            <path d="M13.0875756,1.63336477 C11.6589114,0.564769988 9.95196256,0 8.15122723,0 C3.65664925,0 0,3.58880855 0,8 C0,12.4111914 3.65664925,16 8.15122723,16 C10.3284753,16 12.3754643,15.1678927 13.9149982,13.6568375 C14.1151273,13.4604213 14.1151273,13.141947 13.9149982,12.9455308 C13.714869,12.7491145 13.3902891,12.7491145 13.1902453,12.9455308 C11.8442636,14.2665409 10.0547177,14.994027 8.15122723,14.994027 C4.22184542,14.994027 1.02498928,11.856565 1.02498928,8 C1.02498928,4.14343498 4.22176,1.00597296 8.15122723,1.00597296 C11.3025568,1.00597296 14.1169211,3.07785812 14.9952515,6.04455622 C15.0741756,6.31130672 15.3585248,6.46463376 15.6304032,6.38717384 C15.9021961,6.3096301 16.058507,6.03055643 15.9794974,5.76380593 C15.4970691,4.13421356 14.4700299,2.66725348 13.0875756,1.63336477 Z" id="bet_status_pending"></path>
        </g>
    </g>
</svg>