<svg xmlns="http://www.w3.org/2000/svg" width="18" height="15" viewBox="0 0 18 15">
    <path fill="#51A37D" fill-rule="nonzero" d="M17.023.026V0H.969v.026C.449.062.062.475 0 .976v10.533c0 .203.053.374.14.527.204.357.503.537.917.537H6.85v1.46h-1.1a.478.478 0 0 0-.485.483c0 .272.212.484.485.484h6.49a.485.485 0 0 0 .493-.484.485.485 0 0 0-.493-.484H11.14v-1.46h5.794c.414 0 .716-.18.916-.536.091-.16.15-.333.15-.527V.975c-.062-.5-.476-.913-.977-.949zm0 1.038v10.445c0 .062-.027.089-.089.089H1.057c-.062 0-.088-.027-.088-.089V.975h16.053v.089z"/>
</svg>
