<?xml version="1.0" encoding="UTF-8"?>
<svg width="24px" height="24px" viewBox="0 0 24 24" version="1.1" xmlns="http://www.w3.org/2000/svg" xmlns:xlink="http://www.w3.org/1999/xlink">
    <!-- Generator: Sketch 55.1 (78136) - https://sketchapp.com -->
    <title>Flags/china</title>
    <desc>Created with Sketch.</desc>
    <g id="Icons" stroke="none" stroke-width="1" fill="none" fill-rule="evenodd">
        <g id="Flags/china">
            <g id="china">
                <circle id="Oval" fill="#FF4B55" fill-rule="nonzero" cx="12" cy="12" r="11.5"></circle>
                <path d="M6.75739431,7.88837673 L7.08515625,8.896875 L7.603125,10.490625 L10.3404025,10.490625 C10.4508594,10.490625 10.5404025,10.5801681 10.5404025,10.690625 C10.5404025,10.7545616 10.509834,10.8146446 10.4581532,10.8522875 L8.2453125,12.4640625 L9.09121703,15.0668457 C9.12535773,15.171894 9.06787575,15.284729 8.96282743,15.3188697 C8.90198708,15.3386428 8.83535899,15.3281182 8.78357547,15.2905551 L6.5671875,13.6828125 L4.35192648,15.2897376 C4.26251589,15.354595 4.13745696,15.3346907 4.07259954,15.2452802 C4.03498132,15.1934208 4.02448419,15.1266785 4.04436727,15.0657754 L4.89375,12.4640625 L2.67721394,10.8523843 C2.58787675,10.7874258 2.5681139,10.6623445 2.63307237,10.5730073 C2.67070685,10.5212487 2.73083711,10.490625 2.79483167,10.490625 L5.53125,10.490625 L6.37698069,7.88837673 C6.41112139,7.78332841 6.52395639,7.72584643 6.62900471,7.75998714 C6.68988113,7.77977197 6.73760948,7.82750032 6.75739431,7.88837673 Z M14.1292074,18.4661158 L14.0752473,18.3997035 L13.434375,17.6109375 L12.4059885,18.0099515 C12.3802441,18.0199403 12.3512767,18.0071679 12.3412879,17.9814236 C12.3354978,17.9665005 12.3372026,17.9497072 12.3458736,17.9362522 L12.9421875,17.0109375 L12.2464058,16.1504737 C12.2290428,16.1290011 12.2323742,16.0975186 12.2538468,16.0801556 C12.266263,16.0701158 12.2827276,16.0666099 12.2981569,16.0707204 L13.3640625,16.3546875 L13.9645972,15.429206 C13.9796285,15.4060412 14.0105926,15.3994478 14.0337573,15.4144791 C14.0471915,15.4231964 14.0556371,15.4378214 14.0564726,15.4538142 L14.1140625,16.55625 L15.1831583,16.8399716 C15.2098487,16.8470548 15.2257434,16.8744337 15.2186602,16.901124 C15.2145384,16.9166553 15.2032033,16.9292591 15.1881947,16.9349995 L14.15625,17.3296875 L14.217935,18.4317921 C14.2194781,18.4593631 14.1983783,18.4829649 14.1708072,18.4845081 C14.1547933,18.4854044 14.1393215,18.4785639 14.1292074,18.4661158 Z M15.8477106,15.5788887 L16.1765625,14.5265625 L15.2750701,13.8885199 C15.2525301,13.872567 15.2471903,13.8413623 15.2631432,13.8188224 C15.2723639,13.8057945 15.2872503,13.7979515 15.3032093,13.7977133 L16.40625,13.78125 L16.7312633,12.7280424 C16.739406,12.701656 16.7673973,12.6868665 16.7937837,12.6950092 C16.8090605,12.6997235 16.8211617,12.7114591 16.8263423,12.7265841 L17.184375,13.771875 L18.2868179,13.7595342 C18.3144304,13.7592251 18.3370653,13.7813589 18.3373744,13.8089714 C18.3375535,13.8249711 18.3300644,13.8400902 18.3172281,13.8496428 L17.4328125,14.5078125 L17.7865948,15.5527045 C17.7954507,15.5788602 17.7814264,15.6072427 17.7552707,15.6160985 C17.7401124,15.6212309 17.7234133,15.6187971 17.7103504,15.6095517 L16.809375,14.971875 L15.9254048,15.6338248 C15.903301,15.6503769 15.8719643,15.6458764 15.8554122,15.6237727 C15.8457852,15.6109167 15.84292,15.5942187 15.8477106,15.5788887 Z M17.8575388,8.94559351 L17.371875,9.9375 L18.1619102,10.7069614 C18.1816923,10.7262283 18.1821099,10.7578838 18.162843,10.7776659 C18.1516938,10.7891132 18.1357448,10.7945419 18.1199271,10.7922737 L17.0296875,10.6359375 L16.5443267,11.6231119 C16.5321428,11.6478929 16.5021767,11.6581048 16.4773958,11.6459208 C16.4630509,11.6388679 16.4529429,11.6253814 16.450199,11.6096337 L16.2609375,10.5234375 L15.1671314,10.3671795 C15.1397947,10.3632742 15.1207998,10.3379477 15.124705,10.3106109 C15.1269755,10.2947175 15.1367399,10.2808811 15.1509535,10.273416 L16.1296875,9.759375 L15.9404528,8.66921833 C15.93573,8.64201096 15.9539573,8.61612644 15.9811647,8.61140365 C15.9969619,8.60866149 16.013116,8.61366148 16.0246019,8.62484831 L16.8140625,9.39375 L17.7893069,8.87938062 C17.813732,8.86649815 17.8439758,8.87585535 17.8568583,8.9002805 C17.86431,8.91440904 17.8645629,8.93124758 17.8575388,8.94559351 Z M14.2478383,5.53995278 L14.165625,6.6375 L15.1896018,7.05284803 C15.2151911,7.06322761 15.227521,7.09238612 15.2171414,7.11797538 C15.2111088,7.13284794 15.1983034,7.14392058 15.1827157,7.14774285 L14.109375,7.4109375 L14.0312635,8.51272024 C14.0293107,8.54026534 14.0053979,8.56101198 13.9778528,8.55905915 C13.9618228,8.5579227 13.947316,8.54915061 13.9388635,8.5354828 L13.359375,7.5984375 L12.2851228,7.86185567 C12.2583031,7.86843214 12.2312301,7.85202177 12.2246537,7.82520208 C12.2208464,7.80967563 12.2246931,7.79326473 12.2350033,7.78104736 L12.946875,6.9375 L12.3631193,6.00431304 C12.3484745,5.98090201 12.3555809,5.95005168 12.378992,5.93540689 C12.3925889,5.92690135 12.4094406,5.9254345 12.4243026,5.93146285 L13.4484375,6.346875 L14.1597663,5.50397098 C14.1775758,5.48286724 14.2091212,5.48019673 14.2302249,5.49800623 C14.2424855,5.50835299 14.2490366,5.52395459 14.2478383,5.53995278 Z" id="Shape" fill="#FFDA44" fill-rule="nonzero"></path>
                <circle id="Oval" stroke="#FFFFFF" cx="12" cy="12" r="11.5"></circle>
            </g>
        </g>
    </g>
</svg>