<?xml version="1.0" encoding="UTF-8"?>
<svg width="24px" height="24px" viewBox="0 0 24 24" version="1.1" xmlns="http://www.w3.org/2000/svg" xmlns:xlink="http://www.w3.org/1999/xlink">
    <!-- Generator: Sketch 55.1 (78136) - https://sketchapp.com -->
    <title>Flags/serbia</title>
    <desc>Created with Sketch.</desc>
    <g id="Icons" stroke="none" stroke-width="1" fill="none" fill-rule="evenodd">
        <g id="Flags/serbia">
            <g id="serbia">
                <g id="Group-2" transform="translate(0.500000, 0.500000)" fill-rule="nonzero">
                    <path d="M0.655271949,15.3358789 L22.3447281,15.3358789 C20.7653033,19.8011199 16.5062209,23 11.5,23 C6.49377911,23 2.23469669,19.8011199 0.655271949,15.3358789 Z" id="Combined-Shape" fill="#F5F5F5"></path>
                    <path d="M22.3447281,7.66412109 L0.655271949,7.66412109 C2.23469669,3.1988801 6.49377911,-5.01820807e-14 11.5,-5.01820807e-14 C16.5062209,-5.01820807e-14 20.7653033,3.1988801 22.3447281,7.66412109 Z" id="Combined-Shape" fill="#FF4B55"></path>
                    <path d="M0.655271949,7.66412109 L22.3447281,7.66412109 C22.7690823,8.86382626 23,10.1549463 23,11.5 C23,12.8450537 22.7690823,14.1361737 22.3447281,15.3358789 L0.655271949,15.3358789 C0.230917693,14.1361737 0,12.8450537 0,11.5 C0,10.1549463 0.230917693,8.86382626 0.655271949,7.66412109 Z" id="Combined-Shape" fill="#41479B"></path>
                </g>
                <polygon id="Shape" fill="#FFE15A" fill-rule="nonzero" points="10.4265937 7.99565625 5.87620312 7.99565625 5.68659375 6.85809375 10.6162031 6.85809375"></polygon>
                <polygon id="Shape" fill="#FFD350" fill-rule="nonzero" points="5.82876562 7.71126563 5.87620312 8.46126562 10.4265938 8.46126562 10.4740312 7.71126563"></polygon>
                <g id="Group" transform="translate(5.203125, 4.171875)" fill="#FFE15A" fill-rule="nonzero">
                    <polygon id="Rectangle-path" points="2.85328125 0.031875 3.60328125 0.031875 3.60328125 0.790265625 2.85328125 0.790265625"></polygon>
                    <polygon id="Rectangle-path" points="2.66390625 0.22125 3.41390625 0.22125 3.41390625 0.97125 2.66390625 0.97125"></polygon>
                    <path d="M5.23828125,3.06539063 C5.2168125,3.06539063 5.1950625,3.0616875 5.17364062,3.05409375 C5.07525,3.018375 5.02429687,2.90967188 5.0600625,2.8111875 L5.4616875,1.70282813 C5.48160937,1.64784375 5.476875,1.58728125 5.44879687,1.53675 C5.43389062,1.50989063 5.39896875,1.4626875 5.3325,1.4484375 C4.84284375,1.344375 3.89371875,1.16939063 3.03979687,1.16939063 L2.85665625,1.16939063 C2.0026875,1.16939063 1.05360937,1.344375 0.563765625,1.448625 C0.497484375,1.4626875 0.4625625,1.50989062 0.44765625,1.53675 C0.419625,1.58728125 0.414890625,1.64784375 0.434859375,1.70282812 L0.836390625,2.8111875 C0.872109375,2.90967188 0.821203125,3.018375 0.7228125,3.05409375 C0.624515625,3.08929688 0.51553125,3.03871875 0.48,2.94042187 L0.078375,1.8320625 C0.021046875,1.67395312 0.03478125,1.49934375 0.1160625,1.35285937 C0.194578125,1.21120312 0.328921875,1.11084375 0.484734375,1.07770312 C0.989203125,0.9703125 1.96804687,0.790171875 2.85670312,0.790171875 L3.03984375,0.790171875 C3.9285,0.790171875 4.90734375,0.9703125 5.411625,1.07751562 C5.567625,1.11084375 5.70196875,1.21120312 5.7804375,1.35285937 C5.86171875,1.49929687 5.87540625,1.67390625 5.81821875,1.8320625 L5.4165,2.94042187 C5.38865625,3.0174375 5.3158125,3.06539063 5.23828125,3.06539063 Z" id="Shape"></path>
                    <path d="M3.13439063,2.8995 C2.92728308,2.8995 2.75939063,2.81470313 2.75939063,2.70989063 L2.75939063,1.16939063 C2.75939063,1.06457812 2.92728308,0.97978125 3.13439063,0.97978125 C3.34149817,0.97978125 3.50939063,1.06457812 3.50939063,1.16939063 L3.50939063,2.70989063 C3.50939063,2.81470313 3.34149817,2.8995 3.13439063,2.8995 Z" id="Shape"></path>
                    <path d="M4.25967187,3.06539063 C4.246875,3.06539063 4.2339375,3.06407813 4.22095312,3.0615 C4.11839062,3.04021875 4.05253125,2.93985938 4.07385937,2.83729688 L4.30382812,1.7289375 C4.33373437,1.58451563 4.28690625,1.45804688 4.26032812,1.43582813 C3.99740625,1.33935938 3.46996875,1.16939063 3.00070312,1.16939063 L2.89579687,1.16939063 C2.42653125,1.16939063 1.89909375,1.33935938 1.62646875,1.44084375 C1.60964062,1.45804688 1.56276562,1.58451563 1.59267187,1.7289375 L1.82264062,2.83729688 C1.84392187,2.93985938 1.77810937,3.04021875 1.67554687,3.0615 C1.57289062,3.08132813 1.47253125,3.016875 1.45139062,2.9143125 L1.22142187,1.80595313 C1.16409375,1.52971875 1.25207812,1.17585938 1.49404687,1.08548438 C1.85648437,0.950671875 2.393625,0.790171875 2.89579687,0.790171875 L3.00070312,0.790171875 C3.50282812,0.790171875 4.04001562,0.95071875 4.40226562,1.08529688 C4.64446875,1.17585938 4.73240625,1.52967188 4.67507812,1.80595313 L4.44510937,2.9143125 C4.42659375,3.0039375 4.34760937,3.06539063 4.25967187,3.06539063 Z" id="Shape"></path>
                </g>
                <polygon id="Shape" fill="#FFD350" fill-rule="nonzero" points="5.73398438 7.60809375 10.5688125 7.60809375 10.6162031 6.85809375 5.68659375 6.85809375"></polygon>
                <path d="M4.54898437,7.99565625 C4.44426562,7.99565625 4.359375,8.08054687 4.359375,8.18526562 L4.359375,14.8066875 C4.359375,16.9090313 6.05709375,18.6133125 8.15142188,18.6133125 C10.24575,18.6133125 11.9434687,16.9090312 11.9434687,14.8066875 L11.9434687,8.18526562 C11.9434687,8.08054687 11.8585781,7.99565625 11.7538594,7.99565625 L4.54898437,7.99565625 Z" id="Shape" fill="#FF4B55" fill-rule="nonzero"></path>
                <path d="M8.53059375,14.2525312 L8.9098125,13.3045313 L8.15142187,13.4941406 L7.39303125,13.3045313 L7.77225,14.2525312 L6.82425,17.47575 C6.82425,17.47575 7.39303125,17.8549687 8.15146875,17.8549687 C8.90990625,17.8549687 9.4786875,17.47575 9.4786875,17.47575 L8.53059375,14.2525312 Z" id="Shape" fill="#F5F5F5" fill-rule="nonzero"></path>
                <polygon id="Shape" fill="#FFE15A" fill-rule="nonzero" points="6.77817188 15.0166875 6.44367188 15.1002656 7.17951563 13.7757187 6.8480625 13.5916875 5.95429688 15.2005313 5.11776563 15.2005313 5.11776563 15.57975 5.52520313 15.57975 4.99935938 16.0004062 5.23617188 16.2966562 5.68289063 15.9393281 5.5066875 16.46775 5.86645313 16.58775 6.21276563 15.5488125 6.8701875 15.384375"></polygon>
                <path d="M6.82420312,9.89170312 L5.95865625,9.45895312 C5.79970312,9.37945312 5.71725,9.20025 5.760375,9.02779687 L5.8093125,8.832 C5.84329687,8.69610937 5.7405,8.56448437 5.6004375,8.56448437 C5.53504687,8.56448437 5.47317187,8.59420312 5.43234375,8.64529687 C4.98323437,9.20667187 4.73859375,9.90417187 4.73859375,10.6230937 L4.73859375,14.63175 C4.73859375,14.63175 5.53035937,14.4734063 6.24557812,13.4331562 C6.37692187,13.2421406 6.5930625,13.129125 6.82345312,13.1172656 L6.44503125,14.2525313 L7.20342187,14.4421406 L7.86703125,13.6524375 L6.82420312,9.89170312 Z" id="Shape" fill="#F5F5F5" fill-rule="nonzero"></path>
                <polygon id="Shape" fill="#FFE15A" fill-rule="nonzero" points="9.524625 15.0166875 9.859125 15.1002656 9.12328125 13.7757187 9.45473437 13.5916875 10.3485469 15.2005313 11.1850313 15.2005313 11.1850313 15.57975 10.7775937 15.57975 11.3034375 16.0004062 11.066625 16.2966562 10.6199062 15.9393281 10.7961094 16.46775 10.4363438 16.58775 10.0900312 15.5488125 9.43260938 15.384375"></polygon>
                <path d="M9.47859375,9.89170312 L10.3441406,9.45895312 C10.5030937,9.37945312 10.5855469,9.20025 10.5424219,9.02779687 L10.4934844,8.832 C10.4595,8.69610937 10.5622969,8.56448437 10.7023594,8.56448437 C10.76775,8.56448437 10.829625,8.59420312 10.8704531,8.64529687 C11.3195625,9.20667187 11.5642031,9.90417187 11.5642031,10.6230937 L11.5642031,14.63175 C11.5642031,14.63175 10.7724375,14.4734063 10.0572188,13.4331562 C9.925875,13.2421406 9.70973438,13.129125 9.47934375,13.1172656 L9.85776563,14.2525313 L9.099375,14.4421406 L8.43576563,13.6524375 L9.47859375,9.89170312 Z" id="Shape" fill="#F5F5F5" fill-rule="nonzero"></path>
                <g id="Group" transform="translate(6.046875, 8.531250)" fill="#FFE15A" fill-rule="nonzero">
                    <polygon id="Shape" points="0.9669375 0.033234375 0.018890625 0.033234375 0.303328125 0.412453125 0.9669375 0.602015625 0.58771875 0.791625 1.1565 0.791625"></polygon>
                    <polygon id="Shape" points="3.24215625 0.033234375 4.19015625 0.033234375 3.90571875 0.412453125 3.24215625 0.602015625 3.62132812 0.791625 3.05254687 0.791625"></polygon>
                </g>
                <path d="M9.42248438,8.41584375 L8.53059375,8.56448437 L8.151375,9.322875 L7.77215625,8.56448437 L6.88026563,8.41584375 C6.77798438,8.39878125 6.69960938,8.50495312 6.74596875,8.59767187 L7.203375,9.51248437 L6.82415625,9.89170312 L8.151375,9.89170312 L9.47859375,9.89170312 L9.099375,9.51248437 L9.55678125,8.59767187 C9.60314063,8.50495312 9.52476563,8.39878125 9.42248438,8.41584375 Z" id="Shape" fill="#F5F5F5" fill-rule="nonzero"></path>
                <circle id="Oval" fill="#FFBE50" fill-rule="nonzero" cx="8.61717187" cy="7.40639063" r="1"></circle>
                <circle id="Oval" fill="#41479B" fill-rule="nonzero" cx="8.67257812" cy="8.21245312" r="1"></circle>
                <circle id="Oval" fill="#FF4B55" fill-rule="nonzero" cx="7.55085937" cy="8.21245312" r="1"></circle>
                <g id="Group" transform="translate(5.671875, 7.453125)" fill="#41479B" fill-rule="nonzero">
                    <circle id="Oval" cx="0.757265625" cy="0.771321429" r="1"></circle>
                    <circle id="Oval" cx="5.24460938" cy="0.771321429" r="1"></circle>
                </g>
                <circle id="Oval" fill="#FF4B55" fill-rule="nonzero" cx="9.79429688" cy="8.21245312" r="1"></circle>
                <g id="Group" transform="translate(5.484375, 6.656250)" fill="#FFBE50" fill-rule="nonzero">
                    <circle id="Oval" cx="4.44998438" cy="0.750173077" r="1"></circle>
                    <circle id="Oval" cx="5.49014062" cy="0.750173077" r="1"></circle>
                    <circle id="Oval" cx="1.81607812" cy="0.750173077" r="1"></circle>
                    <circle id="Oval" cx="0.775921875" cy="0.750173077" r="1"></circle>
                </g>
                <path d="M8.478,5.5224375 C8.51057812,5.44864269 8.53059375,5.36397026 8.53059375,5.2724375 C8.53059375,4.99629411 8.3608125,4.7724375 8.151375,4.7724375 C7.9419375,4.7724375 7.77215625,4.99629411 7.77215625,5.2724375 C7.77215625,5.36397026 7.79217187,5.44864269 7.82475,5.5224375 C7.82475,5.5224375 8.478,5.5224375 8.478,5.5224375 Z" id="Shape" fill="#41479B" fill-rule="nonzero"></path>
                <path d="M8.15142188,13.7785313 C7.36729687,13.7785313 6.72942187,13.1406562 6.72942187,12.3565312 L6.72942187,9.796875 L9.57342187,9.796875 L9.57342187,12.3564844 C9.57342187,13.1406562 8.93554688,13.7785313 8.15142188,13.7785313 Z" id="Shape" fill="#FF4B55" fill-rule="nonzero"></path>
                <path d="M9.47859375,9.89170312 L9.47859375,12.3565313 C9.47859375,13.0895156 8.88440625,13.68375 8.151375,13.68375 C7.41834375,13.68375 6.82415625,13.0895156 6.82415625,12.3565313 L6.82415625,9.89170312 L9.47859375,9.89170312 L9.47859375,9.89170312 Z M9.66820312,9.70209375 L9.47859375,9.70209375 L6.82415625,9.70209375 L6.63454687,9.70209375 L6.63454687,9.89170312 L6.63454687,12.3565312 C6.63454687,13.1929219 7.31498437,13.8733594 8.151375,13.8733594 C8.98776562,13.8733594 9.66820312,13.1929219 9.66820312,12.3565312 L9.66820312,9.89170312 L9.66820312,9.70209375 L9.66820312,9.70209375 Z" id="Shape" fill="#A54B50" fill-rule="nonzero"></path>
                <g id="Group" transform="translate(6.796875, 9.890625)" fill="#F5F5F5" fill-rule="nonzero">
                    <path d="M1.07010937,3.76176563 C1.19100933,3.78182813 1.31629777,3.79307812 1.44510937,3.79307812 C1.57398279,3.79307812 1.69920942,3.78182813 1.82010937,3.76176563 L1.82010937,0.00103125 L1.07010937,0.00103125 L1.07010937,3.76176563 Z" id="Shape"></path>
                    <polygon id="Rectangle-path" points="0.0271875 1.56515625 2.681625 1.56515625 2.681625 2.31515625 0.0271875 2.31515625"></polygon>
                </g>
                <circle id="Oval" stroke="#FFFFFF" cx="12" cy="12" r="11.5"></circle>
            </g>
        </g>
    </g>
</svg>