<?xml version="1.0" encoding="UTF-8"?>
<svg width="24px" height="24px" viewBox="0 0 24 24" version="1.1" xmlns="http://www.w3.org/2000/svg" xmlns:xlink="http://www.w3.org/1999/xlink">
    <!-- Generator: Sketch 55.1 (78136) - https://sketchapp.com -->
    <title>Flags/korea_republic</title>
    <desc>Created with Sketch.</desc>
    <g id="Icons" stroke="none" stroke-width="1" fill="none" fill-rule="evenodd">
        <g id="Flags/korea_republic">
            <g id="korea_republic">
                <path d="M12,24 C5.372583,24 0,18.627417 0,12 C0,5.372583 5.372583,0 12,0 C18.627417,0 24,5.372583 24,12 C24,18.627417 18.627417,24 12,24 Z" id="Combined-Shape" fill="#F5F5F5" fill-rule="nonzero"></path>
                <circle id="Oval" stroke="#FFFFFF" cx="12" cy="12" r="11.5"></circle>
                <path d="M14.29725,8.5561875 C12.3959063,7.28859375 9.82771875,7.80689062 8.56096875,9.70495312 C7.92557813,10.6523437 8.1838125,11.9396719 9.13448438,12.5734687 C10.0844063,13.2072656 11.3676094,12.949875 12.0014063,11.9991562 C12.6352031,11.0484844 13.91925,10.7942812 14.8691719,11.4247969 C15.8205938,12.0585937 16.0764844,13.3459219 15.4418438,14.2933125 C16.7094375,12.3919687 16.1970469,9.82378125 14.29725,8.5561875" id="Shape" fill="#FF4B55" fill-rule="nonzero"></path>
                <path d="M8.56096875,9.70495312 C7.92557813,10.6523438 8.1838125,11.9396719 9.13448438,12.5734687 C10.0844063,13.2072656 11.3676094,12.949875 12.0014063,11.9991562 C12.6352031,11.0484844 13.91925,10.7942812 14.8691719,11.4247969 C15.8205938,12.0585938 16.0764844,13.3459219 15.4418438,14.2933125 C14.1759375,16.1979844 11.6085938,16.709625 9.70725,15.4420781 C7.80754688,14.1745312 7.29342188,11.6063438 8.56096875,9.70495312" id="Shape" fill="#41479B" fill-rule="nonzero"></path>
                <path d="M16.4025,6.99323438 L17.1541406,8.12296875 C17.2172813,8.21789063 17.1917344,8.34604688 17.097,8.40946875 L16.9064063,8.53710938 C16.8112969,8.60076563 16.6825781,8.57517188 16.6191094,8.47992188 L15.8665313,7.35042188 C15.8032031,7.25540625 15.8288438,7.12701563 15.9238125,7.06364063 L16.1153438,6.93576563 C16.2105469,6.87225 16.3391719,6.89803125 16.4025,6.99323438 Z M17.5621875,8.73520312 L18.3162656,9.86428125 C18.3799688,9.959625 18.3539531,10.0885781 18.2582813,10.1518125 L18.0668438,10.2783281 C17.971875,10.3410937 17.844,10.3153125 17.7807656,10.2206719 L17.0271094,9.0928125 C16.9636406,8.99784375 16.9891875,8.86935937 17.0841563,8.80584375 L17.275125,8.67815625 C17.3701875,8.61459375 17.4987188,8.64014062 17.5621875,8.73520312 Z M17.20725,6.45623438 L19.1211094,9.32845313 C19.1844375,9.42351563 19.15875,9.55195313 19.0636875,9.61532813 L18.8714063,9.74353125 C18.7763438,9.80690625 18.6478594,9.78121875 18.5844844,9.68615625 L16.6699688,6.81417188 C16.6065469,6.7190625 16.6323281,6.59053125 16.7274844,6.52720313 L16.920375,6.3988125 C17.0155313,6.3354375 17.1439219,6.36117188 17.20725,6.45623438 Z M18.0098906,5.91989063 L18.7631719,7.051875 C18.8266406,7.14721875 18.8005313,7.27598438 18.705,7.339125 L18.5134219,7.46573438 C18.4183594,7.52854688 18.2904375,7.50271875 18.2272031,7.40789063 L17.4733594,6.27740625 C17.4099375,6.18234375 17.435625,6.05385938 17.5307344,5.99048438 L17.722875,5.86242188 C17.8179844,5.79895313 17.9465156,5.82473438 18.0098906,5.91989063 Z M19.1703281,7.66551563 L19.9224844,8.79515625 C19.9857188,8.890125 19.960125,9.018375 19.86525,9.08179688 L19.6742344,9.20953125 C19.579125,9.27314063 19.4504531,9.24745313 19.3870313,9.15220313 L18.634875,8.0225625 C18.5716406,7.92759375 18.5972344,7.79934375 18.6921094,7.73592188 L18.883125,7.6081875 C18.9782344,7.54457813 19.1069063,7.57026563 19.1703281,7.66551563 Z M6.22125,13.7804063 L8.134875,16.6495313 C8.19825,16.7445469 8.17260938,16.8729844 8.07764063,16.9364063 L7.88596875,17.064375 C7.79090625,17.1278438 7.662375,17.1022031 7.59895313,17.0070938 L5.68532813,14.1379688 C5.62195313,14.0429531 5.64754688,13.9145156 5.7425625,13.8510938 L5.93423438,13.723125 C6.02934375,13.6596563 6.15782813,13.6853438 6.22125,13.7804063 Z M5.41790625,14.3170781 L6.16917188,15.444 C6.23245313,15.5389219 6.20695313,15.6672188 6.112125,15.7306875 L5.92153125,15.8582813 C5.82651563,15.9218906 5.69789063,15.8963438 5.634375,15.8012344 L4.882125,14.6745938 C4.81865625,14.5795781 4.84429688,14.4510938 4.9393125,14.387625 L5.13084375,14.25975 C5.22595313,14.1962813 5.35448438,14.2219688 5.41790625,14.3170781 Z M6.57895313,16.0596094 L7.33115625,17.1893438 C7.39439063,17.2843125 7.36879688,17.4126094 7.27392188,17.4760313 L7.08276563,17.6038125 C6.98765625,17.667375 6.85903125,17.6417344 6.79560938,17.5465313 L6.0429375,16.4169844 C5.97960938,16.3219688 6.00525,16.193625 6.10021875,16.1302031 L6.29184375,16.0022344 C6.38695313,15.9387188 6.51553125,15.9644063 6.57895313,16.0596094 Z M4.61446875,14.8535625 L6.526875,17.7228281 C6.59020313,17.8177969 6.56460938,17.9461406 6.4696875,18.0095625 L6.27857813,18.1373438 C6.18351563,18.2009063 6.0549375,18.1752656 5.99146875,18.0801563 L4.0779375,15.2112656 C4.01451563,15.1162031 4.04020313,14.9877188 4.1353125,14.9242969 L4.32754688,14.7961406 C4.42260938,14.7328125 4.55109375,14.7585 4.61446875,14.8535625 Z M5.68570313,9.86442188 L7.59904688,6.99304688 C7.66246875,6.89789063 7.791,6.87220313 7.88610938,6.93571875 L8.0776875,7.06364063 C8.17270313,7.1270625 8.19829688,7.2555 8.13492188,7.35051563 L6.22082813,10.2202969 C6.15759375,10.315125 6.02957813,10.3409531 5.93451563,10.2780469 L5.7436875,10.1517656 C5.64820313,10.0884844 5.6221875,9.95976563 5.68570313,9.86442188 Z M4.88189062,9.32854688 L6.79560937,6.4565625 C6.85903125,6.36135938 6.98765625,6.33571875 7.08276562,6.39928125 L7.273875,6.5270625 C7.36875,6.59048438 7.39434375,6.71878125 7.3310625,6.81375 L5.41785937,9.68592188 C5.35448437,9.78107813 5.22590625,9.80676563 5.13079687,9.74329688 L4.93917187,9.615375 C4.84420312,9.55190625 4.8185625,9.4235625 4.88189062,9.32854688 Z M4.07770313,8.79492187 L5.9915625,5.92007812 C6.05498438,5.82482812 6.18365625,5.79914062 6.27876563,5.86275 L6.469875,5.99053125 C6.56470313,6.05395312 6.59034375,6.18215625 6.52715625,6.277125 L4.61442188,9.15234375 C4.55109375,9.24754687 4.4225625,9.27332812 4.32740625,9.20990625 L4.13517188,9.08175 C4.04010938,9.018375 4.014375,8.88998437 4.07770313,8.79492187 Z M15.8668125,16.6494844 L16.6190625,15.5228438 C16.6825781,15.4277344 16.8112031,15.4021875 16.9062656,15.4657969 L17.0968594,15.5934375 C17.1916875,15.6569063 17.2171875,15.7852031 17.1539063,15.880125 L16.4025938,17.007 C16.3391719,17.1021094 16.2106406,17.1277969 16.1155781,17.0642813 L15.9240469,16.9364063 C15.8289844,16.8729844 15.8033438,16.7445469 15.8668125,16.6494844 Z M17.0270156,14.9128125 L17.7804375,13.7805937 C17.8437656,13.6853906 17.9722969,13.6596562 18.0674531,13.7230781 L18.2594531,13.8510469 C18.3546094,13.9144687 18.38025,14.0430469 18.3167344,14.1381094 L17.5617188,15.2685469 C17.4983906,15.3633281 17.370375,15.3890625 17.2753594,15.3261094 L17.0849531,15.1999219 C16.9896094,15.1366875 16.9636406,15.0080625 17.0270156,14.9128125 Z M16.6699688,17.1889688 L17.4226875,16.059375 C17.4860625,15.9642656 17.6145469,15.9385781 17.7096563,16.0019531 L17.9020313,16.1302031 C17.9970469,16.1935781 18.0227813,16.3219219 17.9594531,16.4170313 L17.20725,17.5467656 C17.1439219,17.641875 17.0154844,17.6676563 16.920375,17.6043281 L16.7274844,17.4759375 C16.632375,17.4126094 16.6065938,17.284125 16.6699688,17.1889688 Z M17.8313438,15.443625 L18.5844375,14.3166562 C18.6478594,14.2217344 18.77625,14.1961406 18.8712188,14.2594687 L19.0634531,14.387625 C19.1586094,14.4510469 19.18425,14.579625 19.1206875,14.6747344 L18.3676406,15.8017031 C18.3042188,15.896625 18.175875,15.9222187 18.0808594,15.8588906 L17.8885781,15.7306875 C17.7934688,15.6672656 17.7678281,15.5386875 17.8313438,15.443625 Z M17.4736406,17.7225469 L18.2271563,16.5949219 C18.2903906,16.5002813 18.4182656,16.4745 18.5132344,16.5372656 L18.7048125,16.663875 C18.8004375,16.7270625 18.8264531,16.8559219 18.7628906,16.9512656 L18.0099375,18.0803906 C17.9465625,18.1754531 17.818125,18.2011406 17.7230625,18.1377656 L17.5309219,18.0097031 C17.4357656,17.9462344 17.410125,17.8176094 17.4736406,17.7225469 Z M18.6352969,15.9829219 L19.3869844,14.8539375 C19.4504063,14.7586875 19.5790781,14.733 19.6741875,14.7966094 L19.8650625,14.9242031 C19.9599844,14.9876719 19.9855313,15.1160625 19.9221563,15.2110313 L19.1699063,16.3385156 C19.106625,16.4333438 18.9785156,16.459125 18.8835,16.396125 L18.6932344,16.2699844 C18.5978438,16.2068438 18.5719219,16.0781719 18.6352969,15.9829219 Z" id="Combined-Shape" fill="#464655" fill-rule="nonzero"></path>
            </g>
        </g>
    </g>
</svg>