<?xml version="1.0" encoding="UTF-8"?>
<svg width="24px" height="24px" viewBox="0 0 24 24" version="1.1" xmlns="http://www.w3.org/2000/svg" xmlns:xlink="http://www.w3.org/1999/xlink">
    <!-- Generator: Sketch 55.1 (78136) - https://sketchapp.com -->
    <title>Flags/croatia</title>
    <desc>Created with Sketch.</desc>
    <g id="Icons" stroke="none" stroke-width="1" fill="none" fill-rule="evenodd">
        <g id="Flags/croatia">
            <g id="croatia">
                <path d="M23.9533074,11.9533074 C23.9533074,10.4918288 23.6918288,9.09105058 23.2062257,7.79766537 L12,7.27470817 L0.793774319,7.79766537 C-0.202464603,10.4785321 -0.202464603,13.4280827 0.793774319,16.1089494 L12,16.6319066 L23.2062257,16.1089494 C23.6918288,14.8155642 23.9533074,13.414786 23.9533074,11.9533074 Z" id="Path" fill="#EEEEEE" fill-rule="nonzero"></path>
                <path d="M12,23.9066148 C16.9983267,23.9060047 21.4685262,20.7954909 23.2062257,16.1089494 L0.793774319,16.1089494 C2.53147383,20.7954909 7.00167325,23.9060047 12,23.9066148 Z" id="Path" fill="#41479B" fill-rule="nonzero"></path>
                <path d="M0.893774,7.797665 L23.106225,7.797665 C21.3827476,3.23289755 16.9527304,0.203933 11.9999995,0.203933 C7.04726861,0.203933 2.61725141,3.23289755 0.893774,7.797665 Z" id="Path" fill="#FF4B55" fill-rule="nonzero"></path>
                <circle id="Oval" stroke="#FFFFFF" cx="12" cy="12" r="11.5"></circle>
                <g id="Group" transform="translate(7.546875, 8.203125)" fill="#FF4B55" fill-rule="nonzero">
                    <rect id="Rectangle-path" x="0.031875" y="0.0075" width="1.76840625" height="2.02125"></rect>
                    <rect id="Rectangle-path" x="3.5690625" y="0.0075" width="1.76840625" height="2.02125"></rect>
                    <polygon id="Rectangle-path" points="1.80046875 2.02828125 3.568875 2.02828125 3.568875 4.04953125 1.80046875 4.04953125"></polygon>
                    <rect id="Rectangle-path" x="7.10578125" y="0.0075" width="1.76840625" height="2.02125"></rect>
                    <polygon id="Rectangle-path" points="5.3371875 2.02828125 7.10559375 2.02828125 7.10559375 4.04953125 5.3371875 4.04953125"></polygon>
                </g>
                <g id="Group" transform="translate(7.546875, 8.203125)" fill="#F5F5F5" fill-rule="nonzero">
                    <rect id="Rectangle-path" x="1.80046875" y="0.0075" width="1.76840625" height="2.02125"></rect>
                    <rect id="Rectangle-path" x="5.3371875" y="0.0075" width="1.76840625" height="2.02125"></rect>
                    <polygon id="Rectangle-path" points="0.031875 2.02828125 1.80028125 2.02828125 1.80028125 4.04953125 0.031875 4.04953125"></polygon>
                    <polygon id="Rectangle-path" points="3.5690625 2.02828125 5.33746875 2.02828125 5.33746875 4.04953125 3.5690625 4.04953125"></polygon>
                    <polygon id="Rectangle-path" points="7.10578125 2.02828125 8.8741875 2.02828125 8.8741875 4.04953125 7.10578125 4.04953125"></polygon>
                </g>
                <g id="Group" transform="translate(9.328125, 12.234375)" fill="#FF4B55" fill-rule="nonzero">
                    <rect id="Rectangle-path" x="1.7878125" y="0.01828125" width="1.76840625" height="2.02125"></rect>
                    <rect id="Rectangle-path" x="0.01921875" y="2.0390625" width="1.76840625" height="2.02125"></rect>
                    <rect id="Rectangle-path" x="3.5559375" y="2.0390625" width="1.76840625" height="2.02125"></rect>
                </g>
                <g id="Group" transform="translate(9.328125, 12.234375)" fill="#F5F5F5" fill-rule="nonzero">
                    <rect id="Rectangle-path" x="0.01921875" y="0.01828125" width="1.76840625" height="2.02125"></rect>
                    <rect id="Rectangle-path" x="3.5559375" y="0.01828125" width="1.76840625" height="2.02125"></rect>
                    <rect id="Rectangle-path" x="1.7878125" y="2.0390625" width="1.76840625" height="2.02125"></rect>
                </g>
                <g id="Group" transform="translate(7.218750, 7.875000)" fill="#FF4B55" fill-rule="nonzero">
                    <path d="M9.2023125,0.33553125 L9.2023125,6.01973437 C9.2023125,8.46140625 7.22292188,10.4407969 4.78125,10.4407969 C2.33957812,10.4407969 0.3601875,8.46140625 0.3601875,6.01973437 L0.3601875,0.33553125 L9.2023125,0.33553125 L9.2023125,0.33553125 Z M9.51810937,0.019734375 L9.2023125,0.019734375 L0.3601875,0.019734375 L0.044390625,0.019734375 L0.044390625,0.33553125 L0.044390625,6.01973437 C0.044390625,8.63160937 2.16932812,10.7565938 4.78125,10.7565938 C7.39317188,10.7565938 9.51810937,8.63165625 9.51810937,6.01973437 L9.51810937,0.33553125 L9.51810937,0.019734375 L9.51810937,0.019734375 Z" id="Shape"></path>
                    <path d="M2.12859375,6.39867187 L2.12859375,4.37760937 L0.3601875,4.37760937 L0.3601875,6.01973437 C0.3601875,6.14765625 0.368671875,6.27351562 0.3793125,6.39867187 L2.12859375,6.39867187 Z" id="Shape"></path>
                </g>
                <g id="Group" transform="translate(7.593750, 14.250000)" fill="#F5F5F5" fill-rule="nonzero">
                    <path d="M8.8081875,0.023671875 L7.05890625,0.023671875 L7.05890625,2.04473437 L8.11589062,2.04473437 C8.49946875,1.45307813 8.74514062,0.764953125 8.8081875,0.023671875 Z" id="Shape"></path>
                    <path d="M0.696609375,2.04473437 L1.75359375,2.04473437 L1.75359375,0.023671875 L0.0043125,0.023671875 C0.06740625,0.764953125 0.31303125,1.45307813 0.696609375,2.04473437 Z" id="Shape"></path>
                </g>
                <g id="Group" transform="translate(8.250000, 12.234375)" fill="#FF4B55" fill-rule="nonzero">
                    <path d="M6.40265625,2.03929687 L8.1519375,2.03929687 C8.16257812,1.91414062 8.1710625,1.78832812 8.1710625,1.66035937 L8.1710625,0.018234375 L6.40265625,0.018234375 L6.40265625,2.03929687 Z" id="Shape"></path>
                    <path d="M1.09734375,5.19117187 L1.09734375,4.06035937 L0.040359375,4.06035937 C0.323578125,4.49723437 0.6823125,4.87884375 1.09734375,5.19117187 Z" id="Shape"></path>
                    <path d="M7.45964063,4.06035937 L6.40265625,4.06035937 L6.40265625,5.19117187 C6.8176875,4.87884375 7.17642187,4.49723437 7.45964063,4.06035937 Z" id="Shape"></path>
                </g>
                <g id="Group" transform="translate(9.328125, 16.265625)" fill="#F5F5F5" fill-rule="nonzero">
                    <path d="M0.01921875,1.15992187 C0.533953125,1.54729687 1.13301562,1.8285 1.787625,1.96139062 L1.787625,0.029109375 L0.01921875,0.029109375 L0.01921875,1.15992187 Z" id="Shape"></path>
                    <path d="M3.55607812,1.96139063 C4.2106875,1.8285 4.80975,1.54729688 5.32448437,1.15992187 L5.32448437,0.029109375 L3.55607812,0.029109375 L3.55607812,1.96139063 Z" id="Shape"></path>
                </g>
                <path d="M12.8842031,16.2947344 L11.11575,16.2947344 L11.11575,18.2270156 C11.4014531,18.2850469 11.6971406,18.3157969 11.9999531,18.3157969 C12.3028125,18.3157969 12.5984531,18.2850469 12.8841562,18.2270156 L12.8841562,16.2947344 L12.8842031,16.2947344 L12.8842031,16.2947344 Z" id="Shape" fill="#FF4B55" fill-rule="nonzero"></path>
                <g id="Group" transform="translate(6.703125, 4.031250)" fill="#4173CD" fill-rule="nonzero">
                    <path d="M2.09667188,0.834984375 C1.71192188,0.775453125 1.31821875,0.732515625 0.91696875,0.70771875 C0.606609375,0.963234375 0.310734375,1.22957812 0.02990625,1.5054375 C0.31190625,2.18615625 0.593859375,2.86692188 0.8758125,3.5476875 C1.44196875,3.31321875 2.02209375,3.12557813 2.61060937,2.98485938 C2.43932812,2.26823438 2.26795313,1.55160937 2.09667188,0.834984375 Z" id="Shape"></path>
                    <path d="M6.37026563,0.4996875 C6.02451563,0.32475 5.6664375,0.162984375 5.296875,0.01565625 C4.9273125,0.16303125 4.56923438,0.324796875 4.22348437,0.4996875 C4.28095312,1.23421875 4.33842187,1.96879688 4.39589062,2.70346875 C4.99560938,2.6565 5.59814063,2.6565 6.19785938,2.70346875 C6.25532813,1.96889062 6.31279688,1.2343125 6.37026563,0.4996875 Z" id="Shape"></path>
                    <path d="M10.5638438,1.5054375 C10.2830156,1.22957812 9.98714063,0.963234375 9.67678125,0.70771875 C9.27553125,0.7325625 8.881875,0.7755 8.49707813,0.834984375 C8.32575,1.55165625 8.15442188,2.26823438 7.98309375,2.98490625 C8.57165625,3.125625 9.15173438,3.31321875 9.71789063,3.54773438 C9.99989063,2.86692188 10.2818906,2.18615625 10.5638438,1.5054375 Z" id="Shape"></path>
                </g>
                <g id="Group" transform="translate(8.765625, 4.218750)" fill="#41479B" fill-rule="nonzero">
                    <path d="M2.16098438,0.3121875 C1.79226563,0.19321875 1.41285938,0.0890625 1.02379688,0.001171875 C0.680578125,0.204421875 0.350484375,0.420328125 0.034171875,0.6474375 C0.2055,1.36410937 0.376828125,2.0806875 0.54815625,2.79735937 C1.13671875,2.65664062 1.733625,2.56289062 2.33339063,2.51596875 C2.27592188,1.78139062 2.21845313,1.0468125 2.16098438,0.3121875 Z" id="Shape"></path>
                    <path d="M6.43457813,0.647484375 C6.11821875,0.420328125 5.788125,0.20446875 5.44495312,0.00121875 C5.05589062,0.089109375 4.67653125,0.193265625 4.30776563,0.312234375 C4.25029688,1.04676562 4.19282813,1.78134375 4.13535938,2.51601562 C4.73507812,2.5629375 5.33207812,2.6566875 5.92059375,2.79740625 C6.09192188,2.08073437 6.26329688,1.36410937 6.43457813,0.647484375 Z" id="Shape"></path>
                </g>
                <g id="Group" transform="translate(8.859375, 4.968750)" fill="#FF4B55" fill-rule="nonzero">
                    <path d="M2.1361875,0.44371875 C1.46760937,0.495984375 0.802078125,0.600515625 0.146015625,0.75740625 C0.11175,0.6140625 0.077484375,0.470765625 0.04321875,0.327375 C0.721828125,0.1651875 1.41014062,0.057046875 2.1016875,0.00290625 C2.11321875,0.14990625 2.12470312,0.296765625 2.1361875,0.44371875 Z" id="Shape"></path>
                    <path d="M2.20514063,1.33546398 C1.58245313,1.38530089 0.962671875,1.48497472 0.351609375,1.6344375 C0.317296875,1.48780473 0.283078125,1.34107603 0.2488125,1.19444326 C0.882375,1.03941639 1.52503125,0.936049165 2.1706875,0.8844375 C2.18217188,1.03476367 2.19365625,1.18518577 2.20514063,1.33546398 Z" id="Shape"></path>
                </g>
                <path d="M14.0982187,6.44235937 C13.9440469,6.4149375 13.7894062,6.39060937 13.6344844,6.36928125 C13.3796719,6.33407812 13.189875,6.11775 13.2119531,5.87451562 L13.2119531,5.87451562 C13.2339844,5.63146875 13.4776406,5.45507812 13.755,5.49332812 C13.9213125,5.51620312 14.0873437,5.54235937 14.2529062,5.57179687 C14.5289531,5.62054687 14.7077344,5.86378125 14.653875,6.10171875 L14.653875,6.10171875 C14.6000625,6.34003125 14.3520469,6.48707812 14.0982187,6.44235937 Z" id="Shape" fill="#FFE15A" fill-rule="nonzero"></path>
                <path d="M16.5902344,7.17046875 C16.0024687,6.92704688 15.4000312,6.7321875 14.7890156,6.586125 C14.8233281,6.44282813 14.8575469,6.2994375 14.8918125,6.15614063 C15.525375,6.30754688 16.1499375,6.50953125 16.7594062,6.762 C16.7030625,6.89817188 16.646625,7.03434375 16.5902344,7.17046875 Z" id="Shape" fill="#FF4B55" fill-rule="nonzero"></path>
                <g id="Group" transform="translate(7.546875, 5.015625)" fill="#FFE15A" fill-rule="nonzero">
                    <path d="M8.88557813,0.879589799 C8.82309375,1.07077929 8.61248438,1.16174261 8.41345313,1.08987743 C8.21446875,1.0179602 8.0926875,0.807880729 8.14307813,0.612372038 C8.19346875,0.416863346 8.40675,0.313358745 8.61792188,0.389491089 C8.82909375,0.465519356 8.9480625,0.688504381 8.88557813,0.879589799 Z" id="Shape"></path>
                    <path d="M0.763171875,0.612455571 C0.813515625,0.808300113 0.69159375,1.01840872 0.492796875,1.0901455 C0.293859375,1.16172611 0.083203125,1.07072763 0.020671875,0.879776602 C-0.04190625,0.68851322 0.077203125,0.465546136 0.288375,0.389488487 C0.499359375,0.313587014 0.712921875,0.417027499 0.763171875,0.612455571 Z" id="Shape"></path>
                    <path d="M4.49688751,0.40585978 C4.49741018,0.613133027 4.33427826,0.781870033 4.13223627,0.788900741 C3.93025236,0.796329415 3.7580027,0.639000729 3.74737503,0.43252341 C3.73680542,0.225979764 3.8998212,0.0472936429 4.11179397,0.0394006777 C4.32382481,0.0318393496 4.49607446,0.198586532 4.49688751,0.40585978 Z" id="Shape"></path>
                    <path d="M5.30352244,0.432522575 C5.2927204,0.639329204 5.12052659,0.796258159 4.91865621,0.788895896 C4.71666967,0.78179894 4.55347756,0.613063833 4.55399899,0.405859245 C4.55475522,0.198853636 4.72706518,0.0316440433 4.93909878,0.0394042664 C5.15119044,0.0467665293 5.31397602,0.2258486 5.30352244,0.432522575 Z" id="Shape"></path>
                    <path d="M4.91617937,1.09163383 C4.91084757,1.29895326 4.74304918,1.46195609 4.54129889,1.46188975 C4.3395486,1.46175706 4.17187278,1.29895326 4.16641841,1.09163383 C4.16120918,0.884977826 4.328885,0.711360243 4.54129889,0.711889768 C4.75371277,0.711492928 4.92144988,0.884845142 4.91617937,1.09163383 Z" id="Shape"></path>
                </g>
            </g>
        </g>
    </g>
</svg>