<?xml version="1.0" encoding="UTF-8"?>
<svg width="24px" height="24px" viewBox="0 0 24 24" version="1.1" xmlns="http://www.w3.org/2000/svg" xmlns:xlink="http://www.w3.org/1999/xlink">
    <!-- Generator: Sketch 55.1 (78136) - https://sketchapp.com -->
    <title>Flags/costa_rica</title>
    <desc>Created with Sketch.</desc>
    <g id="Icons" stroke="none" stroke-width="1" fill="none" fill-rule="evenodd">
        <g id="Flags/costa_rica">
            <g id="costa_rica">
                <g id="Group-2" transform="translate(0.500000, 0.500000)" fill-rule="nonzero">
                    <circle id="Oval" fill="#EEEEEE" cx="11.4553463" cy="11.4552692" r="11.4552529"></circle>
                    <path d="M22.1946459,7.47277895 L0.716046726,7.47277895 C-0.238682242,10.0419429 -0.238682242,12.8685955 0.716046726,15.4377595 L22.1946459,15.4377595 C23.1497737,12.8686672 23.1497737,10.0418712 22.1946459,7.47277895 L22.1946459,7.47277895 Z" id="Path" fill="#D80027"></path>
                    <ellipse id="Oval" fill="#F5F5F5" cx="5.21210415" cy="11.5000163" rx="2.83097656" ry="3.02638672"></ellipse>
                    <polygon id="Rectangle-path" fill="#3CC8FF" points="3.74765102 10.3284538 6.67610806 10.3284538 6.67610806 11.7928171 3.74765102 11.7928171"></polygon>
                    <polygon id="Shape" fill="#FFE15A" points="4.13833657 11.1612155 4.17175845 11.4842936 4.30337954 11.1873601 4.2353229 11.5049128 4.45225063 11.2632331 4.28940884 11.5442194 4.57039516 11.3813776 4.32867056 11.5983054 4.64622329 11.5302487 4.34933462 11.6618249 4.67236782 11.6952468 4.34933462 11.7286686 4.64622329 11.8602897 4.32867056 11.7922331 4.57039516 12.0091608 4.28940884 11.846319 4.45225063 12.1273054 4.2353229 11.8855808 4.30337954 12.2031784 4.17175845 11.9062448 4.13833657 12.229278 4.1049147 11.9062448 3.97333852 12.2031784 4.04135024 11.8855808 3.82442251 12.1273054 3.98730923 11.846319 3.70627798 12.0091608 3.94800259 11.7922331 3.63044985 11.8602897 3.92733852 11.7286686 3.60430532 11.6952468 3.92733852 11.6618249 3.63044985 11.5302487 3.94800259 11.5983054 3.70627798 11.3813776 3.98730923 11.5442194 3.82442251 11.2632331 4.04135024 11.5049128 3.97333852 11.1873601 4.1049147 11.4842936"></polygon>
                    <polygon id="Shape" fill="#41479B" points="5.79793032 13.8429616 4.62645766 13.8429616 3.55260024 12.9643796 3.55260024 11.6952468 6.96940298 11.6952468 6.96940298 12.9643796"></polygon>
                    <path d="M6.38366665,11.3047858 L6.38353188,11.3047858 C6.38321743,11.2781022 6.36156509,11.2565397 6.33483657,11.2565397 C6.30810806,11.2565397 6.28645571,11.2781022 6.28614126,11.3047858 L6.28600649,11.3047858 C6.28600649,11.4742311 6.1878522,11.7085436 6.06741665,11.8763718 C5.89931899,11.6641159 5.83606899,11.417944 5.8122604,11.2629636 C5.80089516,11.1890222 5.72097915,11.1480085 5.65404556,11.1814753 C5.62183657,11.1976022 5.60013931,11.2290476 5.59456899,11.2646257 C5.51981899,11.743403 5.29413149,11.9468542 5.14800063,12.0304987 C4.92918618,11.8189616 4.85708657,11.476612 4.8333229,11.274239 C4.82406899,11.1955808 4.7398854,11.1503893 4.6690436,11.1858327 C4.64177602,11.199489 4.62151626,11.2241061 4.61199282,11.2530808 C4.30580532,12.1864675 3.45494009,12.281028 3.45494009,12.281028 L3.45494009,12.5739186 L6.87174282,12.5739186 L6.87174282,12.4763034 L6.87174282,12.3786882 L6.87174282,12.2810729 L6.87174282,12.1834577 L6.87174282,12.0858425 C6.48128188,11.9881374 6.38366665,11.3047858 6.38366665,11.3047858 Z" id="Shape" fill="#73AF00"></path>
                    <g id="Group" transform="translate(2.740503, 9.613298)" fill="#F0AA00">
                        <path d="M4.13128516,0.812861328 C3.7407793,0.617630859 3.7407793,0.422355469 3.7407793,0.422355469 C3.7407793,0.422355469 3.2526582,0.227125 2.86215234,0.227125 C2.86215234,0.227125 2.95976758,0.0318945312 2.76453711,0.0318945312 C2.56930664,0.0318945312 2.47164648,0.0318945312 2.47164648,0.0318945312 C2.47164648,0.0318945312 2.37403125,0.0318945312 2.17875586,0.0318945312 C1.98348047,0.0318945312 2.08114063,0.227125 2.08114063,0.227125 C1.69063477,0.227125 1.20251367,0.422355469 1.20251367,0.422355469 C1.20251367,0.422355469 1.20251367,0.617585937 0.812007813,0.812861328 C0.421501953,1.00813672 0.421501953,1.44742773 0.421501953,1.44742773 C0.421501953,1.52828711 0.487042969,1.59387305 0.567947266,1.59387305 C0.648851563,1.59387305 0.714392578,1.52833203 0.714392578,1.44742773 C0.714392578,1.43076172 0.711023438,1.41499414 0.705857422,1.40003516 L0.714392578,1.39859766 L1.69063477,0.715246094 L2.47160156,0.715246094 L3.25256836,0.715246094 L4.22881055,1.39859766 L4.2373457,1.40003516 C4.23222461,1.41499414 4.22881055,1.43076172 4.22881055,1.44742773 C4.22881055,1.52828711 4.29435156,1.59387305 4.37525586,1.59387305 C4.45616016,1.59387305 4.52170384,1.52833203 4.52170384,1.44742773 C4.52179102,1.44742773 4.52179102,1.0080918 4.13128516,0.812861328 Z" id="Shape"></path>
                        <path d="M4.42417578,1.98433398 C4.32656055,1.98433398 4.03366992,1.98433398 4.03366992,1.69144336 C4.03366992,1.39855273 4.42417578,1.39855273 4.42417578,1.39855273 L3.83843945,1.20332227 C3.64316406,1.88671875 4.03366992,1.88671875 4.03366992,2.7653457 C4.03366992,3.55242188 3.15504297,4.03443359 2.86219727,4.03443359 C2.56930664,4.03443359 2.47169141,4.22966406 2.47169141,4.22966406 C2.47169141,4.22966406 2.37407617,4.03443359 2.08118555,4.03443359 C1.78829492,4.03443359 0.909712891,3.55237695 0.909712891,2.7653457 C0.909712891,1.88671875 1.30021875,1.88671875 1.10494336,1.20336719 L0.519207031,1.39859766 C0.519207031,1.39859766 0.909712891,1.39859766 0.909712891,1.69148828 C0.909712891,1.98437891 0.616822266,1.98437891 0.519207031,1.98437891 C0.421591797,1.98437891 0.0310859375,1.98437891 0.0310859375,2.4725 C0.0310859375,2.96062109 0.519207031,3.54635742 1.20255859,3.93686328 C1.88591016,4.32736914 1.59306445,4.71783008 2.47164648,4.71783008 C3.35022852,4.71783008 3.05738281,4.32732422 3.74073438,3.93686328 C4.42408594,3.54635742 4.91220703,2.96062109 4.91220703,2.4725 C4.91220703,1.98437891 4.52179102,1.98433398 4.42417578,1.98433398 Z" id="Shape"></path>
                    </g>
                    <g id="Group" transform="translate(3.818628, 9.882829)" fill="#73AF00">
                        <path d="M1.19833594,0.221247845 L0.962181641,0.0891652854 C0.923009766,0.0672447251 0.879525391,0.0621001039 0.837658203,0.0741228601 C0.685417969,0.117908061 0.307804687,0.261901537 0.0268632812,0.66502735 L0.319753906,0.786541068 L1.19833594,0.221247845 Z" id="Shape"></path>
                        <path d="M1.58879688,0.221247845 L1.82495117,0.0891652854 C1.86412305,0.0672447251 1.90760742,0.0621001039 1.94947461,0.0741228601 C2.10171484,0.117908061 2.47932813,0.261901537 2.76026953,0.66502735 L2.46737891,0.786541068 L1.58879688,0.221247845 Z" id="Shape"></path>
                        <path d="M1.58977162,0.39229375 L1.88100577,0.101059602 C1.89658922,0.0854761493 1.89658922,0.0601897921 1.88100577,0.0446063395 C1.86542232,0.0290228868 1.84013596,0.0290228868 1.82455251,0.0446063395 L1.53331836,0.335840488 L1.24208421,0.0446063395 C1.22650076,0.0290228868 1.2012144,0.0290228868 1.18563095,0.0446063395 C1.1700475,0.0601897921 1.1700475,0.0854761493 1.18563095,0.101059602 L1.4768651,0.39229375 L1.18563095,0.683527898 C1.1700475,0.699111351 1.1700475,0.724397708 1.18563095,0.739981161 C1.19342268,0.747772887 1.20364013,0.75166875 1.21385758,0.75166875 C1.22407503,0.75166875 1.23429248,0.747772887 1.24208421,0.739981161 L1.53331836,0.448747012 L1.82455251,0.739981161 C1.83234423,0.747772887 1.84256169,0.75166875 1.85277914,0.75166875 C1.86299659,0.75166875 1.87321404,0.747772887 1.88100577,0.739981161 C1.89658922,0.724397708 1.89658922,0.699111351 1.88100577,0.683527898 L1.58977162,0.39229375 Z" id="Shape"></path>
                    </g>
                    <path d="M7.16467837,11.0118952 C7.16467837,10.8457741 7.00772134,10.773989 6.87178774,10.7428581 L6.87178774,10.6655476 C6.68801235,10.6483425 6.58545571,10.5792526 6.40725063,10.4578737 C6.33861001,10.4110651 6.2607604,10.3580573 6.16682876,10.3009616 C5.82358071,10.0924343 5.55970962,10.0623366 5.40742446,10.069614 L5.40742446,10.2308835 L5.0169186,10.2308835 L5.0169186,10.069614 C4.86463345,10.0623366 4.60076235,10.0924343 4.25751431,10.3009616 C4.16358266,10.3580573 4.08573306,10.4110651 4.01709243,10.4578737 C3.83888735,10.5792526 3.73637563,10.6483425 3.55255532,10.6655476 L3.55255532,10.7428581 C3.41662173,10.773989 3.2596647,10.8457741 3.2596647,11.0118952 L3.55255532,10.91428 L3.55255532,10.9587976 C3.82958852,10.938403 3.98802798,10.832028 4.18195571,10.6999577 C4.24767641,10.6551706 4.32215688,10.6044538 4.40957485,10.5513112 C4.63252212,10.4157819 4.80578579,10.3738698 4.91930337,10.363987 L4.91930337,10.5237741 L5.5050397,10.5237741 L5.5050397,10.363987 C5.61851235,10.3738698 5.79182095,10.4157819 6.01476821,10.5513112 C6.10218618,10.6044089 6.17666665,10.6551257 6.24238735,10.6999577 C6.43631509,10.832028 6.59475454,10.938403 6.87178774,10.9587976 L6.87178774,10.91428 L7.16467837,11.0118952 Z" id="Shape" fill="#F5F5F5"></path>
                    <path d="M6.38366665,9.47309638 L6.38366665,9.35230146 L6.11170962,9.35230146 C6.15923696,9.31151239 6.18839126,9.26344599 6.18839126,9.20585614 C6.18839126,8.93614521 5.57475845,8.86418036 5.21214907,8.86418036 C4.8495397,8.86418036 4.23590688,8.93614521 4.23590688,9.20585614 C4.23590688,9.26344599 4.2651061,9.31151239 4.31258852,9.35230146 L4.04063149,9.35230146 L4.04063149,9.47309638 C3.80164712,9.52641864 3.60623696,9.65471552 3.59599477,9.66154364 L3.70430141,9.82398114 C3.70695181,9.82218427 3.97558462,9.64514716 4.23590688,9.64514716 L4.23590688,9.54753193 L6.18834634,9.54753193 L6.18834634,9.64514716 C6.4486686,9.64514716 6.71725649,9.82218427 6.71995181,9.82398114 L6.82825845,9.66154364 C6.81806118,9.65471552 6.62269595,9.52641864 6.38366665,9.47309638 Z M5.60269985,9.32530341 L5.60269985,9.25113739 C5.60269985,9.20334052 5.55777798,9.16830146 5.5114186,9.1798913 L5.21219399,9.25468622 L4.91296938,9.1798913 C4.86661001,9.16830146 4.82168813,9.20338544 4.82168813,9.25113739 L4.82168813,9.32530341 C4.60237954,9.29309443 4.47269009,9.23945771 4.43733657,9.20590107 C4.4901647,9.15576825 4.74882485,9.05945575 5.21219399,9.05945575 C5.67556313,9.05945575 5.93422329,9.15572333 5.98705141,9.20590107 C5.9516979,9.23941279 5.82200845,9.29309443 5.60269985,9.32530341 Z" id="Shape" fill="#3CC8FF"></path>
                    <g id="Group" transform="translate(3.953393, 10.511735)" fill="#F5F5F5">
                        <path d="M1.5260971,0.0696534943 L1.59818641,0.295804158 L1.82583685,0.297584871 C1.85527441,0.297858827 1.86757277,0.337171511 1.84376105,0.355526562 L1.66059403,0.497161804 L1.72928166,0.724408291 C1.73817835,0.753858559 1.70612412,0.778240642 1.68218157,0.760296525 L1.49692121,0.621674798 L1.31166085,0.760296525 C1.2877183,0.778240642 1.25566407,0.753858559 1.26456076,0.724408291 L1.33324839,0.497161804 L1.15008137,0.355526562 C1.12640049,0.337171511 1.13856801,0.297858827 1.16800557,0.297584871 L1.39565601,0.295804158 L1.46774532,0.0696534943 C1.47729617,0.0403402043 1.51680792,0.0403402043 1.5260971,0.0696534943 Z" id="Shape"></path>
                        <path d="M1.12681047,0.0957312593 L1.2216227,0.307216473 L1.44938244,0.28465271 C1.47883866,0.281715415 1.49501329,0.318565111 1.47318412,0.338859147 L1.30433683,0.495737383 L1.39586153,0.708691244 C1.40769662,0.736328516 1.37824039,0.763298222 1.3523347,0.748478235 L1.15324217,0.633923744 L0.982027865,0.788131713 C0.959804195,0.808158722 0.925482433,0.787864686 0.931399978,0.75849174 L0.977162328,0.530851405 L0.779779319,0.413226107 C0.754268124,0.39800558 0.762421186,0.358485616 0.791877411,0.355147781 L1.01924265,0.328979156 L1.06842403,0.102006389 C1.07499908,0.0726334424 1.11458088,0.0683610138 1.12681047,0.0957312593 Z" id="Shape"></path>
                        <path d="M0.699057517,0.211587696 L0.84209076,0.393415801 L1.06818438,0.322777545 C1.09741944,0.313620734 1.12200969,0.345407949 1.10438668,0.369608092 L0.967910834,0.556014603 L1.1079386,0.740066504 C1.12610806,0.763874213 1.10206427,0.796053863 1.07269259,0.787420299 L0.845369459,0.720837201 L0.70588814,0.905281538 C0.687855295,0.929220058 0.648374295,0.917316204 0.647964458,0.887752785 L0.643866084,0.660140625 L0.417635853,0.590156427 C0.388400787,0.581130427 0.38799095,0.541494517 0.417089404,0.531945271 L0.641953509,0.457905913 L0.641543672,0.230162942 C0.64140706,0.200599523 0.680478223,0.188041611 0.699057517,0.211587696 Z" id="Shape"></path>
                        <path d="M0.263883698,0.399597222 L0.425969052,0.563390933 L0.633947641,0.463661698 C0.660873441,0.450716711 0.688860356,0.47938061 0.675065857,0.505798951 L0.568821693,0.70988063 L0.728254259,0.876051991 C0.748946007,0.897582939 0.730111211,0.932851423 0.700665263,0.92796403 L0.472923402,0.890317895 L0.363495892,1.09268238 C0.349303476,1.11883654 0.309776933,1.11209986 0.305399832,1.08264341 L0.270913586,0.855313594 L0.0438349229,0.814233075 C0.0143889747,0.808949407 0.00868548023,0.769321896 0.0354786403,0.756112726 L0.241998196,0.65321329 L0.211093214,0.425355104 C0.206981393,0.396030746 0.242926672,0.378330458 0.263883698,0.399597222 Z" id="Shape"></path>
                        <path d="M1.86841225,0.0957312593 L1.77360002,0.307216473 L1.54584028,0.28465271 C1.51638406,0.281715415 1.50020943,0.318565111 1.5220386,0.338859147 L1.69088589,0.495737383 L1.59936119,0.708691244 C1.5875261,0.736328516 1.61698233,0.763298222 1.64288803,0.748478235 L1.84198055,0.633923744 L2.01319486,0.788131713 C2.03541853,0.808158722 2.06974029,0.787864686 2.06382274,0.75849174 L2.01806039,0.530851405 L2.2154434,0.413226107 C2.2409546,0.39800558 2.23280154,0.358485616 2.20334531,0.355147781 L1.97598007,0.328979156 L1.9267987,0.102006389 C1.92022365,0.0726334424 1.88064184,0.0683610138 1.86841225,0.0957312593 Z" id="Shape"></path>
                        <path d="M2.30535193,0.211587696 L2.16231869,0.393415801 L1.93622507,0.322777545 C1.90699,0.313620734 1.88239976,0.345407949 1.90002277,0.369608092 L2.03649861,0.556014603 L1.89647084,0.740066504 C1.87830139,0.763874213 1.90234518,0.796053863 1.93171686,0.787420299 L2.15903999,0.720837201 L2.29852131,0.905281538 C2.31655415,0.929220058 2.35603515,0.917316204 2.35644499,0.887752785 L2.36054336,0.660140625 L2.58677359,0.590156427 C2.61600866,0.581130427 2.6164185,0.541494517 2.58732004,0.531945271 L2.36245594,0.457905913 L2.36286577,0.230162942 C2.36300239,0.200599523 2.32379461,0.188041611 2.30535193,0.211587696 Z" id="Shape"></path>
                        <path d="M2.73344634,0.399597222 L2.57136098,0.563390933 L2.36338239,0.463661698 C2.33645659,0.450716711 2.30846968,0.47938061 2.32226418,0.505798951 L2.42850834,0.70988063 L2.26907578,0.876051991 C2.24838403,0.897582939 2.26721882,0.932851423 2.29666477,0.92796403 L2.52440663,0.890317895 L2.63383414,1.09268238 C2.64802656,1.11883654 2.6875531,1.11209986 2.6919302,1.08264341 L2.72641645,0.855313594 L2.95349511,0.814233075 C2.98294106,0.808949407 2.98864456,0.769321896 2.9618514,0.756112726 L2.75533184,0.65321329 L2.78623682,0.425355104 C2.79034864,0.396030746 2.75440336,0.378330458 2.73344634,0.399597222 Z" id="Shape"></path>
                    </g>
                    <polygon id="Shape" fill="#8C5A28" points="4.53800649 12.9033308 5.03524673 13.6220808 5.63625649 13.6220808 5.91387368 13.1078002 5.70031509 13.2923664 4.99252602 13.2923664"></polygon>
                    <path d="M5.32894595,12.4741921 L5.19952005,13.1929421 L4.61019595,13.069137 C4.61019595,13.0692037 4.88128746,12.7228029 5.32894595,12.4741921 Z" id="Shape" fill="#F5F5F5"></path>
                    <g id="Group" transform="translate(4.986596, 12.263688)" fill="#8C5A28">
                        <polygon id="Rectangle-path" points="0.342604167 0.0188671875 0.859385417 0.0188671875 0.859385417 0.843138672 0.342604167 0.843138672"></polygon>
                        <polygon id="Rectangle-path" points="0.66125 0.0884960938 1.17803125 0.0884960938 1.17803125 0.843003906 0.66125 0.843003906"></polygon>
                        <polygon id="Rectangle-path" points="0.0249166667 0.0884960938 0.541697917 0.0884960938 0.541697917 0.843003906 0.0249166667 0.843003906"></polygon>
                    </g>
                    <g id="Group" transform="translate(4.896753, 12.263688)" fill="#F5F5F5">
                        <path d="M0.951813606,1.30960742 L0.349842644,1.30960742 C0.317615435,1.30960742 0.291453125,1.2687588 0.291453125,1.21844073 L0.291453125,0.68202411 C0.291453125,0.63170604 0.317615435,0.590857422 0.349842644,0.590857422 L0.951813606,0.590857422 C0.984040815,0.590857422 1.01020312,0.63170604 1.01020312,0.68202411 L1.01020312,1.21844073 C1.01008421,1.2687588 0.984040815,1.30960742 0.951813606,1.30960742 Z" id="Shape"></path>
                        <path d="M0.951813606,1.0777207 L0.349842644,1.0777207 C0.317615435,1.0777207 0.291453125,1.03687209 0.291453125,0.986554015 L0.291453125,0.450137391 C0.291453125,0.399819321 0.317615435,0.358970703 0.349842644,0.358970703 L0.951813606,0.358970703 C0.984040815,0.358970703 1.01020312,0.399819321 1.01020312,0.450137391 L1.01020312,0.986554015 C1.01008421,1.03705776 0.984040815,1.0777207 0.951813606,1.0777207 Z" id="Shape"></path>
                        <path d="M0.951813606,0.864207031 L0.349842644,0.864207031 C0.317615435,0.864207031 0.291453125,0.823358413 0.291453125,0.773040343 L0.291453125,0.236623719 C0.291453125,0.186305649 0.317615435,0.145457031 0.349842644,0.145457031 L0.951813606,0.145457031 C0.984040815,0.145457031 1.01020312,0.186305649 1.01020312,0.236623719 L1.01020312,0.773040343 C1.01008421,0.823358413 0.984040815,0.864207031 0.951813606,0.864207031 Z" id="Shape"></path>
                        <path d="M1.25968168,1.30960742 L0.675912074,1.30960742 C0.638661883,1.30960742 0.608421875,1.2687588 0.608421875,1.21844073 L0.608421875,0.68202411 C0.608421875,0.63170604 0.638661883,0.590857422 0.675912074,0.590857422 L1.25968168,0.590857422 C1.29693187,0.590857422 1.32717188,0.63170604 1.32717188,0.68202411 L1.32717188,1.21844073 C1.32717187,1.2687588 1.29693187,1.30960742 1.25968168,1.30960742 Z" id="Shape"></path>
                        <path d="M1.25968168,1.12336133 L0.675912074,1.12336133 C0.638661883,1.12336133 0.608421875,1.07493101 0.608421875,1.01527366 L0.608421875,0.512699 C0.608421875,0.45304165 0.638661883,0.404611328 0.675912074,0.404611328 L1.25968168,0.404611328 C1.29693187,0.404611328 1.32717188,0.45304165 1.32717188,0.512699 L1.32717188,1.01527366 C1.32717187,1.07493101 1.29693187,1.12336133 1.25968168,1.12336133 Z" id="Shape"></path>
                        <path d="M1.25968168,0.935318359 L0.675912074,0.935318359 C0.638661883,0.935318359 0.608421875,0.877608505 0.608421875,0.806520458 L0.608421875,0.345366261 C0.608421875,0.274278213 0.638661883,0.216568359 0.675912074,0.216568359 L1.25968168,0.216568359 C1.29693187,0.216568359 1.32717188,0.274278213 1.32717188,0.345366261 L1.32717188,0.806520458 C1.32717187,0.877870823 1.29693187,0.935318359 1.25968168,0.935318359 Z" id="Shape"></path>
                        <path d="M0.66320902,1.30960742 L0.0794394176,1.30960742 C0.0421892264,1.30960742 0.0119492188,1.2687588 0.0119492188,1.21844073 L0.0119492188,0.68202411 C0.0119492188,0.63170604 0.0421892264,0.590857422 0.0794394176,0.590857422 L0.66320902,0.590857422 C0.700459211,0.590857422 0.730699219,0.63170604 0.730699219,0.68202411 L0.730699219,1.21844073 C0.730699219,1.2687588 0.700459211,1.30960742 0.66320902,1.30960742 Z" id="Shape"></path>
                        <path d="M0.66320902,1.12336133 L0.0794394176,1.12336133 C0.0421892264,1.12336133 0.0119492188,1.07493101 0.0119492188,1.01527366 L0.0119492188,0.512699 C0.0119492188,0.45304165 0.0421892264,0.404611328 0.0794394176,0.404611328 L0.66320902,0.404611328 C0.700459211,0.404611328 0.730699219,0.45304165 0.730699219,0.512699 L0.730699219,1.01527366 C0.730699219,1.07493101 0.700459211,1.12336133 0.66320902,1.12336133 Z" id="Shape"></path>
                        <path d="M0.66320902,0.935318359 L0.0794394176,0.935318359 C0.0421892264,0.935318359 0.0119492188,0.877608505 0.0119492188,0.806520458 L0.0119492188,0.345366261 C0.0119492188,0.274278213 0.0421892264,0.216568359 0.0794394176,0.216568359 L0.66320902,0.216568359 C0.700459211,0.216568359 0.730699219,0.274278213 0.730699219,0.345366261 L0.730699219,0.806520458 C0.730699219,0.877870823 0.700459211,0.935318359 0.66320902,0.935318359 Z" id="Shape"></path>
                        <polygon id="Shape" points="0.145501953 0.0885859375 0.145501953 0.807335937 0.864251953 0.441336514"></polygon>
                        <polygon id="Shape" points="0.741570313 0.0885859375 0.741570313 0.807335937 1.46032031 0.441336514"></polygon>
                        <polygon id="Shape" points="0.442974609 0.0185078125 0.442974609 0.737257812 1.16172461 0.371426974"></polygon>
                    </g>
                    <polygon id="Shape" fill="#8C5A28" points="4.95843032 11.6234616 5.21820971 12.3422116 5.53216047 12.3422116 5.67718032 11.8277409 5.56566296 12.0124585 5.19591975 12.0124585"></polygon>
                    <path d="M5.70229165,11.4743659 L5.57284687,12.1931159 L4.98354165,12.0692928 C4.98354165,12.0692928 5.25464298,11.722972 5.70229165,11.4743659 Z" id="Shape" fill="#F5F5F5"></path>
                    <g id="Group" transform="translate(5.121362, 11.365251)" fill="#8C5A28">
                        <polygon id="Rectangle-path" points="0.279114583 0.0853515625 0.458802083 0.0853515625 0.458802083 0.804101562 0.279114583 0.804101562"></polygon>
                        <polygon id="Rectangle-path" points="0.555833333 0.133867188 0.735520833 0.133867188 0.735520833 0.852617188 0.555833333 0.852617188"></polygon>
                        <polygon id="Rectangle-path" points="0.00239583333 0.133867188 0.182083333 0.133867188 0.182083333 0.852617188 0.00239583333 0.852617188"></polygon>
                    </g>
                    <g id="Group" transform="translate(4.582299, 10.916032)" fill="#F5F5F5">
                        <path d="M1.26224912,1.4091543 L0.660496976,1.4091543 C0.62833967,1.4091543 0.601998047,1.36857109 0.601998047,1.31784208 L0.601998047,0.781716518 C0.601998047,0.731521496 0.627997571,0.690404297 0.660496976,0.690404297 L1.26224912,0.690404297 C1.29440642,0.690404297 1.32074805,0.730987506 1.32074805,0.781716518 L1.32074805,1.31784208 C1.32074805,1.36857109 1.29440642,1.4091543 1.26224912,1.4091543 Z" id="Shape"></path>
                        <path d="M1.26224912,1.32860938 L0.660496976,1.32860938 C0.62833967,1.32860938 0.601998047,1.28802617 0.601998047,1.23729715 L0.601998047,0.701171596 C0.601998047,0.650976574 0.627997571,0.609859375 0.660496976,0.609859375 L1.26224912,0.609859375 C1.29440642,0.609859375 1.32074805,0.650442585 1.32074805,0.701171596 L1.32074805,1.23729715 C1.32074805,1.28802617 1.29440642,1.32860938 1.26224912,1.32860938 Z" id="Shape"></path>
                        <path d="M1.26224912,1.25444336 L0.660496976,1.25444336 C0.62833967,1.25444336 0.601998047,1.21386015 0.601998047,1.16313114 L0.601998047,0.627005581 C0.601998047,0.576810558 0.627997571,0.535693359 0.660496976,0.535693359 L1.26224912,0.535693359 C1.29440642,0.535693359 1.32074805,0.576276569 1.32074805,0.627005581 L1.32074805,1.16313114 C1.32074805,1.21332616 1.29440642,1.25444336 1.26224912,1.25444336 Z" id="Shape"></path>
                        <path d="M1.36329129,1.4091543 L0.779751682,1.4091543 C0.742588591,1.4091543 0.712146484,1.36857109 0.712146484,1.31784208 L0.712146484,0.781716518 C0.712146484,0.731521496 0.742193239,0.690404297 0.779751682,0.690404297 L1.36329129,0.690404297 C1.40045438,0.690404297 1.43089648,0.730987506 1.43089648,0.781716518 L1.43089648,1.31784208 C1.43050113,1.36857109 1.40045438,1.4091543 1.36329129,1.4091543 Z" id="Shape"></path>
                        <path d="M1.36329129,1.34451172 L0.779751682,1.34451172 C0.742588591,1.34451172 0.712146484,1.29638397 0.712146484,1.23622427 L0.712146484,0.734049164 C0.712146484,0.674522732 0.742193239,0.625761719 0.779751682,0.625761719 L1.36329129,0.625761719 C1.40045438,0.625761719 1.43089648,0.673889472 1.43089648,0.734049164 L1.43089648,1.23622427 C1.43050113,1.29575071 1.40045438,1.34451172 1.36329129,1.34451172 Z" id="Shape"></path>
                        <path d="M1.36329129,1.24536914 L0.779751682,1.24536914 C0.742588591,1.24536914 0.712146484,1.19074414 0.712146484,1.12246289 L0.712146484,0.683306641 C0.712146484,0.615744141 0.742193239,0.560400391 0.779751682,0.560400391 L1.36329129,0.560400391 C1.40045438,0.560400391 1.43089648,0.615025391 1.43089648,0.683306641 L1.43089648,1.12246289 C1.43050113,1.19074414 1.40045438,1.24536914 1.36329129,1.24536914 Z" id="Shape"></path>
                        <path d="M1.15602176,1.4091543 L0.572482151,1.4091543 C0.53531906,1.4091543 0.504876953,1.36857109 0.504876953,1.31784208 L0.504876953,0.781716518 C0.504876953,0.731521496 0.534923708,0.690404297 0.572482151,0.690404297 L1.15602176,0.690404297 C1.19318485,0.690404297 1.22362695,0.730987506 1.22362695,0.781716518 L1.22362695,1.31784208 C1.22362695,1.36857109 1.1935802,1.4091543 1.15602176,1.4091543 Z" id="Shape"></path>
                        <path d="M1.15602176,1.34451172 L0.572482151,1.34451172 C0.53531906,1.34451172 0.504876953,1.29638397 0.504876953,1.23622427 L0.504876953,0.734049164 C0.504876953,0.674522732 0.534923708,0.625761719 0.572482151,0.625761719 L1.15602176,0.625761719 C1.19318485,0.625761719 1.22362695,0.673889472 1.22362695,0.734049164 L1.22362695,1.23622427 C1.22362695,1.29575071 1.1935802,1.34451172 1.15602176,1.34451172 Z" id="Shape"></path>
                        <path d="M1.15602176,1.24536914 L0.572482151,1.24536914 C0.53531906,1.24536914 0.504876953,1.19074414 0.504876953,1.12246289 L0.504876953,0.683306641 C0.504876953,0.615744141 0.534923708,0.560400391 0.572482151,0.560400391 L1.15602176,0.560400391 C1.19318485,0.560400391 1.22362695,0.615025391 1.22362695,0.683306641 L1.22362695,1.12246289 C1.22362695,1.19074414 1.1935802,1.24536914 1.15602176,1.24536914 Z" id="Shape"></path>
                        <polygon id="Shape" points="0.551326172 0.515972656 0.551326172 1.05791016 1.27007617 0.781910156"></polygon>
                        <polygon id="Shape" points="0.758416016 0.515972656 0.758416016 1.05791016 1.47716602 0.781910156"></polygon>
                        <polygon id="Shape" points="0.654691406 0.491625 0.654691406 1.0335625 1.37344141 0.7575625"></polygon>
                        <path d="M0.641848469,0.7460625 L0.16521777,0.7460625 C0.0986239828,0.7460625 0.0441582031,0.650073719 0.0441582031,0.532710918 L0.0441582031,0.240664082 C0.0441582031,0.123301281 0.0986239828,0.0273125 0.16521777,0.0273125 L0.641848469,0.0273125 C0.708442257,0.0273125 0.762908036,0.123301281 0.762908036,0.240664082 L0.762908036,0.532710918 C0.763018291,0.650073719 0.708442257,0.7460625 0.641848469,0.7460625 Z" id="Shape"></path>
                        <path d="M1.62768661,0.7460625 L1.19286807,0.7460625 C1.1145154,0.7460625 1.05090234,0.650462338 1.05090234,0.532710918 L1.05090234,0.240664082 C1.05090234,0.122912662 1.1145154,0.0273125 1.19286807,0.0273125 L1.62768661,0.0273125 C1.70603928,0.0273125 1.76965234,0.122912662 1.76965234,0.240664082 L1.76965234,0.532710918 C1.76965234,0.650656647 1.70603928,0.7460625 1.62768661,0.7460625 Z" id="Shape"></path>
                        <path d="M2.28848541,0.934464844 L1.81027631,0.934464844 C1.74382114,0.934464844 1.69000586,0.846268883 1.69000586,0.737357857 L1.69000586,0.412821831 C1.69000586,0.303910804 1.74382114,0.215714844 1.81027631,0.215714844 L2.28848541,0.215714844 C2.35494058,0.215714844 2.40875586,0.303910804 2.40875586,0.412821831 L2.40875586,0.737357857 C2.40875586,0.845955018 2.35494058,0.934464844 2.28848541,0.934464844 Z" id="Shape"></path>
                    </g>
                    <path d="M11.4553463,4.08562073e-14 C8.11911903,-0.00320970451 4.94805416,1.45155717 2.77441248,3.98250657 L20.1362802,3.98250657 C17.9641219,1.44958888 14.792098,-0.00561796491 11.4553463,4.08562073e-14 L11.4553463,4.08562073e-14 Z M20.1362802,18.9280319 L2.77441248,18.9280319 C4.87305062,21.3667478 7.9829728,22.9105221 11.4553463,22.9105221 C14.9277199,22.9105221 18.0376421,21.3667478 20.1362802,18.9280319 Z" id="Shape" fill="#0052B4"></path>
                </g>
                <g transform="translate(2.000000, 8.000000)" id="Group">
                    <g transform="translate(0.000000, 0.812500)"></g>
                </g>
                <circle id="Oval" stroke="#FFFFFF" cx="12" cy="12" r="11.5"></circle>
            </g>
        </g>
    </g>
</svg>