<?xml version="1.0" encoding="UTF-8"?>
<svg width="24px" height="24px" viewBox="0 0 24 24" version="1.1" xmlns="http://www.w3.org/2000/svg" xmlns:xlink="http://www.w3.org/1999/xlink">
    <!-- Generator: Sketch 55.1 (78136) - https://sketchapp.com -->
    <title>Flags/argentina</title>
    <desc>Created with Sketch.</desc>
    <g id="Icons" stroke="none" stroke-width="1" fill="none" fill-rule="evenodd">
        <g id="Flags/argentina" fill-rule="nonzero">
            <g id="argentina">
                <circle id="Oval" fill="#EEEEEE" cx="12" cy="12" r="12"></circle>
                <path d="M16,11.8000779 L13.1196452,11.8000779 C13.1733233,11.7592398 13.2158136,11.7191515 13.2543621,11.6813128 C13.3246768,11.6125571 13.3805576,11.5578756 13.5289548,11.4969069 C13.6781636,11.4343807 13.756304,11.4336309 13.8551388,11.4320735 C13.9742624,11.431266 14.1090372,11.4289587 14.3293722,11.338342 C14.5493015,11.2469177 14.6453539,11.1531862 14.7301606,11.0703563 C14.8004753,11.0016006 14.8563562,10.9469191 15.0051591,10.8852005 C15.1532085,10.8234819 15.2309431,10.8226744 15.3293722,10.8219245 C15.4481479,10.8203671 15.5828648,10.8188098 15.8031998,10.7273855 L15.6492957,10.3586312 C15.5012463,10.4203498 15.4235117,10.4211574 15.3250826,10.4219072 C15.2063648,10.4234646 15.0715901,10.425022 14.8516608,10.5156387 C14.6317315,10.607063 14.5356791,10.7007946 14.4508724,10.7836244 C14.3805576,10.8523801 14.3246768,10.9070616 14.1762796,10.9680303 C14.0270709,11.0305565 13.9489305,11.0313063 13.8500956,11.0328637 C13.7309721,11.0336712 13.5961973,11.0359785 13.3759202,11.1274028 C13.155991,11.2180195 13.0599386,11.3125586 12.9751319,11.3953884 C12.9059185,11.4627021 12.8487044,11.5166914 12.7062779,11.5768526 L14.9699728,9.31333727 L14.6871486,9.03052764 L12.6494696,11.0679914 C12.6584546,11.0013699 12.6608892,10.9420739 12.6614109,10.888373 C12.6625703,10.7891618 12.6633818,10.7118116 12.7250594,10.562591 C12.786795,10.4133704 12.8414585,10.3578814 12.9102081,10.2875683 C12.9937975,10.2024313 13.0879369,10.1055273 13.1793519,9.88524377 C13.2703611,9.66490259 13.2719263,9.53056369 13.2730856,9.41179864 C13.274245,9.31333727 13.2750565,9.23523728 13.3363863,9.08676655 C13.3981218,8.9383535 13.4523796,8.88286444 13.5211292,8.81255137 C13.6043128,8.72741431 13.6984523,8.63131787 13.7894615,8.41178422 L13.4199177,8.25864133 C13.3581821,8.40705438 13.3039244,8.46254344 13.2351748,8.5328565 C13.1519912,8.61799357 13.0578517,8.71409001 12.9668425,8.93362366 C12.8758333,9.15396484 12.8742682,9.28830375 12.8731088,9.4070688 C12.8719495,9.50553016 12.8711379,9.58363015 12.8098081,9.73210088 C12.7480726,9.88132147 12.6934091,9.93681053 12.6246594,10.0071236 C12.5410701,10.0922607 12.4469306,10.1891646 12.3555156,10.4094481 C12.2645064,10.6297893 12.2629413,10.7649358 12.2613762,10.8837008 C12.2606226,10.980028 12.2578981,11.0578972 12.2000464,11.200946 L12.2000464,8 L11.8000696,8 L11.8000696,10.8803553 C11.7593183,10.8269428 11.7193206,10.784605 11.6816996,10.7461318 C11.6125442,10.6758187 11.5582865,10.6195798 11.4965509,10.4711091 C11.4348154,10.3218885 11.433656,10.2437885 11.4324967,10.1445196 C11.4313373,10.0257545 11.4297722,9.8906081 11.3383572,9.67026692 C11.247348,9.45073327 11.1532085,9.35463683 11.0700249,9.26949976 C11.0012753,9.1991867 10.9469596,9.14369764 10.885282,8.99528458 C10.8239522,8.84687153 10.8231987,8.76871386 10.8219813,8.6702525 C10.820822,8.55148745 10.8192569,8.41714854 10.7282476,8.19761489 L10.3587038,8.35075778 C10.4200336,8.49917084 10.4207872,8.57652097 10.4220045,8.67498234 C10.4231639,8.79374739 10.424729,8.92808629 10.5157382,9.14842747 C10.6067474,9.36796112 10.7008869,9.46405757 10.7840705,9.54919463 C10.8528201,9.61950769 10.9071358,9.67499676 10.9688134,9.82340981 C11.030549,9.97263039 11.0317083,10.0507304 11.0328677,10.1499993 C11.034027,10.2687643 11.0355921,10.4039108 11.1270071,10.624252 C11.2180163,10.8445931 11.3121558,10.9406896 11.3953394,11.0258266 C11.4631036,11.0947554 11.5167237,11.1522633 11.5769521,11.294216 L9.31296736,9.03046996 L9.03014318,9.31327959 L11.2905918,11.5735071 C11.166599,11.5171529 11.1067764,11.4654707 11.0417947,11.4023678 C10.9562344,11.3187881 10.8597762,11.2242491 10.6386876,11.1328248 C10.4183526,11.042208 10.2836357,11.0398431 10.1644542,11.0382857 C10.0652136,11.0374782 9.98713118,11.0359208 9.83670512,10.9734523 C9.68633702,10.9117337 9.63005043,10.8570522 9.55857631,10.787489 C9.47301606,10.7046592 9.37615211,10.6101201 9.1546577,10.517946 C8.93356907,10.4265217 8.7983885,10.4249643 8.6788592,10.4234069 C8.57927077,10.4218495 8.5007246,10.4202922 8.3503565,10.357766 L8.19720596,10.7280776 C8.41829459,10.8195019 8.55347516,10.8210593 8.67300446,10.8226167 C8.77259289,10.8241741 8.85113906,10.8257315 9.00150716,10.8882576 C9.15228103,10.9499762 9.20850965,11.0046577 9.28004174,11.0742209 C9.36560199,11.1578006 9.46246594,11.2515898 9.68355458,11.3429564 C9.90464321,11.4351306 10.0398238,11.436688 10.1589473,11.4382453 C10.2581879,11.4398027 10.3362704,11.4406103 10.4858849,11.5030787 C10.6354994,11.5647973 10.6913222,11.6194789 10.7620428,11.6882345 C10.7983305,11.7238814 10.8389079,11.761547 10.8881224,11.7999625 L8,11.7999625 L8,12.1999798 L11.1948293,12.1999798 C11.0686337,12.248028 10.9896238,12.2540269 10.8991942,12.2554689 C10.7800707,12.2562764 10.6452959,12.2585836 10.4246131,12.3492004 C10.2039302,12.4406247 10.1070663,12.5351637 10.021506,12.6179359 C9.95043766,12.6874414 9.89455684,12.7421806 9.74494232,12.8038992 C9.59457423,12.8664254 9.51602806,12.8679828 9.41643963,12.8695401 C9.29691032,12.8710975 9.16172975,12.8726549 8.94064112,12.9640792 C8.71914672,13.0562533 8.62228277,13.1500425 8.53672251,13.2336222 C8.46524839,13.3031277 8.4089618,13.357867 8.2585937,13.4195856 L8.41174425,13.7898972 C8.63283288,13.697723 8.72969683,13.6039338 8.81525709,13.5203542 C8.8867312,13.4508486 8.94295983,13.3961094 9.09379166,13.3343908 C9.24415976,13.2718647 9.32270593,13.2703073 9.42229436,13.2687499 C9.54182366,13.2671925 9.67700423,13.2656351 9.89844067,13.173461 C10.1187757,13.0820367 10.2152339,12.9883052 10.3007942,12.9047255 C10.3715147,12.8359698 10.4277433,12.7812883 10.5777636,12.7195697 C10.7269723,12.6570436 10.8055185,12.6562937 10.9042954,12.6547363 C10.9549012,12.6543902 11.0118834,12.6511024 11.073561,12.6435462 L9.03008521,14.6867781 L9.3129094,14.9695877 L11.5722567,12.7105138 C11.5166657,12.8338933 11.4652484,12.8935354 11.4019477,12.9585995 C11.3187641,13.0437366 11.2246247,13.1406405 11.1332097,13.360924 C11.0417947,13.5812652 11.0398238,13.7171615 11.0386644,13.8359266 C11.0370993,13.9351378 11.0363457,14.0132955 10.9742044,14.1632659 C10.912121,14.3140439 10.8569938,14.3702828 10.7878964,14.4414034 C10.704307,14.5265404 10.6101675,14.6241943 10.5183468,14.845343 C10.426526,15.0664917 10.4249609,15.2015805 10.4234537,15.321153 C10.4218886,15.4203643 10.4207292,15.4992718 10.3585879,15.6492999 L10.7281317,15.8024428 C10.8199525,15.5813518 10.8215176,15.4462053 10.8230248,15.3266327 C10.8245899,15.2274215 10.8257492,15.148514 10.8878906,14.9984859 C10.9499739,14.8477079 11.0051012,14.791469 11.0741986,14.7203484 C11.157788,14.6352113 11.2519274,14.5375575 11.3437482,14.3164088 C11.4351632,14.0960676 11.4371341,13.9601713 11.4382934,13.8414063 C11.4398586,13.742195 11.4406121,13.6640374 11.5027535,13.5140669 C11.564489,13.3640388 11.6191525,13.3086074 11.6883079,13.2374868 C11.7238421,13.2010902 11.761579,13.1604251 11.8000116,13.1111079 L11.8000116,16 L12.1999884,16 L12.1999884,12.8053989 C12.2476378,12.9314318 12.2536665,13.0101663 12.2550577,13.1008984 C12.256217,13.2196634 12.2581879,13.3548099 12.3496029,13.5751511 C12.4406121,13.7962421 12.5351574,13.8931461 12.618341,13.9782831 C12.6874964,14.0494037 12.7421599,14.1056426 12.8043012,14.2556131 C12.8663846,14.4056412 12.8676019,14.4845487 12.869167,14.5837599 C12.8707321,14.7032748 12.8722973,14.8384213 12.9640601,15.05957 C13.0558808,15.280661 13.1499623,15.3783149 13.2336096,15.4635096 C13.3027651,15.5346302 13.3578343,15.5908691 13.4199177,15.7416471 L13.7894615,15.5885042 C13.6976407,15.3674132 13.6035012,15.2697593 13.5199119,15.1845646 C13.4507565,15.113444 13.3956872,15.0572051 13.3336038,14.9064271 C13.2715205,14.756399 13.2703032,14.6774915 13.268738,14.5782802 C13.2671729,14.4587653 13.2656078,14.3235612 13.173845,14.1024702 C13.08243,13.8813792 12.9882905,13.7844752 12.905107,13.6993381 C12.8359515,13.6282175 12.781288,13.5719786 12.7191467,13.4220082 C12.6570634,13.2727876 12.6562518,13.1946876 12.6546867,13.0954187 C12.6542229,13.0448902 12.6508608,12.9877861 12.6432671,12.9260675 L14.6870906,14.9696454 L14.9699148,14.6868358 L12.9325836,12.6497181 C12.9987247,12.6585433 13.0579677,12.6611389 13.1114138,12.6618311 C13.2102487,12.6626386 13.2879833,12.6633885 13.437192,12.7251071 C13.5864008,12.7876332 13.6422816,12.8415072 13.7129442,12.9110704 C13.7980987,12.9939002 13.8945568,13.0884393 14.1148919,13.1798059 C14.3348212,13.2704227 14.469596,13.27198 14.5883137,13.2727876 C14.6867428,13.274345 14.7644774,13.2751525 14.9129326,13.3368711 C15.0613877,13.3977822 15.1168628,13.4525214 15.1871196,13.5212771 C15.2722741,13.6041069 15.3683844,13.6986459 15.5882558,13.7900125 L15.7413483,13.4197009 C15.5928932,13.3587899 15.5374761,13.3040506 15.4671613,13.235295 C15.3820068,13.1524651 15.2858965,13.0579261 15.0660252,12.9665595 C14.8460959,12.8759427 14.7113211,12.8743853 14.5926033,12.8735778 C14.4941743,12.8720204 14.4164396,12.8712129 14.2679845,12.8094943 C14.1187757,12.7477757 14.0628949,12.693844 13.9922323,12.6243385 C13.9070779,12.5415086 13.8106197,12.4469696 13.5902846,12.3563528 C13.3699496,12.2641787 13.2352327,12.2626213 13.1160512,12.2618138 C13.0190134,12.2602564 12.9405832,12.2584106 12.7966495,12.2000952 L16,12.2000952 L16,11.8000779 L16,11.8000779 L16,11.8000779 Z" id="Shape" fill="#F09146"></path>
                <circle id="Oval" fill="#FFE15A" cx="12" cy="12" r="2"></circle>
                <path d="M12,0.1 C7.43630523,0.0989150255 3.27476254,2.71267535 1.290625,6.82628949 L22.709375,6.82628949 C20.7252375,2.71267535 16.5636948,0.0989150255 12,0.1 Z M12,23.900001 C16.5636948,23.901086 20.7252375,21.2873256 22.709375,17.1737115 L1.290625,17.1737115 C3.27476254,21.2873256 7.43630523,23.901086 12,23.900001 Z" id="Shape" fill="#82AFFF"></path>
                <path d="M12,23 C18.0751322,23 23,18.0751322 23,12 C23,5.92486775 18.0751322,1 12,1 C5.92486775,1 1,5.92486775 1,12 C1,18.0751322 5.92486775,23 12,23 Z M12,24 C5.372583,24 0,18.627417 0,12 C0,5.372583 5.372583,0 12,0 C18.627417,0 24,5.372583 24,12 C24,18.627417 18.627417,24 12,24 Z" id="Oval" fill="#FFFFFF"></path>
            </g>
        </g>
    </g>
</svg>