<?xml version="1.0" encoding="UTF-8"?>
<svg width="24px" height="24px" viewBox="0 0 24 24" version="1.1" xmlns="http://www.w3.org/2000/svg" xmlns:xlink="http://www.w3.org/1999/xlink">
    <!-- Generator: Sketch 55.1 (78136) - https://sketchapp.com -->
    <title>Flags/kazakhstan</title>
    <desc>Created with Sketch.</desc>
    <g id="Icons" stroke="none" stroke-width="1" fill="none" fill-rule="evenodd">
        <g id="Flags/kazakhstan">
            <g id="kazakhstan">
                <g id="Group" fill-rule="nonzero">
                    <path d="M12,23.5 C5.64872538,23.5 0.5,18.3512746 0.5,12 C0.5,5.64872538 5.64872538,0.5 12,0.5 C18.3512746,0.5 23.5,5.64872538 23.5,12 C23.5,18.3512746 18.3512746,23.5 12,23.5 Z" id="Combined-Shape" fill="#82C3D2"></path>
                    <path d="M0.85545276,7.54178623 C0.911799622,7.40105911 0.97073476,7.26164781 1.0321993,7.1236112 C1.0321602,7.12729379 1.03214062,7.13097555 1.03214062,7.13465625 C1.03214062,7.34207813 1.15242187,7.523625 1.32482812,7.57626563 C1.46470312,7.61990625 1.60921875,7.59623438 1.72110937,7.5135 C1.83271875,7.43104688 1.89675,7.30410938 1.89675,7.16564063 C1.89675,6.99225 1.78560937,6.93482813 1.73775,6.91823438 C1.66340625,6.8923125 1.59276562,6.90726563 1.570125,6.93623438 C1.55085937,6.96070313 1.55282812,7.0276875 1.62192187,7.13634375 C1.66467187,7.20332813 1.645125,7.29253125 1.578,7.33532813 C1.51073437,7.37751563 1.4218125,7.35810938 1.37901562,7.291125 C1.1949375,7.00265625 1.29314062,6.82195313 1.34395312,6.7575 C1.44820312,6.62578125 1.64451562,6.58073438 1.83225,6.64603125 C1.85367187,6.6534375 1.87528125,6.662625 1.89670312,6.6735 L1.89670312,6.30970313 C1.89665625,6.30998438 1.8961875,6.31026563 1.89614062,6.31054688 C1.89614062,6.3901875 1.83196875,6.44985938 1.75232812,6.44985938 C1.67282812,6.44985938 1.60851562,6.380625 1.60851562,6.30098438 C1.60851562,6.207 1.67423437,6.04396875 1.89670312,5.9934375 L1.89670312,5.7245625 C1.89670312,5.64492188 1.96115625,5.58046875 2.04079687,5.58046875 C2.1204375,5.58046875 2.18489062,5.64492188 2.18489062,5.7245625 L2.18489062,5.9934375 C2.40735937,6.04396875 2.47307812,6.207 2.47307812,6.30098438 C2.47307812,6.380625 2.408625,6.44507813 2.32898437,6.44507813 C2.25229687,6.44507813 2.18953125,6.385125 2.185125,6.30928125 C2.185125,6.30928125 2.1849375,6.30914063 2.18489062,6.30904688 L2.18489062,6.67354688 C2.2063125,6.66267188 2.22792187,6.65348438 2.24934375,6.64607813 C2.43703125,6.58078125 2.63320312,6.62582813 2.73764062,6.75754688 C2.78840625,6.822 2.88665625,7.00270313 2.70257812,7.29117188 C2.6600625,7.3584375 2.57128125,7.37789063 2.50359375,7.335375 C2.43646875,7.29257813 2.416875,7.203375 2.45967187,7.13639063 C2.52876562,7.02773438 2.53073437,6.96075 2.51146875,6.93628125 C2.48864062,6.9073125 2.418,6.89240625 2.34384375,6.91828125 C2.29603125,6.93492188 2.18484375,6.99229688 2.18484375,7.1656875 C2.18484375,7.30415625 2.248875,7.43109375 2.36048437,7.51354688 C2.47223437,7.59628125 2.61689062,7.61995313 2.75676562,7.5763125 C2.929125,7.52367188 3.04945312,7.342125 3.04945312,7.13470313 C3.04945312,6.98634375 3.01767187,6.83634375 2.95729687,6.7006875 L2.22087153,5.04360807 C2.2851423,4.95342012 2.35062953,4.86415905 2.41730927,4.77584881 L3.22096875,6.58359375 C3.2985,6.7580625 3.33792187,6.94354688 3.33792187,7.13465625 C3.33792187,7.38051563 3.226125,7.605 3.05020312,7.74201563 C3.226125,7.87898438 3.33792187,8.10351563 3.33792187,8.349375 C3.33792187,8.54048438 3.2985,8.72592188 3.22096875,8.9004375 L2.27728125,11.0236875 C2.21690625,11.1593438 2.185125,11.3093906 2.185125,11.4577031 C2.185125,11.665125 2.30540625,11.8466719 2.4778125,11.8993125 C2.61740625,11.9426719 2.76220312,11.9192813 2.87409375,11.8365469 C2.98570312,11.7540938 3.04973437,11.6271563 3.04973437,11.4886875 C3.04973437,11.3152969 2.93859375,11.257875 2.89073437,11.2412813 C2.81667187,11.2153594 2.74589062,11.2303125 2.72310937,11.2592813 C2.70384375,11.28375 2.7058125,11.3507344 2.77490625,11.4593906 C2.81765625,11.526375 2.79810937,11.6155781 2.73098437,11.658375 C2.66329687,11.7005625 2.57479687,11.6811563 2.532,11.6141719 C2.34792187,11.3257031 2.446125,11.145 2.4969375,11.0805469 C2.59935937,10.9513594 2.79032812,10.9069688 2.9745,10.9669219 C2.91398437,10.7102344 2.85825,10.4676094 3.09192187,10.2339375 C3.14821875,10.1776406 3.23939062,10.1776406 3.2956875,10.2339375 C3.35198437,10.2902344 3.35198437,10.3814063 3.2956875,10.4377031 C3.18028125,10.5531094 3.19532812,10.6479375 3.256125,10.9051875 C3.29254687,11.0594531 3.337875,11.2516406 3.337875,11.4886406 C3.337875,11.646375 3.28242187,11.797125 3.18914062,11.9209688 L3.19378125,11.9209688 C3.27342187,11.9209688 3.337875,11.9854219 3.337875,12.0650625 C3.337875,12.1447031 3.27342187,12.2091563 3.19378125,12.2091563 L3.18914062,12.2091563 C3.28246875,12.333 3.337875,12.48375 3.337875,12.6414844 C3.337875,12.8784844 3.29259375,13.0707188 3.256125,13.2249375 C3.19532812,13.4821875 3.18028125,13.5770156 3.2956875,13.6924219 C3.35198437,13.7487188 3.35198437,13.8398906 3.2956875,13.8961875 C3.26751562,13.9243594 3.23067187,13.9384219 3.19378125,13.9384219 C3.15689062,13.9384219 3.12,13.9243125 3.091875,13.8961875 C2.85820312,13.6625156 2.9139375,13.4198906 2.97445312,13.1632031 C2.79028125,13.2231563 2.5993125,13.1787656 2.49689062,13.0495781 C2.446125,12.985125 2.347875,12.8044219 2.53195312,12.5159531 C2.57489062,12.44925 2.66367187,12.4295156 2.7309375,12.47175 C2.7980625,12.5145469 2.81765625,12.60375 2.77485937,12.6707344 C2.70576562,12.7793906 2.70379687,12.846375 2.7230625,12.8708438 C2.74589062,12.8998125 2.81667187,12.915 2.8906875,12.8888438 C2.9385,12.8722031 3.0496875,12.8148281 3.0496875,12.6414375 C3.0496875,12.5029688 2.98565625,12.3760313 2.87404687,12.2935781 C2.76215625,12.2108438 2.61792187,12.1874531 2.47776562,12.2308125 C2.30540625,12.2834531 2.18507812,12.465 2.18507812,12.6724219 C2.18507812,12.8207813 2.21685937,12.9707813 2.27723437,13.1064375 L3.22092187,15.2296875 C3.29845312,15.4041563 3.337875,15.5896406 3.337875,15.78075 C3.337875,16.0266094 3.22607812,16.2510938 3.05015625,16.3881094 C3.22607812,16.5250781 3.337875,16.7496094 3.337875,16.9954688 C3.337875,17.1865781 3.29845312,17.3720156 3.22092187,17.5465313 L2.45388116,19.2723348 C2.38690766,19.1845554 2.32111736,19.0958249 2.25653405,19.006167 L2.95729687,17.4295313 C3.01767187,17.293875 3.0495,17.143875 3.04940646,16.9955625 C3.04940646,16.7881406 2.929125,16.6065938 2.75671875,16.5539531 C2.617125,16.5103125 2.47232812,16.5339844 2.3604375,16.6167188 C2.24882812,16.6991719 2.18479687,16.8261094 2.18479687,16.9645781 C2.18479687,17.1379688 2.2959375,17.1953906 2.34379687,17.2119844 C2.418,17.2379063 2.48864062,17.2229531 2.51142187,17.1939844 C2.5306875,17.1695156 2.52871875,17.1025313 2.459625,16.993875 C2.416875,16.9268906 2.43642187,16.8376875 2.50354687,16.7948906 C2.5708125,16.7524219 2.65973437,16.7721094 2.70253125,16.8390938 C2.88660937,17.1275625 2.78840625,17.3082656 2.73759375,17.3727188 C2.63320312,17.5044375 2.43703125,17.5497656 2.24929687,17.4841875 C2.227875,17.4767813 2.20626562,17.4675938 2.18484375,17.4567188 L2.18484375,17.8205156 C2.18489062,17.8202344 2.18535937,17.8199531 2.18540625,17.8196719 C2.18540625,17.7400313 2.24957812,17.6803594 2.32921875,17.6803594 C2.40871875,17.6803594 2.47303125,17.7495938 2.47303125,17.8292344 C2.47303125,17.9232188 2.4073125,18.08625 2.18484375,18.1367813 L2.18484375,18.4056563 C2.18484375,18.4852969 2.12039062,18.54975 2.04075,18.54975 C1.96110937,18.54975 1.89665625,18.4852969 1.89665625,18.4056563 L1.89665625,18.1367813 C1.6741875,18.08625 1.60846875,17.9232188 1.60846875,17.8292344 C1.60846875,17.7495938 1.67292187,17.6851406 1.7525625,17.6851406 C1.82925,17.6851406 1.89201562,17.7450938 1.89642187,17.8209375 C1.89642187,17.8209375 1.89660937,17.8210781 1.89665625,17.8211719 L1.89665625,17.4566719 C1.87523437,17.4675469 1.853625,17.4767344 1.83220312,17.4841406 C1.64451562,17.5497188 1.44820312,17.5043906 1.34390625,17.3726719 C1.29314062,17.3082188 1.19489062,17.1275156 1.37896875,16.8390469 C1.42190625,16.7723438 1.5106875,16.7526094 1.57795312,16.7948438 C1.64507812,16.8376406 1.66467187,16.9268438 1.621875,16.9938281 C1.55278125,17.1024844 1.5508125,17.1694688 1.57007812,17.1939375 C1.59276562,17.2229063 1.66340625,17.2378125 1.73770312,17.2119375 C1.78551562,17.1952969 1.89670312,17.1379219 1.89670312,16.9645313 C1.89670312,16.8260625 1.83267187,16.699125 1.7210625,16.6166719 C1.6093125,16.5339375 1.46479687,16.5105469 1.32478125,16.5539063 C1.1804385,16.5979903 1.07258663,16.7324796 1.04133827,16.8968613 C0.988353004,16.7784664 0.937230046,16.6590561 0.888006655,16.5386676 C0.928780332,16.481397 0.977125565,16.4305559 1.031625,16.3881094 C0.855703125,16.2511406 0.74390625,16.0266094 0.74390625,15.78075 C0.74390625,15.5896406 0.783328125,15.4042031 0.860859375,15.2296875 L1.80454687,13.1064375 C1.86492187,12.9707813 1.89670312,12.8207344 1.89670312,12.6724219 C1.89670312,12.465 1.77642187,12.2834531 1.60401562,12.2308125 C1.46428125,12.1871719 1.319625,12.2108438 1.20773437,12.2935781 C1.096125,12.3760313 1.03209375,12.5029688 1.03209375,12.6414375 C1.03209375,12.8148281 1.14323437,12.87225 1.19109375,12.8888438 C1.2654375,12.9150469 1.33579687,12.8998125 1.35871875,12.8708438 C1.37798437,12.846375 1.37601562,12.7793906 1.30692187,12.6707344 C1.26417187,12.60375 1.28371875,12.5145469 1.35084375,12.47175 C1.41810937,12.429 1.50717187,12.4489688 1.54982812,12.5159531 C1.73390625,12.8044219 1.63570312,12.985125 1.58489062,13.0495781 C1.48246875,13.1787656 1.2915,13.2231563 1.10732812,13.1632031 C1.16784375,13.4198906 1.22357812,13.6625156 0.98990625,13.8961875 C0.961734375,13.9243594 0.924890625,13.9384219 0.888,13.9384219 C0.851109375,13.9384219 0.81421875,13.9243125 0.78609375,13.8961875 C0.729796875,13.8398906 0.729796875,13.7487188 0.78609375,13.6924219 C0.9015,13.5770156 0.886453125,13.4821875 0.82565625,13.2249375 C0.789234375,13.0706719 0.74390625,12.8784844 0.74390625,12.6414844 C0.74390625,12.48375 0.799359375,12.333 0.892640625,12.2091563 L0.888,12.2091563 C0.808359375,12.2091563 0.74390625,12.1447031 0.74390625,12.0650625 C0.74390625,11.9854219 0.808359375,11.9209688 0.888,11.9209688 L0.892640625,11.9209688 C0.7993125,11.797125 0.74390625,11.646375 0.74390625,11.4886406 C0.74390625,11.2516406 0.7891875,11.0594063 0.82565625,10.9051875 C0.886453125,10.6479375 0.9015,10.5531094 0.78609375,10.4377031 C0.729796875,10.3814063 0.729796875,10.2902344 0.78609375,10.2339375 C0.842390625,10.1776406 0.9335625,10.1776406 0.989859375,10.2339375 C1.22353125,10.4676094 1.16779687,10.7102344 1.10728125,10.9669219 C1.29145312,10.9069688 1.48242187,10.9513594 1.58484375,11.0805469 C1.63560937,11.145 1.73385937,11.3257031 1.54978125,11.6141719 C1.50726562,11.6814375 1.41848437,11.7011719 1.35079687,11.658375 C1.28367187,11.6155781 1.26407812,11.526375 1.306875,11.4593906 C1.37596875,11.3507344 1.3779375,11.28375 1.35867187,11.2592813 C1.33570312,11.2303125 1.26534375,11.2154063 1.19104687,11.2412813 C1.14323437,11.2579219 1.03204687,11.3152969 1.03204687,11.4886875 C1.03204687,11.6271563 1.09607812,11.7540938 1.2076875,11.8365469 C1.31957812,11.9195625 1.46395312,11.9429531 1.60396875,11.8993125 C1.77632812,11.8466719 1.89665625,11.665125 1.89665625,11.4577031 C1.89665625,11.3093438 1.864875,11.1593438 1.8045,11.0236875 L0.8608125,8.9004375 C0.78328125,8.72596875 0.743859375,8.54048438 0.743859375,8.349375 C0.743859375,8.10351563 0.85565625,7.87903125 1.03157812,7.74201563 C0.961784391,7.68767582 0.902083664,7.61955404 0.85545276,7.54178623 Z M3.32124252,20.2873184 C3.10916794,20.0652906 2.90552764,19.8351376 2.71083592,19.5973737 C2.79292362,19.5791583 2.8844991,19.5836186 2.97445312,19.6130156 C2.9139375,19.3562813 2.85820312,19.1137031 3.091875,18.8800313 C3.14817187,18.8237344 3.23934375,18.8237344 3.29564062,18.8800313 C3.3519375,18.9363281 3.3519375,19.0275 3.29564062,19.0837969 C3.18023437,19.1992031 3.19528125,19.2940313 3.25607812,19.5512813 C3.2925,19.7055469 3.33782812,19.8977344 3.33782812,20.1347344 C3.33782812,20.1864398 3.33215736,20.2375755 3.32124252,20.2873184 Z M3.04932991,4.00698187 C3.12841181,3.9184865 3.20878669,3.83117113 3.29042486,3.74506544 C3.3209671,3.82419767 3.3376875,3.90874028 3.3376875,3.99539063 C3.3376875,4.23239063 3.29240625,4.424625 3.2559375,4.57884375 C3.19514062,4.83609375 3.18009375,4.93092188 3.2955,5.04632813 C3.35179687,5.102625 3.35179687,5.19379688 3.2955,5.25009375 C3.26732812,5.27826563 3.23048437,5.29232813 3.19359375,5.29232813 C3.15670312,5.29232813 3.1198125,5.27821875 3.0916875,5.25009375 C2.85801562,5.01642188 2.91375,4.77379688 2.97426562,4.51710938 C2.85263499,4.55670357 2.72803988,4.55078787 2.62794349,4.50499265 C2.69538166,4.42077481 2.76393144,4.33748566 2.83357059,4.25514743 C2.85178041,4.25352228 2.87102828,4.24955709 2.8905,4.24275 C2.93722634,4.22653321 3.044481,4.17132222 3.04932991,4.00698187 Z M2.04079687,7.59089063 C1.99940625,7.64714063 1.952625,7.69940625 1.89576562,7.74201563 C1.95267187,7.784625 1.99940625,7.83689063 2.04079687,7.89314063 C2.0821875,7.83689063 2.12892187,7.78467188 2.18582812,7.74201563 C2.12892187,7.69940625 2.0821875,7.64714063 2.04079687,7.59089063 Z M2.04079687,16.2370313 C1.99940625,16.2932813 1.952625,16.3455469 1.89576562,16.3881563 C1.95267187,16.4307656 1.99940625,16.4830313 2.04079687,16.5392813 C2.0821875,16.4830313 2.12892187,16.4308125 2.18582812,16.3881563 C2.12892187,16.3455469 2.0821875,16.2932813 2.04079687,16.2370313 Z M2.95729687,15.3468281 L2.04084375,13.2846563 L1.12429687,15.3467813 C1.06392187,15.4824375 1.03214062,15.6324844 1.03214062,15.7807969 C1.03214062,15.9882188 1.15242187,16.1697656 1.32482812,16.2224063 C1.46470312,16.2660469 1.60921875,16.242375 1.72110937,16.1596406 C1.83271875,16.0771875 1.89675,15.95025 1.89675,15.8117813 C1.89675,15.6383906 1.78560937,15.5809688 1.73775,15.564375 C1.66340625,15.5384531 1.59276562,15.5534063 1.570125,15.582375 C1.55085937,15.6068438 1.55282812,15.6738281 1.62192187,15.7824844 C1.66467187,15.8494688 1.645125,15.9386719 1.578,15.9814688 C1.51073437,16.0236563 1.4218125,16.00425 1.37901562,15.9372656 C1.1949375,15.6487969 1.29314062,15.4680938 1.34395312,15.4036406 C1.44820312,15.2719219 1.64451562,15.2271563 1.83225,15.2921719 C1.85367187,15.2995781 1.87528125,15.3087656 1.89670312,15.3196406 L1.89665625,14.956125 C1.89665625,14.956125 1.8961875,14.9564063 1.89614062,14.9566875 C1.89614062,15.0363281 1.83196875,15.096 1.75232812,15.096 C1.67282812,15.096 1.60851562,15.0267656 1.60851562,14.947125 C1.60851562,14.8531406 1.67423437,14.6901094 1.89670312,14.6395781 L1.89670312,14.3707031 C1.89670312,14.2910625 1.96115625,14.2266094 2.04079687,14.2266094 C2.1204375,14.2266094 2.18489062,14.2910625 2.18489062,14.3707031 L2.18489062,14.6395781 C2.40735937,14.6901094 2.47307812,14.8531406 2.47307812,14.947125 C2.47307812,15.0267656 2.408625,15.0912188 2.32898437,15.0912188 C2.25229687,15.0912188 2.18953125,15.0312656 2.18517187,14.9555625 L2.18489062,14.9551875 L2.18489062,15.3196875 C2.2063125,15.3088125 2.22792187,15.299625 2.24934375,15.2922188 C2.43703125,15.2272031 2.63320312,15.2719688 2.73764062,15.4036875 C2.78840625,15.4681406 2.88665625,15.6488438 2.70257812,15.9373125 C2.6600625,16.0045781 2.57128125,16.0243125 2.50359375,15.9815156 C2.43646875,15.9387188 2.416875,15.8495156 2.45967187,15.7825313 C2.52876562,15.673875 2.53073437,15.6068906 2.51146875,15.5824219 C2.48864062,15.5534531 2.418,15.5385469 2.34384375,15.5644219 C2.29603125,15.5810625 2.18484375,15.6384375 2.18484375,15.8118281 C2.18484375,15.9502969 2.248875,16.0772344 2.36048437,16.1596875 C2.47223437,16.2424219 2.61689062,16.2660938 2.75676562,16.2224531 C2.929125,16.1698125 3.04945312,15.9882656 3.04945312,15.7808438 C3.04945312,15.6324844 3.01767187,15.4824844 2.95729687,15.3468281 Z M2.18442187,12.0651094 C2.12985937,12.0226406 2.08148437,11.971875 2.04079687,11.9144531 C2.0000625,11.971875 1.95173437,12.0226406 1.89717187,12.0651094 C1.95173437,12.1075781 2.0000625,12.1583438 2.04079687,12.2157656 C2.08153125,12.1583438 2.12985937,12.1075781 2.18442187,12.0651094 Z M2.95729687,8.78339063 C3.01767187,8.64773438 3.0495,8.49773438 3.04931332,8.34942188 C3.04931332,8.142 2.92903125,7.96045313 2.756625,7.9078125 C2.61703125,7.86445313 2.47223437,7.88784375 2.36034375,7.97057813 C2.24873437,8.05303125 2.18470312,8.17996875 2.18470312,8.3184375 C2.18470312,8.49182813 2.29584375,8.54925 2.34370312,8.56584375 C2.41790625,8.59204688 2.48854687,8.5768125 2.51132812,8.54784375 C2.53059375,8.523375 2.528625,8.45639063 2.45953125,8.34773438 C2.41678125,8.28075 2.43632812,8.19154688 2.50345312,8.14875 C2.57071875,8.106 2.65964062,8.1256875 2.7024375,8.19295313 C2.88651562,8.48142188 2.7883125,8.662125 2.7375,8.72657813 C2.63310937,8.85829688 2.4369375,8.90334375 2.24920312,8.83804688 C2.22778125,8.83064063 2.20617187,8.82145313 2.18475,8.81057813 L2.18484375,9.17409375 C2.18484375,9.17409375 2.1853125,9.1738125 2.18535937,9.17353125 C2.18535937,9.09389063 2.24953125,9.03421875 2.32917187,9.03421875 C2.40867187,9.03421875 2.47298437,9.10345313 2.47298437,9.18309375 C2.47298437,9.27707813 2.40726562,9.44010938 2.18479687,9.49064063 L2.18479687,9.75951563 C2.18479687,9.83915625 2.12034375,9.90360938 2.04070312,9.90360938 C1.9610625,9.90360938 1.89660937,9.83915625 1.89660937,9.75951563 L1.89660937,9.49064063 C1.67414062,9.44010938 1.60842187,9.27707813 1.60842187,9.18309375 C1.60842187,9.10345313 1.672875,9.039 1.75251562,9.039 C1.82920312,9.039 1.89196875,9.09895313 1.89632812,9.17465625 L1.89660937,9.17503125 L1.89660937,8.81053125 C1.8751875,8.82140625 1.85357812,8.83059375 1.83215625,8.838 C1.64446875,8.90329688 1.44815625,8.85825 1.34385937,8.72653125 C1.29309375,8.66207813 1.19484375,8.481375 1.37892187,8.19290625 C1.42185937,8.12592188 1.51064062,8.1061875 1.57790625,8.14870313 C1.64503125,8.1915 1.664625,8.28070313 1.62182812,8.3476875 C1.55273437,8.45634375 1.55076562,8.52332813 1.57003125,8.54779688 C1.59271875,8.57676563 1.66335937,8.59195313 1.73765625,8.56579688 C1.78546875,8.54915625 1.89665625,8.49178125 1.89665625,8.31839063 C1.89665625,8.17992188 1.832625,8.05298438 1.72101562,7.97053125 C1.60926562,7.88779688 1.46475,7.86440625 1.32473437,7.90776563 C1.152375,7.96040625 1.03204687,8.14195313 1.03204687,8.349375 C1.03204687,8.49773438 1.06382812,8.64773438 1.12420312,8.78339063 L2.04075,10.8455156 L2.95729687,8.78339063 Z" id="Combined-Shape" fill="#FFE15A"></path>
                    <circle id="Oval" fill="#FFE15A" cx="12.6703125" cy="10.6809375" r="2.735625"></circle>
                    <path d="M13.215,7.19264062 C13.215,7.3059375 13.0470768,7.3978125 12.84,7.3978125 C12.6329232,7.3978125 12.465,7.3059375 12.465,7.19264062 C12.465,7.07934375 12.84,6.57707812 12.84,6.57707812 C12.84,6.57707812 13.215,7.07934375 13.215,7.19264062 Z" id="Shape" fill="#FFE15A"></path>
                    <path d="M12.465,14.1688594 C12.465,14.0555625 12.6329232,13.9636875 12.84,13.9636875 C13.0470768,13.9636875 13.215,14.0555625 13.215,14.1688594 C13.215,14.2821563 12.84,14.7844219 12.84,14.7844219 C12.84,14.7844219 12.465,14.2822031 12.465,14.1688594 Z" id="Shape" fill="#FFE15A"></path>
                    <path d="M16.1582812,11.225625 C16.0449844,11.225625 15.9531094,11.0577018 15.9531094,10.850625 C15.9531094,10.6435482 16.0449844,10.475625 16.1582812,10.475625 C16.2715781,10.475625 16.7738437,10.850625 16.7738437,10.850625 C16.7738437,10.850625 16.2715781,11.225625 16.1582812,11.225625 Z" id="Shape" fill="#FFE15A"></path>
                    <path d="M9.1820625,10.4755781 C9.29535937,10.4755781 9.38723437,10.6435014 9.38723437,10.8505781 C9.38723437,11.0576549 9.29535937,11.2255781 9.1820625,11.2255781 C9.06876562,11.2255781 8.5665,10.8505781 8.5665,10.8505781 C8.5665,10.8505781 9.06876562,10.4755781 9.1820625,10.4755781 Z" id="Shape" fill="#FFE15A"></path>
                    <path d="M15.3416331,8.4587285 C15.2478196,8.55254883 15.095654,8.55254883 15.0018406,8.4587285 C14.9080271,8.36490816 14.9080271,8.21273146 15.0018406,8.11891112 C15.095654,8.02509079 15.6814805,7.77909375 15.6814805,7.77909375 C15.6814805,7.77909375 15.4354465,8.36485326 15.3416331,8.4587285 Z" id="Shape" fill="#FFE15A"></path>
                    <path d="M10.1082693,13.0124238 C10.2020827,12.9186035 10.3542483,12.9186035 10.4480618,13.0124238 C10.5418752,13.1062442 10.5418752,13.2584209 10.4480618,13.3522412 C10.3542483,13.4460616 9.76842188,13.6920586 9.76842188,13.6920586 C9.76842188,13.6920586 10.0144558,13.1062442 10.1082693,13.0124238 Z" id="Shape" fill="#FFE15A"></path>
                    <path d="M15.0018457,13.3522112 C14.9080254,13.2583977 14.9080254,13.1062322 15.0018457,13.0124187 C15.0956661,12.9186052 15.2478428,12.9186052 15.3416631,13.0124187 C15.4354834,13.1062322 15.6814805,13.6920586 15.6814805,13.6920586 C15.6814805,13.6920586 15.0956661,13.4460796 15.0018457,13.3522112 Z" id="Shape" fill="#FFE15A"></path>
                    <path d="M10.4481035,8.1188474 C10.5419238,8.21266087 10.5419238,8.36482643 10.4481035,8.4586399 C10.3542832,8.55245337 10.2021065,8.55245337 10.1082861,8.4586399 C10.0144658,8.36482643 9.76846875,7.779 9.76846875,7.779 C9.76846875,7.779 10.3542832,8.02503392 10.4481035,8.1188474 Z" id="Shape" fill="#FFE15A"></path>
                    <path d="M11.823098,7.37967188 C11.8968749,7.48434375 11.8123306,7.60439063 11.6341495,7.64775 C11.4559683,7.69110938 11.2517859,7.64142188 11.178009,7.53670313 C11.1042321,7.43203125 11.0997656,6.8895 11.0997656,6.8895 C11.0997656,6.8895 11.7493211,7.27495313 11.823098,7.37967188 Z" id="Shape" fill="#FFE15A"></path>
                    <path d="M13.8264635,13.981875 C13.7526867,13.8772031 13.837231,13.7571562 14.0154121,13.7137969 C14.1935135,13.6704375 14.3977757,13.720125 14.4715526,13.8248437 C14.5453295,13.9295156 14.5497959,14.4720469 14.5497959,14.4720469 C14.5497959,14.4720469 13.9002404,14.0865469 13.8264635,13.981875 Z" id="Shape" fill="#FFE15A"></path>
                    <path d="M15.9712969,9.83372302 C15.866625,9.90749989 15.7465781,9.82295558 15.7032187,9.64477446 C15.6598594,9.4666731 15.7095469,9.26241086 15.8142656,9.18863399 C15.9189844,9.11485712 16.4614687,9.11039063 16.4614687,9.11039063 C16.4614687,9.11039063 16.0759687,9.75994614 15.9712969,9.83372302 Z" id="Shape" fill="#FFE15A"></path>
                    <path d="M9.36904688,11.8370417 C9.47371875,11.7632648 9.59376563,11.8478091 9.637125,12.0259902 C9.68048438,12.2040916 9.63079688,12.4083538 9.52607813,12.4821307 C9.42140625,12.5559076 8.878875,12.5603741 8.878875,12.5603741 C8.878875,12.5603741 9.264375,11.9108185 9.36904688,11.8370417 Z" id="Shape" fill="#FFE15A"></path>
                    <path d="M14.4715578,7.53670313 C14.3977799,7.641375 14.1935147,7.69110938 14.0154107,7.64775 C13.8373068,7.60439063 13.7526815,7.48434375 13.8264595,7.37967188 C13.9002374,7.275 14.5498023,6.8895 14.5498023,6.8895 C14.5498023,6.8895 14.5453358,7.43198438 14.4715578,7.53670313 Z" id="Shape" fill="#FFE15A"></path>
                    <path d="M11.1780101,13.8248438 C11.2517881,13.7201719 11.4560533,13.6704375 11.6341572,13.7137969 C11.8122611,13.7571563 11.8968864,13.8772031 11.8231085,13.981875 C11.7493306,14.0865469 11.0997656,14.4720469 11.0997656,14.4720469 C11.0997656,14.4720469 11.1042322,13.9295156 11.1780101,13.8248438 Z" id="Shape" fill="#FFE15A"></path>
                    <path d="M15.8142188,12.482136 C15.7095469,12.408358 15.6598125,12.2040928 15.7031719,12.0259889 C15.7465313,11.8478849 15.8665781,11.7632596 15.97125,11.8370376 C16.0759219,11.9108155 16.4614219,12.5603805 16.4614219,12.5603805 C16.4614219,12.5603805 15.9189375,12.5559139 15.8142188,12.482136 Z" id="Shape" fill="#FFE15A"></path>
                    <path d="M9.526125,9.18863512 C9.63079688,9.26241306 9.68053125,9.46667826 9.63717188,9.6447822 C9.5938125,9.82288614 9.47376563,9.90751144 9.36909375,9.83373349 C9.26442188,9.75995555 8.87892188,9.11039063 8.87892188,9.11039063 C8.87892188,9.11039063 9.42140625,9.11485718 9.526125,9.18863512 Z" id="Shape" fill="#FFE15A"></path>
                    <path d="M12.5280443,7.21964062 C12.56856,7.33078125 12.4363689,7.43878125 12.2328462,7.46090625 C12.0293235,7.48303125 11.831552,7.41084375 11.7910363,7.29970312 C11.7505206,7.1885625 11.9396224,6.65596875 11.9396224,6.65596875 C11.9396224,6.65596875 12.4875286,7.1085 12.5280443,7.21964062 Z" id="Shape" fill="#FFE15A"></path>
                    <path d="M13.152736,14.1418594 C13.1122203,14.0307187 13.2444113,13.9227187 13.447934,13.9005937 C13.6514567,13.8784687 13.8492283,13.9506562 13.889744,14.0617969 C13.9302597,14.1729375 13.7411578,14.7055312 13.7411578,14.7055312 C13.7411578,14.7055312 13.1932517,14.253 13.152736,14.1418594 Z" id="Shape" fill="#FFE15A"></path>
                    <path d="M16.1312812,10.5386224 C16.0201406,10.5791381 15.9121406,10.446947 15.8900156,10.2434243 C15.8678906,10.0399016 15.9400781,9.8421301 16.0512187,9.80161441 C16.1623594,9.76109871 16.6949531,9.95020057 16.6949531,9.95020057 C16.6949531,9.95020057 16.2424219,10.4981925 16.1312812,10.5386224 Z" id="Shape" fill="#FFE15A"></path>
                    <path d="M9.2090625,11.1633141 C9.32020312,11.1227984 9.42820312,11.2549895 9.45032812,11.4585122 C9.47245312,11.6620349 9.40026562,11.8598064 9.289125,11.9003221 C9.17798437,11.9408378 8.64539062,11.7517359 8.64539062,11.7517359 C8.64539062,11.7517359 9.09792187,11.2038298 9.2090625,11.1633141 Z" id="Shape" fill="#FFE15A"></path>
                    <path d="M14.9179582,7.92330139 C14.8316693,8.02185653 14.6570357,8.04838306 14.5278915,7.98253254 C14.3987474,7.91668201 14.3639877,7.78341193 14.4502766,7.68485679 C14.5365654,7.58630165 15.1528591,7.26871875 15.1528591,7.26871875 C15.1528591,7.26871875 15.004247,7.82474625 14.9179582,7.92330139 Z" id="Shape" fill="#FFE15A"></path>
                    <path d="M10.6252134,13.4712452 C10.7115023,13.3726901 10.8861359,13.3461635 11.0152801,13.4120141 C11.1444242,13.4778646 11.1791838,13.6111347 11.092895,13.7096898 C11.0066062,13.8082449 10.3903125,14.1258278 10.3903125,14.1258278 C10.3903125,14.1258278 10.5389246,13.5698003 10.6252134,13.4712452 Z" id="Shape" fill="#FFE15A"></path>
                    <path d="M15.4606202,12.9285363 C15.3620651,12.8422475 15.3355385,12.6676138 15.4013891,12.5384697 C15.4672396,12.4093256 15.6005097,12.3745659 15.6990648,12.4608547 C15.7976199,12.5471435 16.1152028,13.1634372 16.1152028,13.1634372 C16.1152028,13.1634372 15.5591753,13.0148894 15.4606202,12.9285363 Z" id="Shape" fill="#FFE15A"></path>
                    <path d="M9.91272326,8.63579156 C10.0112784,8.72208038 10.0378049,8.89671406 9.97195441,9.02585818 C9.90610389,9.15500229 9.77283381,9.18976197 9.67427867,9.10347314 C9.57572353,9.01718432 9.25814062,8.40089063 9.25814062,8.40089063 C9.25814062,8.40089063 9.81416812,8.54950273 9.91272326,8.63579156 Z" id="Shape" fill="#FFE15A"></path>
                    <path d="M11.092895,7.68480992 C11.1791838,7.78336506 11.1444242,7.91663514 11.0152801,7.98248566 C10.8861359,8.04833618 10.7115023,8.02180965 10.6252134,7.92325451 C10.5389246,7.82469937 10.3903125,7.26867188 10.3903125,7.26867188 C10.3903125,7.26867188 11.0066062,7.58625478 11.092895,7.68480992 Z" id="Shape" fill="#FFE15A"></path>
                    <path d="M14.4502766,13.7096898 C14.3639877,13.6111347 14.3987474,13.4778646 14.5278915,13.4120141 C14.6570357,13.3461635 14.8316693,13.3726901 14.9179582,13.4712452 C15.004247,13.5698003 15.1528591,14.1258278 15.1528591,14.1258278 C15.1528591,14.1258278 14.5365654,13.8082449 14.4502766,13.7096898 Z" id="Shape" fill="#FFE15A"></path>
                    <path d="M15.6991117,9.10347314 C15.6005565,9.18976197 15.4672865,9.15500229 15.4014359,9.02585818 C15.3355854,8.89671406 15.3621119,8.72208038 15.4606671,8.63579156 C15.5592222,8.54950273 16.1152497,8.40089063 16.1152497,8.40089063 C16.1152497,8.40089063 15.7976668,9.01718432 15.6991117,9.10347314 Z" id="Shape" fill="#FFE15A"></path>
                    <path d="M9.67423179,12.4608547 C9.77278693,12.3745659 9.90605701,12.4093256 9.97190754,12.5384697 C10.0377581,12.6676138 10.0112315,12.8422475 9.91267639,12.9285363 C9.81412125,13.0148251 9.25809375,13.1634372 9.25809375,13.1634372 C9.25809375,13.1634372 9.57567665,12.5471435 9.67423179,12.4608547 Z" id="Shape" fill="#FFE15A"></path>
                    <path d="M13.889744,7.29970312 C13.8492283,7.41084375 13.6514567,7.48303125 13.447934,7.46090625 C13.2444113,7.43878125 13.1122203,7.33078125 13.152736,7.21964062 C13.1932517,7.1085 13.7411578,6.65596875 13.7411578,6.65596875 C13.7411578,6.65596875 13.9302597,7.1885625 13.889744,7.29970312 Z" id="Shape" fill="#FFE15A"></path>
                    <path d="M11.7910363,14.0617969 C11.831552,13.9506562 12.0293235,13.8784687 12.2328462,13.9005937 C12.4363689,13.9227187 12.56856,14.0307187 12.5280443,14.1418594 C12.4875286,14.253 11.9396224,14.7055312 11.9396224,14.7055312 C11.9396224,14.7055312 11.7505206,14.1729375 11.7910363,14.0617969 Z" id="Shape" fill="#FFE15A"></path>
                    <path d="M16.0512187,11.9003891 C15.9400781,11.8598723 15.8678906,11.6620954 15.8900156,11.4585672 C15.9121406,11.255039 16.0201406,11.1228444 16.1312812,11.1633612 C16.2424219,11.203878 16.6949531,11.7517989 16.6949531,11.7517989 C16.6949531,11.7517989 16.1623594,11.9408201 16.0512187,11.9003891 Z" id="Shape" fill="#FFE15A"></path>
                    <path d="M9.289125,9.80161441 C9.40026562,9.8421301 9.47245312,10.0399016 9.45032812,10.2434243 C9.42820312,10.446947 9.32020312,10.5791381 9.2090625,10.5386224 C9.09792187,10.4981067 8.64539062,9.95020057 8.64539062,9.95020057 C8.64539062,9.95020057 9.17798437,9.76109871 9.289125,9.80161441 Z" id="Shape" fill="#FFE15A"></path>
                    <path d="M19.105125,11.4005625 C19.1851406,11.4336562 19.2229688,11.5255781 19.1895938,11.6054062 C19.1879063,11.6093906 19.1863594,11.613375 19.1846719,11.6173594 C19.1382656,11.7279844 18.8213906,12.4744219 18.4029844,13.2328125 C18.5315156,13.0961719 18.6617344,12.9500156 18.7855313,12.7989375 C18.8079375,12.771375 18.82125,12.7548281 18.8241563,12.7514531 L18.8242969,12.751125 L18.824625,12.7507969 C18.8786719,12.6836719 18.9775313,12.6723281 19.0450781,12.7275 C19.1125313,12.7817344 19.1230781,12.8804062 19.0688438,12.9478125 C19.0581094,12.9609844 19.0475625,12.9741562 19.0368281,12.9873281 C18.9187031,13.1325937 18.5051719,13.6381875 18.0944063,14.1045469 C18.2032031,14.0370937 18.3029063,13.9715625 18.3809063,13.913625 C18.40725,13.8930937 18.4327031,13.8731719 18.4572188,13.8538594 C18.5242969,13.8008437 18.6222188,13.8118594 18.6759844,13.8780469 C18.7300781,13.9445625 18.7208906,14.0419687 18.6553125,14.0971406 C18.6315469,14.1170625 18.6045938,14.1382031 18.574875,14.1602812 C18.4058906,14.292 18.0216094,14.587125 17.6597344,14.835 C17.7001875,14.8270312 17.7322031,14.8190625 17.7522656,14.8114219 C17.8235156,14.7826406 17.9051719,14.8114219 17.9444063,14.8779375 C17.9833594,14.9444062 17.9685,15.0292969 17.9093438,15.0783281 C17.89725,15.0884062 17.6657344,15.2762812 17.1264375,15.4460156 C17.1625781,15.4647187 17.19075,15.4972031 17.2036406,15.5373281 C17.2229531,15.5979844 17.2036406,15.6645 17.1549375,15.7052344 C17.1336563,15.7233281 16.6124063,16.1458594 14.9243438,16.312875 C14.8356094,16.3177969 14.7611719,16.2580312 14.7527344,16.1719219 C14.7441094,16.0858125 14.80725,16.0088906 14.8933594,16.0003125 C15.7825781,15.9126562 16.3245,15.753 16.6280156,15.63075 C16.5460781,15.5958281 16.4924531,15.5655 16.4875313,15.5627344 C16.4306719,15.53025 16.4000625,15.4658906 16.4104688,15.40125 C16.4210625,15.3365625 16.4705156,15.2854219 16.5347344,15.2725312 C16.6487344,15.2498906 16.7536875,15.2250469 16.8495938,15.1993125 C16.8174375,15.1763437 16.7941406,15.141375 16.7866406,15.1000312 C16.77225,15.0215625 16.819125,14.9446406 16.8954375,14.9216719 C16.9409531,14.9078437 17.0065313,14.8756875 17.0863594,14.8300312 C17.0615156,14.7675 17.0791406,14.6942812 17.1332344,14.6504531 C17.2159688,14.5830469 17.3249063,14.4770625 17.4477656,14.3483437 C17.3979375,14.2919531 17.3952188,14.2067812 17.4428438,14.1470156 C17.514375,14.0572031 17.5860938,13.9591875 17.656875,13.8555937 C17.6388281,13.8513281 17.6212031,13.8439687 17.6047969,13.8332344 C17.5348125,13.7866406 17.5138125,13.6931719 17.5573125,13.6211719 C17.599875,13.5503906 17.6521406,13.4305781 17.7098906,13.2782812 C17.6656406,13.3193437 17.6002031,13.3319062 17.5425938,13.3077187 C17.4681563,13.2764531 17.4295313,13.194 17.4534375,13.1167969 C17.4674063,13.0714219 17.48025,13.019625 17.4922031,12.9629531 C16.578,14.8385625 14.6375625,15.6514687 14.6130469,15.6615937 C14.5984688,15.6674062 14.5831406,15.6713906 14.5675313,15.6726094 C14.5606406,15.6732187 13.87275,15.7360312 13.2782813,15.9425625 C12.9703125,16.0495312 12.8011875,16.1527969 12.6222188,16.2624844 C12.5190938,16.3253906 12.4104375,16.3900312 12.2778281,16.4569687 C12.3201563,16.4786719 12.3552188,16.5124687 12.3643594,16.5609375 C12.3769219,16.6277344 12.3450469,16.6948594 12.2856094,16.727625 C12.21525,16.7662969 12.1272656,16.8254062 12.0540938,16.8852187 C12.5308594,16.9184062 13.1402813,16.9367812 13.5166875,16.7907187 C13.5972656,16.7603437 13.68825,16.7995781 13.7195156,16.8804844 C13.7275781,16.9012969 13.7305781,16.9226719 13.7296875,16.9436719 C13.9589531,16.90875 14.1696563,16.8427031 14.3005313,16.7177812 C14.3978438,16.62525 14.4289219,16.5094219 14.42925,16.5082031 C14.4470156,16.4337187 14.5150313,16.3825312 14.5913438,16.3880625 L16.4145469,16.49775 C16.4572969,16.5001875 16.4972813,16.5204375 16.5248438,16.5532031 C16.5525469,16.5860156 16.5655781,16.6285781 16.5609844,16.6711875 C16.5559219,16.7180625 16.4929688,17.0977031 15.7975313,17.1016875 C15.79125,17.1706406 15.7682344,17.2462969 15.7115625,17.3134219 C15.6075,17.4368906 15.4276406,17.4831562 15.177,17.4528281 C15.1222969,17.5138125 15.0369375,17.5818281 14.9249531,17.5858125 C14.8814531,17.5879687 14.82675,17.5797187 14.7692813,17.5462969 C14.6433281,17.6611875 14.4527344,17.7653906 14.2316719,17.7209531 C14.16975,17.7614062 14.0766094,17.804625 13.9642969,17.8006406 C13.9148438,17.7984844 13.8507656,17.7856406 13.7838281,17.7457969 C13.7079844,17.8036875 13.6009219,17.8628437 13.4784844,17.8634531 C13.4775469,17.8634531 13.4766094,17.8634531 13.4758594,17.8634531 C13.4191875,17.8634531 13.3447031,17.8508906 13.2687188,17.8018594 C13.1953594,17.838 13.0939219,17.869875 12.984375,17.854875 C12.9358125,17.8478437 12.8745,17.8291406 12.8132344,17.7850312 C12.7321406,17.8362187 12.6246094,17.8793906 12.51675,17.8518281 C12.4785938,17.8420312 12.4194844,17.8169062 12.3712031,17.7537656 C12.3158906,17.7549844 12.2316094,17.7574219 12.1076719,17.7617344 C12.0464063,17.7638906 11.9880469,17.7289687 11.9609063,17.6725781 C11.9339063,17.6165156 11.9428125,17.5497187 11.9834063,17.5025156 C11.9834063,17.5025156 12.1184531,17.3455312 12.2346094,17.2101094 C12.0488906,17.2005469 11.8742344,17.1869531 11.7286406,17.1749531 C11.5755938,17.1627187 11.4444375,17.1486094 11.3820938,17.1538125 C11.2965938,17.1565781 11.2693125,17.1792656 11.2628906,17.1862969 C11.2653281,17.2478906 11.22825,17.3064375 11.1727969,17.334 C11.1502969,17.3453437 11.1254531,17.350875 11.1006563,17.350875 C11.0645156,17.350875 11.0285156,17.3389219 11.0001563,17.315625 C10.9089844,17.24025 10.844625,17.0949844 10.91925,16.9534219 C10.9940625,16.8110156 11.1783281,16.6074844 11.6234063,16.4014219 C11.6421094,16.3866094 11.6645156,16.3779844 11.688375,16.3732969 C11.737875,16.3515469 11.7870469,16.32975 11.8426875,16.3080937 C12.0977344,16.2088125 12.25875,16.1157187 12.4071094,16.025625 C10.7959219,15.9784687 9.452625,15.1933125 8.4999375,13.7274375 C8.451375,13.6527187 8.40501563,13.5779062 8.36053125,13.5033281 C8.34510938,13.4981719 8.3285625,13.4984062 8.31482813,13.4881406 C8.20978125,13.4093437 8.10975,13.317 8.01459375,13.2153281 C8.00695313,13.2300469 7.99725,13.243875 7.98482813,13.255875 C7.95464063,13.2849844 7.91545313,13.2999844 7.87575,13.2999844 C7.84645313,13.2999844 7.81692188,13.2917344 7.79085938,13.2751875 C7.7355,13.2396094 7.68,13.1955937 7.62454688,13.1525156 C7.79259375,13.3853906 7.9145625,13.5387187 7.91803125,13.5430312 C7.96139063,13.5969375 7.96415625,13.67325 7.92464063,13.73025 C7.90598438,13.7572031 7.8800625,13.777125 7.8508125,13.7878594 C8.035125,13.9469062 8.15690625,14.0425312 8.16014063,14.0449687 C8.22220313,14.0937187 8.23875,14.1807187 8.19876563,14.2484531 C8.191875,14.2604062 8.1834375,14.2708125 8.17425,14.28 C8.2245,14.2995937 8.27090625,14.3145937 8.31196875,14.3235 C8.35945313,14.333625 8.3994375,14.3651719 8.4204375,14.409 C8.44129688,14.4528281 8.44082813,14.5036875 8.41907813,14.5471875 C8.40529688,14.5744687 8.36929688,14.6280937 8.28473438,14.6767969 C8.37178125,14.7031406 8.45479688,14.7246094 8.52145313,14.735625 C8.58210938,14.7454219 8.63146875,14.7898594 8.6476875,14.8490156 C8.6638125,14.9084531 8.64389063,14.9715937 8.5966875,15.0111094 C8.592375,15.0144844 8.54460938,15.0537187 8.462625,15.0947812 C8.6795625,15.18975 8.93142188,15.2783437 9.11329688,15.282 C9.18792188,15.2835469 9.25101563,15.3371719 9.26451563,15.4103906 C9.27801563,15.4836094 9.23817188,15.5562656 9.16907813,15.5844375 C9.16064063,15.5878125 9.12665625,15.6009844 9.0675,15.615375 C9.51548438,15.8396719 10.2686719,16.13325 11.0505,16.0695 C11.1376875,16.0615312 11.2125938,16.1268281 11.2194844,16.2132187 C11.226375,16.2996562 11.161875,16.3753125 11.075625,16.3820625 C10.9926094,16.3888125 10.9100156,16.3918594 10.8283594,16.3918594 C9.58382813,16.3918594 8.51821875,15.6686719 8.47059375,15.6359062 C8.41340625,15.5963906 8.38889063,15.5240625 8.41035938,15.4582031 C8.4148125,15.4447031 8.42076563,15.4324687 8.428125,15.421125 C8.15376563,15.3083906 7.93190625,15.1812187 7.9155,15.1717031 C7.85235938,15.1355625 7.82264063,15.0601875 7.84378125,14.990625 C7.85784375,14.9440312 7.891875,14.9082187 7.934625,14.8907344 C7.75120313,14.8254844 7.60275,14.7642187 7.59079688,14.7592969 C7.51954688,14.7299062 7.4803125,14.6533125 7.4979375,14.5782187 C7.51589063,14.5034531 7.58835938,14.4507656 7.66204688,14.4577969 C7.72242188,14.4623906 7.77632813,14.4657656 7.8223125,14.463 C7.33509375,14.2144687 6.77235938,13.7940469 6.74142188,13.7710781 C6.67785938,13.7232656 6.65990625,13.6358906 6.69960938,13.5669844 C6.7393125,13.4980781 6.82448438,13.4698594 6.89695313,13.501125 L7.21471875,13.6365469 C6.98245313,13.4159062 6.72595313,13.1545312 6.49064063,12.8744531 C6.47104688,12.8514844 6.45923438,12.8367656 6.45632813,12.8331094 C6.40242188,12.7659844 6.41282813,12.6679687 6.479625,12.6134062 C6.54660938,12.5591719 6.64434375,12.5686406 6.69965625,12.6351562 C6.70579688,12.6425156 6.71189063,12.649875 6.71803125,12.6572344 C6.77517188,12.7246875 6.9721875,12.9480469 7.24017188,13.1545781 C6.91860938,12.6930937 6.50798438,12.0379687 6.3373125,11.4873281 C6.33454688,11.4785156 6.33576563,11.4697031 6.33459375,11.4608437 C6.33323438,11.4505312 6.33075,11.4404531 6.33133025,11.4303281 C6.33210938,11.42025 6.33553125,11.4112031 6.33810938,11.4015469 C6.34073438,11.3917031 6.342375,11.3817187 6.346875,11.3725312 C6.35114063,11.3638125 6.35765625,11.3567812 6.36346875,11.3489062 C6.36960938,11.3405625 6.37495313,11.3319375 6.38278125,11.3249062 C6.390375,11.3180625 6.39989063,11.31375 6.40884375,11.3084062 C6.41648438,11.3038594 6.42253125,11.2975781 6.4310625,11.2943437 C6.43275,11.2937344 6.4344375,11.2940156 6.436125,11.2935 C6.4378125,11.2928906 6.43898438,11.2914844 6.44071875,11.2909687 C6.44971875,11.2881562 6.45867188,11.2893281 6.46771875,11.2881562 C6.47751563,11.2868906 6.48707813,11.2844531 6.49678125,11.2851094 C6.50910938,11.2858125 6.5203125,11.2896562 6.53189063,11.2931719 C6.53939063,11.2954687 6.54703125,11.2965469 6.55410938,11.2999219 C6.565125,11.3051719 6.57421875,11.3129531 6.58373438,11.3205937 C6.5900625,11.3257031 6.59690625,11.3296875 6.6024375,11.3357812 C6.6103125,11.3443594 6.615375,11.3549531 6.62123438,11.3653594 C6.62507813,11.3721094 6.63075,11.3773125 6.63360938,11.3848125 C6.732,11.6419219 7.00945313,12.076125 7.34160938,12.453 C7.1325,12.0009844 6.90117188,11.4082031 6.80414063,10.836375 C6.80395313,10.8357656 6.80371875,10.834875 6.80353125,10.8341719 L6.80353125,10.8336094 C6.80292188,10.8299531 6.80170313,10.8262031 6.80109375,10.8225469 C6.79964063,10.813875 6.8019375,10.8058125 6.8019375,10.7973281 C6.80189063,10.7867812 6.80095313,10.7763281 6.80301563,10.7661562 C6.80503125,10.7562187 6.80939063,10.7475937 6.8131875,10.7384062 C6.81707813,10.7289844 6.820125,10.7194687 6.82570313,10.7109844 C6.8311875,10.7026406 6.83859375,10.6963125 6.84557813,10.6890937 C6.85265625,10.6818281 6.8589375,10.6742812 6.867375,10.6684687 C6.87595313,10.6625625 6.88598438,10.6593281 6.89578125,10.6551094 C6.90346875,10.6518281 6.90989063,10.6465781 6.91828125,10.6445156 C6.92029688,10.644 6.92226563,10.6446562 6.92428125,10.6442812 C6.92639063,10.6438594 6.92798438,10.6424062 6.93009375,10.6420781 C6.93970313,10.6403906 6.94860938,10.6428281 6.95798438,10.6429219 C6.96721875,10.6430625 6.97640625,10.6419375 6.9853125,10.6436719 C6.99820313,10.6460625 7.0095,10.6514062 7.021125,10.6567969 C7.02759375,10.6598437 7.03434375,10.6617656 7.04034375,10.6656562 C7.05075,10.6724062 7.059,10.6812656 7.06757813,10.6903125 C7.07310938,10.6960781 7.07910938,10.7009531 7.08375,10.7076094 C7.09026563,10.7170312 7.09401563,10.7279062 7.09842188,10.7387812 C7.10132813,10.7459062 7.10625,10.7517187 7.108125,10.7594062 C7.2028125,11.1436875 7.47164063,11.8815937 7.8575625,12.4907344 C7.56909375,11.787 7.46442188,11.2522969 7.45804688,11.2184531 C7.44196875,11.1332812 7.49789063,11.0514375 7.5830625,11.0352187 C7.66870313,11.0202187 7.75021875,11.0750625 7.76629688,11.1602344 C7.76859375,11.1725156 8.00728125,12.3975937 8.76829688,13.5647344 C9.7755,15.1094062 11.1769219,15.8304375 12.9345469,15.7032656 C12.9577031,15.7019062 12.9796875,15.7062187 13.000125,15.7138594 C13.05525,15.6914531 13.1104688,15.6689062 13.1754375,15.6463125 C13.7481563,15.4474219 14.3790938,15.3763594 14.5145156,15.3628594 C14.7734531,15.2491875 17.4324375,14.0130937 17.6332969,11.2497656 C17.6395781,11.164875 17.7166406,11.1066562 17.7964688,11.1042187 C17.8813594,11.1082031 17.9478281,11.178375 17.9466094,11.2632656 C17.9461875,11.2954219 17.9391094,11.7394219 17.9018906,12.2186719 C18.1050469,11.7887812 18.3252188,11.2810312 18.4329375,10.89525 C18.4562344,10.8122344 18.541875,10.7638125 18.6252188,10.7861719 C18.7084219,10.8088594 18.7577813,10.8943594 18.7357031,10.9777031 C18.7209844,11.0334844 18.51,11.8267969 18.2792813,12.5695781 C18.5270156,12.1887187 18.7723125,11.7839062 18.8909063,11.5069219 C18.8962969,11.4943594 18.8993438,11.487 18.8999531,11.4854531 C18.8999531,11.4854531 18.8999531,11.4854531 18.8999531,11.485125 C18.933375,11.4054844 19.0250156,11.3668594 19.105125,11.4005625 Z M11.7518437,16.6890469 C11.6372812,16.7425781 11.5433437,16.7943281 11.4703594,16.8419531 C11.5233281,16.8443906 11.590875,16.8495938 11.6654062,16.8555938 C11.6993906,16.7987813 11.7421406,16.7437031 11.7946875,16.6945781 L11.7518437,16.6890469 Z" id="Combined-Shape" fill="#FFE15A"></path>
                </g>
                <circle id="Oval" stroke="#FFFFFF" cx="12" cy="12" r="11.5"></circle>
            </g>
        </g>
    </g>
</svg>