<?xml version="1.0" encoding="UTF-8"?>
<svg width="24px" height="24px" viewBox="0 0 24 24" version="1.1" xmlns="http://www.w3.org/2000/svg" xmlns:xlink="http://www.w3.org/1999/xlink">
    <!-- Generator: Sketch 55.1 (78136) - https://sketchapp.com -->
    <title>Flags/slovenia</title>
    <desc>Created with Sketch.</desc>
    <g id="Icons" stroke="none" stroke-width="1" fill="none" fill-rule="evenodd">
        <g id="Flags/slovenia">
            <g id="slovenia">
                <path d="M23.3172324,8.00015625 L0.682767606,8.00015625 C2.33006912,3.33930514 6.77506631,0 12,0 C17.2249337,0 21.6699309,3.33930514 23.3172324,8.00015625 Z" id="Combined-Shape" fill="#F5F5F5" fill-rule="nonzero"></path>
                <path d="M0.682767606,15.9998437 L23.3172324,15.9998437 C21.6699309,20.6606949 17.2249337,24 12,24 C6.77506631,24 2.33006912,20.6606949 0.682767606,15.9998437 Z" id="Combined-Shape" fill="#FF4B55" fill-rule="nonzero"></path>
                <g id="Group" transform="translate(0.000000, 4.218750)" fill="#41479B" fill-rule="nonzero">
                    <path d="M0.682767606,3.78140625 L23.3172324,3.78140625 C23.7594031,5.0324778 24,6.37876669 24,7.78125 C24,9.18390847 23.759343,10.5303585 23.3170667,11.7815625 L0.682933289,11.7815625 C0.240656953,10.5303585 0,9.18390847 0,7.78125 C0,6.37876669 0.240596851,5.0324778 0.682767606,3.78140625 Z" id="Combined-Shape"></path>
                    <path d="M9.92854687,0.7246875 C9.92854687,0.7246875 9.801375,4.7761875 9.232875,5.91389062 C8.52914062,7.31226562 7.82165625,7.72017187 6.76898437,8.09709375 C5.71645312,7.7203125 5.00892187,7.31259375 4.30509375,5.91389062 C3.7366875,4.77604687 3.60928125,0.725015625 3.60937495,0.7246875 C5.61810937,-0.18234375 7.9198125,-0.18234375 9.92854687,0.7246875 Z" id="Shape"></path>
                </g>
                <g id="Group" transform="translate(4.734375, 7.031250)" fill="#F5F5F5" fill-rule="nonzero">
                    <path d="M2.94951563,3.53053125 C2.87254688,3.48117188 2.817,3.44582813 2.69067188,3.44582813 C2.56467188,3.44582813 2.509125,3.481125 2.43253125,3.53053125 C2.34478125,3.58640625 2.2355625,3.65634375 2.03259375,3.65634375 C1.82948437,3.65634375 1.72026562,3.58640625 1.63251563,3.53020313 C1.555875,3.48117188 1.50051563,3.445875 1.37451563,3.445875 C1.24851563,3.445875 1.19315625,3.48117188 1.11651563,3.53020313 C1.03359375,3.58335938 0.928734375,3.6466875 0.74653125,3.65376563 C1.13010938,4.12157812 1.53229687,4.3434375 2.03428125,4.5361875 C2.5359375,4.34348437 2.93803125,4.12171875 3.32170313,3.65395313 C3.13804688,3.64725 3.03271875,3.5835 2.94951563,3.53053125 Z" id="Shape"></path>
                    <path d="M0.459140625,2.782125 C0.53578125,2.83115625 0.590953125,2.86645313 0.716625,2.86645313 C0.842625,2.86645313 0.897984375,2.83115625 0.974625,2.782125 C1.062375,2.72592188 1.17159375,2.6559375 1.3745625,2.6559375 C1.57753125,2.6559375 1.68670312,2.725875 1.7745,2.78175 C1.85114063,2.83110938 1.9066875,2.86645313 2.03264063,2.86645313 C2.15864063,2.86645313 2.214,2.83115625 2.29064063,2.782125 C2.37839063,2.72592187 2.48760938,2.6559375 2.69071875,2.6559375 C2.89401562,2.6559375 3.003375,2.725875 3.09117188,2.78175 C3.16814063,2.83110937 3.2235,2.86645313 3.34982813,2.86645313 C3.47615625,2.86645313 3.53170313,2.83115625 3.60867188,2.78175 C3.68203125,2.73501562 3.77404687,2.68096875 3.91992187,2.663625 C3.95817187,2.56410937 3.99520312,2.45076562 4.02984375,2.313 L3.0875625,0.742546875 L2.73651562,1.4446875 L2.034375,0.04040625 L1.3321875,1.4446875 L0.981140625,0.742546875 L0.03946875,2.3120625 C0.073921875,2.44973438 0.11090625,2.56364063 0.14915625,2.66371875 C0.294375,2.68110938 0.38596875,2.73515625 0.459140625,2.782125 Z" id="Shape"></path>
                    <path d="M3.7501875,3.05328482 C3.6624375,3.14171212 3.55307812,3.25239461 3.34973437,3.25239461 C3.146625,3.25239461 3.03721875,3.14171212 2.94946875,3.05328482 C2.8725,2.97516909 2.81695312,2.91923437 2.690625,2.91923437 C2.564625,2.91923437 2.50907813,2.97509491 2.43248438,3.05328482 C2.34473437,3.14171212 2.23551563,3.25239461 2.03254687,3.25239461 C1.8294375,3.25239461 1.72021875,3.14171212 1.63246875,3.05269135 C1.55582813,2.97509491 1.50046875,2.91923437 1.37446875,2.91923437 C1.24846875,2.91923437 1.19310938,2.97509491 1.11646875,3.05269135 C1.02871875,3.14163794 0.9195,3.25239461 0.71653125,3.25239461 C0.51375,3.25239461 0.40471875,3.14171212 0.317109375,3.05269135 C0.3166875,3.05232043 0.316359375,3.05194951 0.315890625,3.0515044 C0.384703125,3.24913052 0.453515625,3.43073289 0.522046875,3.59542132 C0.573328125,3.63985752 0.626859375,3.66908601 0.716484375,3.66908601 C0.842484375,3.66908601 0.89784375,3.61322547 0.974484375,3.53562903 C1.06223438,3.44668245 1.17145312,3.33599995 1.37442187,3.33599995 C1.57739063,3.33599995 1.6865625,3.44668245 1.77435938,3.53510975 C1.851,3.61322547 1.90654688,3.66916019 2.0325,3.66916019 C2.1585,3.66916019 2.21385938,3.61329966 2.2905,3.53570322 C2.37825,3.44675663 2.48746875,3.33607414 2.69057813,3.33607414 C2.893875,3.33607414 3.00323437,3.44675663 3.09103125,3.53518393 C3.168,3.61329966 3.22335938,3.66923437 3.3496875,3.66923437 C3.44067188,3.66923437 3.49476563,3.63956078 3.54675,3.59416019 C3.61523438,3.42969432 3.68395313,3.24824031 3.75271875,3.05083675 C3.75192187,3.05165277 3.751125,3.05232043 3.7501875,3.05328482 Z" id="Shape"></path>
                </g>
                <g id="Group" transform="translate(5.437500, 4.875000)" fill="#FFE15A" fill-rule="nonzero">
                    <path d="M1.42546557,0.988967209 L1.50286993,1.20951919 L1.76064884,1.1576941 C1.77814435,1.15415006 1.79033818,1.17253795 1.77808544,1.18399186 L1.59771089,1.35271875 L1.77808544,1.52144564 C1.79033818,1.53289955 1.77820325,1.55128744 1.76064884,1.5477434 L1.50286993,1.49591831 L1.42546557,1.71647029 C1.42022281,1.73146824 1.39589404,1.73146824 1.39065128,1.71647029 L1.31324692,1.49591831 L1.05546801,1.5477434 C1.0379725,1.55128744 1.02577866,1.53289955 1.03803141,1.52144564 L1.21840595,1.35271875 L1.03803141,1.18399186 C1.02577866,1.17253795 1.03791359,1.15415006 1.05546801,1.1576941 L1.31324692,1.20951919 L1.39065128,0.988967209 C1.39589404,0.973969264 1.42022281,0.973969264 1.42546557,0.988967209 Z" id="Shape"></path>
                    <path d="M0.416153068,0.021605044 L0.49355743,0.242168352 L0.75133634,0.190340598 C0.768831846,0.18679638 0.781025684,0.205185217 0.768772939,0.216639716 L0.588398391,0.385375269 L0.768772939,0.554110823 C0.781025684,0.565565321 0.768890754,0.583954158 0.75133634,0.580409941 L0.49355743,0.528582186 L0.416153068,0.749145494 C0.410910307,0.76414421 0.386581538,0.76414421 0.381338777,0.749145494 L0.303934415,0.528582186 L0.0461555055,0.580409941 C0.0286599991,0.583954158 0.0164661612,0.565565321 0.0287189065,0.554110823 L0.209093455,0.385375269 L0.0287189065,0.216639716 C0.0164661612,0.205185217 0.0286010916,0.18679638 0.0461555055,0.190340598 L0.303934415,0.242168352 L0.381338777,0.021605044 C0.386581538,0.00665769365 0.410910307,0.00665769365 0.416153068,0.021605044 Z" id="Shape"></path>
                    <path d="M2.44209057,0.021605044 L2.51949493,0.242168352 L2.77727384,0.190340598 C2.79476935,0.18679638 2.80696318,0.205185217 2.79471044,0.216639716 L2.61433589,0.385375269 L2.79471044,0.554110823 C2.80696318,0.565565321 2.79482825,0.583954158 2.77727384,0.580409941 L2.51949493,0.528582186 L2.44209057,0.749145494 C2.43684781,0.76414421 2.41251904,0.76414421 2.40727628,0.749145494 L2.32987192,0.528582186 L2.07209301,0.580409941 C2.0545975,0.583954158 2.04240366,0.565565321 2.05465641,0.554110823 L2.23503095,0.385375269 L2.05465641,0.216639716 C2.04240366,0.205185217 2.05453859,0.18679638 2.07209301,0.190340598 L2.32987192,0.242168352 L2.40727628,0.021605044 C2.41251904,0.00665769365 2.43684781,0.00665769365 2.44209057,0.021605044 Z" id="Shape"></path>
                </g>
                <path d="M9.565125,4.79085938 C9.56723437,4.90279688 9.56910938,5.0158125 9.56910938,5.13773438 C9.5184375,6.40434375 9.33,9.16279688 8.91928125,9.99351563 C8.31379688,11.2095469 7.75471875,11.6114531 6.76898438,11.9819063 C5.78325,11.6115469 5.22426563,11.2097344 4.61915625,9.9945 C4.2069375,9.16054688 4.01714063,6.35526563 3.96871875,5.13782813 C3.96871875,5.01571875 3.9706875,4.90401563 3.97242188,4.79109375 C3.850875,4.83867188 3.730125,4.88901563 3.61054688,4.94296875 C3.61898438,5.18896875 3.68025,6.80259375 3.8641875,8.22145313 C3.96796875,9.0135 4.11070313,9.74353125 4.30514063,10.1326875 C5.00896875,11.5313906 5.7165,11.9391094 6.76903125,12.3158906 C7.82170313,11.9389219 8.5291875,11.5310625 9.23292188,10.1326875 C9.42735937,9.74357813 9.57014062,9.01354688 9.673875,8.22145313 C9.85776563,6.80264063 9.9189375,5.18896875 9.92742188,4.94296875 C9.80765625,4.888875 9.6868125,4.83848438 9.565125,4.79085938 Z" id="Shape" fill="#FF1722" fill-rule="nonzero"></path>
                <circle id="Oval" stroke="#FFFFFF" cx="12" cy="12" r="11.5"></circle>
            </g>
        </g>
    </g>
</svg>