<svg xmlns="http://www.w3.org/2000/svg" width="24" height="24" viewBox="0 0 24 24">
  <g fill="none" fill-rule="evenodd">
    <circle cx="12" cy="12" r="12" fill="#A8EF84"/>
    <path fill="#0089E9" d="M7.37764061,6.80046911 C7.37764061,6.89828302 7.27876492,6.99609693 7.27876492,7.09391084 L7.27876492,6.99609693 L7.17988922,7.09391084 C7.37764061,6.99609693 7.37764061,6.60484129 7.17988922,6.80046911 C7.17988922,6.80046911 7.08101353,6.89828302 7.08101353,6.80046911 C6.78438645,6.80046911 6.78438645,7.19172475 6.58663507,7.28953865 C6.38888369,7.38735256 6.68551076,6.99609693 6.78438645,6.80046911 C6.78438645,6.80046911 6.88326215,6.7026552 6.88326215,6.7026552 C6.88326215,6.7026552 7.17988922,6.7026552 7.17988922,6.7026552 C7.17988922,6.7026552 7.37764061,6.7026552 7.37764061,6.60484129 C7.57539199,6.60484129 7.77314338,6.60484129 7.57539199,6.89828302 C7.4765163,6.80046911 7.4765163,6.80046911 7.37764061,6.80046911 Z M7.08101353,7.38735256 C6.98213784,7.28953865 7.27876492,7.19172475 7.37764061,7.28953865 C7.4765163,7.19172475 7.4765163,7.19172475 7.57539199,7.19172475 C7.67426769,7.19172475 7.4765163,7.28953865 7.37764061,7.28953865 C7.27876492,7.28953865 7.17988922,7.38735256 7.08101353,7.38735256 Z M7.4765163,7.09391084 C7.57539199,6.89828302 7.97089476,7.09391084 7.97089476,6.89828302 C7.97089476,7.19172475 7.77314338,7.09391084 7.4765163,7.09391084 Z M7.08101353,6.21358565 C7.17988922,6.21358565 7.17988922,6.31139956 7.17988922,6.31139956 C7.17988922,6.40921347 7.27876492,6.50702738 7.17988922,6.50702738 C7.17988922,6.50702738 6.58663507,6.60484129 6.78438645,6.40921347 C6.78438645,6.40921347 6.68551076,6.40921347 6.68551076,6.50702738 C6.58663507,6.50702738 6.48775938,6.60484129 6.38888369,6.60484129 C6.38888369,6.50702738 6.38888369,6.50702738 6.38888369,6.50702738 C6.58663507,6.40921347 6.58663507,6.40921347 6.88326215,6.21358565 C6.98213784,6.21358565 6.88326215,6.21358565 7.08101353,6.21358565 Z M11.0360412,18.83158 C11.0360412,18.733766 11.0360412,18.733766 11.1349169,18.83158 C11.1349169,18.83158 11.1349169,18.9293939 11.0360412,19.0272078 C11.0360412,19.0272078 11.0360412,18.9293939 11.0360412,18.83158 Z M7.57539199,12.5714898 C7.37764061,12.5714898 7.4765163,12.4736758 7.4765163,12.3758619 C7.37764061,12.1802341 7.57539199,12.5714898 7.57539199,12.5714898 Z M1.93947753,9.44144466 C1.64285045,9.63707248 2.23610461,9.73488639 2.03835322,10.0283281 C2.13722891,9.93051421 2.3349803,10.6152116 2.3349803,10.126142 C2.13722891,9.93051421 2.23610461,9.53925857 2.03835322,9.24581684 C2.3349803,8.65893339 2.23610461,9.34363075 2.3349803,9.53925857 C2.82935876,10.4195838 3.02711015,11.9846063 4.41136984,11.5933507 C4.51024553,11.5933507 4.80687261,11.8867924 5.20237538,11.8867924 C5.49900245,12.3758619 5.79562953,12.6693037 6.29000799,12.8649315 C6.38888369,12.8649315 6.38888369,12.4736758 6.68551076,12.6693037 C7.27876492,13.354001 5.89450522,14.0386984 6.48775938,14.5277679 C5.59787815,14.9190236 6.98213784,15.7015349 7.08101353,16.3862322 C7.4765163,16.7774879 8.46527322,16.9731157 8.26752184,17.755627 C8.36639753,18.6359521 8.46527322,20.2009747 8.95965169,20.7878581 C8.7619003,20.3966025 9.05852738,20.6900442 9.05852738,20.8856721 C8.95965169,20.8856721 9.15740307,20.983486 9.15740307,20.983486 C9.25627876,21.2769277 9.15740307,20.983486 9.05852738,20.8856721 C9.05852738,21.0812999 9.05852738,20.8856721 9.15740307,21.0812999 C9.25627876,21.1791138 9.05852738,21.0812999 9.15740307,21.1791138 C9.05852738,21.3747416 9.35515446,21.2769277 9.35515446,21.4725555 C9.35515446,21.4725555 9.45403015,21.5703694 9.35515446,21.5703694 C9.05852738,21.2769277 9.45403015,21.8638111 9.45403015,21.8638111 C9.45403015,21.8638111 9.45403015,21.6681833 9.45403015,21.7659972 C9.45403015,21.8638111 9.55290584,21.8638111 9.45403015,21.8638111 C9.35515446,21.9616251 9.55290584,21.8638111 9.65178153,22.059439 C9.75065723,22.1572529 9.75065723,22.059439 9.84953292,22.1572529 C9.55290584,22.059439 10.0472843,22.3528807 10.14616,22.3528807 C10.3439114,22.3528807 10.0472843,22.2550668 10.0472843,22.2550668 C10.2450357,22.2550668 10.0472843,22.1572529 10.2450357,22.059439 C10.3439114,22.059439 10.14616,21.9616251 10.14616,21.8638111 C10.14616,21.7659972 10.14616,21.5703694 10.2450357,21.4725555 C10.2450357,21.2769277 9.84953292,21.2769277 9.94840861,21.0812999 C10.14616,21.0812999 10.0472843,20.7878581 10.0472843,20.6900442 C10.4427871,20.6900442 10.0472843,20.5922303 9.94840861,20.4944164 C10.14616,20.3966025 10.3439114,20.5922303 10.14616,20.2009747 C10.7394141,20.2987886 10.8382898,19.8097191 10.4427871,19.5162773 C11.0360412,19.907533 11.5304197,18.6359521 11.431544,18.0490687 C12.4203009,17.4621852 12.6180523,17.2665574 12.5191766,16.0927905 C13.7056849,15.1146514 12.6180523,14.3321401 11.6292954,14.3321401 C11.5304197,13.8430706 11.0360412,14.1365123 10.8382898,14.2343262 C11.1349169,13.9408845 10.8382898,13.9408845 10.7394141,13.9408845 C10.8382898,13.354001 10.2450357,12.9627454 9.65178153,12.9627454 C9.55290584,12.7671176 9.15740307,12.5714898 9.15740307,12.5714898 C9.25627876,12.3758619 8.95965169,12.4736758 8.86077599,12.278048 C8.46527322,12.3758619 8.16864615,12.3758619 7.77314338,12.0824202 C7.77314338,11.9846063 7.27876492,12.4736758 7.57539199,12.0824202 C7.77314338,11.7889785 7.37764061,12.0824202 7.37764061,12.0824202 C7.08101353,12.0824202 6.98213784,12.278048 6.78438645,12.5714898 C6.48775938,12.278048 6.29000799,12.5714898 5.89450522,12.4736758 C5.49900245,11.9846063 6.29000799,11.1042811 5.10349968,11.3977228 C5.00462399,11.202095 5.20237538,10.9086533 5.30125107,10.7130255 C5.59787815,9.63707248 3.91699138,11.9846063 3.81811568,10.4195838 C4.01586707,9.44144466 4.51024553,8.8545612 5.49900245,9.14800293 C5.40012676,9.05018902 5.49900245,9.05018902 5.40012676,9.05018902 C5.30125107,8.95237511 5.89450522,9.05018902 5.89450522,8.95237511 C5.99338092,9.14800293 6.1911323,8.95237511 6.29000799,9.05018902 C6.38888369,9.24581684 6.29000799,9.44144466 6.38888369,9.63707248 C6.88326215,10.4195838 6.48775938,9.14800293 6.78438645,8.95237511 C7.08101353,8.56111948 7.87201907,8.46330557 7.67426769,8.07204993 C7.77314338,8.07204993 7.77314338,7.97423602 7.67426769,7.87642211 C7.67426769,7.97423602 7.67426769,7.68079429 7.67426769,7.68079429 C7.67426769,7.7786082 7.67426769,7.87642211 7.57539199,7.97423602 C7.67426769,8.16986384 7.77314338,7.68079429 7.77314338,7.68079429 C7.87201907,7.68079429 8.06977046,7.38735256 8.26752184,7.38735256 C7.87201907,7.38735256 8.46527322,7.38735256 8.56414892,7.28953865 C8.56414892,6.89828302 10.2450357,6.50702738 9.35515446,6.89828302 C9.05852738,7.19172475 10.5416628,6.60484129 10.14616,6.50702738 C9.84953292,6.89828302 9.75065723,6.50702738 9.65178153,6.31139956 C9.45403015,6.31139956 10.14616,6.21358565 9.75065723,6.11577174 C8.36639753,6.80046911 9.35515446,5.92014392 10.14616,6.01795783 C10.3439114,6.11577174 11.3326683,5.72451611 11.0360412,5.52888829 C11.0360412,5.33326047 10.7394141,5.33326047 10.6405385,5.23544656 C10.6405385,5.23544656 10.6405385,5.23544656 10.5416628,5.23544656 C10.7394141,5.13763265 10.5416628,4.94200483 10.5416628,4.74637701 C10.4427871,4.45293528 10.2450357,5.13763265 9.84953292,4.84419092 C10.2450357,4.35512137 9.05852738,4.15949356 9.05852738,4.6485631 C8.86077599,4.74637701 9.05852738,5.23544656 8.46527322,5.23544656 C8.36639753,5.52888829 8.06977046,6.21358565 7.97089476,5.52888829 C8.36639753,5.33326047 7.57539199,5.13763265 7.37764061,5.03981874 C6.98213784,4.25730747 8.56414892,4.25730747 8.95965169,3.76823792 C9.15740307,3.86605183 9.05852738,3.86605183 9.15740307,3.76823792 L9.25627876,3.86605183 C9.45403015,3.76823792 9.55290584,3.5726101 9.65178153,3.47479619 C9.45403015,3.18135446 9.15740307,3.47479619 8.86077599,3.67042401 C8.66302461,3.67042401 8.95965169,3.37698228 8.7619003,3.47479619 C8.56414892,3.5726101 8.66302461,3.5726101 8.66302461,3.47479619 C8.56414892,3.37698228 8.66302461,3.27916837 8.7619003,3.27916837 C8.56414892,2.98572664 8.95965169,2.88791273 9.15740307,2.88791273 C9.05852738,2.59447101 8.16864615,3.18135446 8.36639753,3.47479619 C8.36639753,3.47479619 8.06977046,3.5726101 8.06977046,3.67042401 C8.16864615,3.37698228 7.77314338,3.5726101 7.57539199,3.5726101 C7.37764061,3.5726101 7.27876492,3.37698228 7.08101353,3.47479619 C6.88326215,3.5726101 7.27876492,3.47479619 7.08101353,3.5726101 C6.98213784,3.5726101 6.98213784,3.76823792 6.88326215,3.67042401 C6.98213784,3.37698228 6.1911323,3.67042401 6.58663507,3.47479619 C6.1911323,3.27916837 5.49900245,3.37698228 5.59787815,3.18135446 C5.59787815,3.08354055 5.40012676,3.27916837 5.30125107,3.18135446 C5.40012676,3.18135446 5.40012676,3.27916837 5.30125107,3.27916837 C8.95965169,0.0513093632 16.57308,0.344751091 19.0449723,3.5726101 C18.9460966,3.47479619 18.8472209,3.5726101 18.7483452,3.67042401 C18.7483452,3.76823792 19.143848,3.5726101 19.0449723,3.67042401 C18.9460966,3.67042401 18.6494695,3.96386574 18.7483452,4.06167965 C18.6494695,4.06167965 18.6494695,4.25730747 18.4517182,4.15949356 C18.4517182,4.25730747 18.2539668,4.25730747 18.3528425,4.25730747 C18.2539668,4.25730747 18.2539668,4.35512137 18.1550911,4.35512137 C18.1550911,4.45293528 18.1550911,4.55074919 18.2539668,4.74637701 C18.2539668,4.6485631 18.1550911,4.74637701 18.1550911,4.74637701 C18.2539668,4.74637701 18.2539668,5.03981874 18.5505938,4.84419092 C18.7483452,4.55074919 19.143848,5.03981874 19.0449723,5.23544656 C18.8472209,5.13763265 19.0449723,5.43107438 19.0449723,5.33326047 C18.9460966,5.43107438 19.2427237,5.43107438 19.143848,5.23544656 C19.2427237,5.13763265 19.6382265,5.33326047 19.6382265,5.03981874 C19.5393508,4.84419092 20.0337292,4.74637701 19.6382265,4.55074919 C19.3415994,4.35512137 19.9348535,3.67042401 20.0337292,4.06167965 C19.7371022,4.15949356 20.0337292,4.6485631 20.1326049,4.55074919 C20.2314806,4.74637701 20.5281077,4.45293528 20.6269834,4.6485631 C20.0337292,4.55074919 20.7258591,4.84419092 20.5281077,5.03981874 C20.0337292,4.74637701 20.3303563,5.23544656 20.2314806,5.43107438 C19.9348535,5.33326047 19.8359778,5.43107438 19.5393508,5.52888829 C19.4404751,5.43107438 19.3415994,5.43107438 19.2427237,5.52888829 C19.0449723,5.52888829 18.7483452,5.33326047 19.143848,5.43107438 C19.0449723,5.23544656 18.9460966,5.43107438 19.0449723,5.23544656 C18.8472209,4.94200483 18.6494695,5.33326047 18.8472209,5.43107438 C19.143848,5.72451611 18.6494695,5.6267022 18.5505938,5.6267022 C18.1550911,5.72451611 17.9573397,6.31139956 17.6607126,6.21358565 C17.5618369,6.21358565 17.6607126,6.40921347 17.4629612,6.31139956 C16.8697071,6.31139956 17.7595883,6.50702738 17.7595883,6.80046911 C17.858464,7.48516647 17.0674585,6.89828302 16.7708314,7.19172475 C16.57308,8.16986384 16.9685828,8.56111948 17.858464,8.07204993 C17.858464,7.58298038 18.3528425,7.48516647 18.3528425,7.19172475 C18.6494695,7.19172475 19.0449723,6.99609693 19.2427237,7.09391084 C19.4404751,7.48516647 20.2314806,7.48516647 20.1326049,8.07204993 C20.1326049,8.07204993 20.3303563,7.87642211 20.2314806,7.7786082 C19.9348535,7.58298038 20.5281077,7.7786082 20.429232,7.68079429 C20.1326049,7.38735256 19.3415994,7.28953865 19.5393508,6.80046911 C19.6382265,6.80046911 19.6382265,7.09391084 19.7371022,6.89828302 C19.9348535,7.19172475 20.5281077,7.38735256 20.6269834,7.7786082 C20.9236105,7.97423602 21.0224862,8.16986384 21.3191132,8.26767775 C21.1213618,7.97423602 21.5168646,8.07204993 21.4179889,7.97423602 C21.714616,8.16986384 20.9236105,7.58298038 21.2202375,7.68079429 C21.3191132,7.68079429 21.3191132,7.68079429 21.3191132,7.68079429 C21.1213618,7.48516647 21.714616,7.68079429 21.714616,7.68079429 C21.6157403,7.87642211 21.8134917,7.87642211 21.8134917,8.07204993 C21.5168646,7.87642211 21.9123674,8.07204993 21.8134917,8.16986384 C22.5056215,8.36549166 22.8022486,8.16986384 23,9.34363075 C22.7033729,9.24581684 22.4067458,9.44144466 22.1101188,9.34363075 C21.714616,9.34363075 21.0224862,8.75674729 21.1213618,9.44144466 C20.7258591,9.63707248 20.1326049,9.05018902 19.6382265,8.95237511 C19.7371022,8.75674729 19.7371022,8.65893339 19.6382265,8.56111948 C19.7371022,8.46330557 19.5393508,8.56111948 19.5393508,8.46330557 C18.8472209,8.36549166 18.2539668,8.65893339 17.6607126,8.75674729 C17.3640855,8.56111948 17.3640855,8.65893339 17.2652098,8.95237511 C17.2652098,8.95237511 16.6719557,9.34363075 16.8697071,9.53925857 C16.6719557,9.93051421 15.7820745,10.6152116 15.7820745,11.1042811 C16.0787015,11.3977228 15.5843231,11.9846063 15.8809502,12.3758619 C15.6831988,12.4736758 16.0787015,12.6693037 16.0787015,12.7671176 C16.57308,14.1365123 17.7595883,13.5496289 18.8472209,13.5496289 C19.0449723,13.6474428 18.9460966,13.9408845 19.2427237,13.8430706 C19.7371022,13.7452567 19.6382265,14.429954 19.4404751,14.6255819 C19.2427237,14.9190236 19.8359778,15.2124653 19.8359778,15.505907 C19.9348535,15.9949766 20.0337292,16.4840461 19.6382265,16.8753018 C19.3415994,17.9512548 19.9348535,19.1250217 19.8359778,20.0053469 C16.3122347,23.6270645 10.8399468,24.0877168 6.88326215,22.059439 C2.29110153,19.7054031 -0.428548532,14.137889 1.64285045,8.46330557 C2.03835322,8.56111948 1.74172615,9.14800293 1.93947753,9.44144466 Z M2.82935876,6.11577174 C2.82935876,6.11577174 2.82935876,6.11577174 2.82935876,6.21358565 C2.82935876,6.21358565 2.82935876,6.40921347 2.82935876,6.40921347 C2.82935876,6.40921347 2.82935876,6.40921347 2.82935876,6.50702738 C2.82935876,6.31139956 2.82935876,6.31139956 2.63160738,6.21358565 C2.73048307,6.11577174 2.82935876,5.92014392 2.82935876,6.11577174 Z M21.8134917,7.48516647 C21.8134917,7.48516647 21.8134917,7.58298038 21.6157403,7.48516647 C21.6157403,7.48516647 22.0112431,7.48516647 21.8134917,7.48516647 Z M21.714616,6.80046911 C21.714616,6.7026552 21.8134917,6.60484129 21.9123674,6.60484129 C22.0112431,6.80046911 22.2089945,7.09391084 22.3078702,7.38735256 C22.1101188,7.68079429 21.6157403,7.38735256 21.6157403,7.09391084 C21.6157403,6.99609693 21.6157403,6.80046911 21.714616,6.80046911 Z M22.8022486,9.44144466 C23,9.53925857 23,9.63707248 23,9.63707248 C22.9011243,9.63707248 22.8022486,9.53925857 22.8022486,9.44144466 Z"/>
    <path fill="#FFF" fill-rule="nonzero" d="M12,0 C5.372583,0 0,5.372583 0,12 C0,18.627417 5.372583,24 12,24 C18.627417,24 24,18.627417 24,12 C24,5.372583 18.627417,0 12,0 Z M12,0.96 C18.0972236,0.96 23.04,5.90277636 23.04,12 C23.04,18.0972236 18.0972236,23.04 12,23.04 C5.90277636,23.04 0.96,18.0972236 0.96,12 C0.96,5.90277636 5.90277636,0.96 12,0.96 Z"/>
  </g>
</svg>
