<svg xmlns="http://www.w3.org/2000/svg" width="24" height="24" viewBox="0 0 24 24">
  <g fill="none" fill-rule="evenodd">
    <circle cx="12" cy="12" r="11.8" fill="#0089E9"/>
    <path fill="#A8EF84" d="M12.9,10.8 C13.1,10.8 12.9,10.9 12.8,10.9 L12.8,10.9 C12.8,11 12.7,11.4 12.9,11.3 C12.9,11.1 12.8,11 13.1,10.9 C13,10.7 13.9,11.3 14.2,11.1 C14,11.1 14.7,11 14.5,11.1 C14.3,11.1 14.6,11.2 14.6,11.2 C14.8,11.2 14.9,11.4 14.7,11.4 C15,11.3 15.3,11.6 15.5,11.8 C15.6,11.8 16.1,11.7 16,11.9 C16.1,11.8 16.4,12 16.4,12.1 C16.5,12 16.6,12.5 16.7,12.5 C16.6,12.6 16,13.1 16.5,12.8 C16.6,13 16.8,13 16.9,12.9 L16.9,12.9 C16.9,12.7 17.2,12.8 17.3,12.9 C17.3,12.9 17.3,12.9 17.4,12.9 C17.4,12.9 17.4,12.9 17.5,12.9 C17.5,12.9 17.6,12.9 17.6,13 C17.7,13 17.5,13.1 17.6,13.1 C17.6,13.2 17.6,13.2 17.6,13.3 C18,13 19.4,13.4 19.4,14 C19.3,14.3 18.9,14.5 18.8,14.8 C18.6,14.7 18.7,15.4 18.7,15.6 C18.5,15.9 18.4,16.6 18,16.4 C17.7,16.5 17.2,16.7 17,16.9 C17.1,17.2 16.7,17.8 16.4,17.9 C16.5,17.9 16.8,17.6 16.5,17.6 C16.5,18.1 15.4,18.9 15.2,18.1 C15.1,18.5 15.9,18.8 15.2,19.1 C14.3,19 14.7,19.6 14.3,19.5 C13.9,19.3 14.1,19.9 14.4,19.7 C14.4,19.8 14,19.7 14.3,19.8 C12.9,21 14.8,20.2 13.6,21.2 C13.6,21.2 13.5,21.3 13.4,21.4 C13.5,21.4 13.5,21.5 13.4,21.5 L13.4,21.5 C13.4,21.5 13.5,21.5 13.5,21.5 C13.5,21.5 13.6,21.6 13.5,21.6 C13.3,21.6 12.9,22.2 12.9,21.8 C12.8,21.9 13,21.8 12.9,21.9 C13,21.8 13.1,21.7 12.9,21.8 L12.9,21.8 C12.9,21.8 12.8,21.8 12.9,21.9 C12.9,21.9 12.9,21.9 12.8,21.9 C12.8,21.9 12.7,21.8 12.8,21.9 C12.8,21.9 12.8,21.9 12.8,21.8 C12.8,21.8 12.8,21.8 12.8,21.8 C12.8,21.8 12.8,21.8 12.8,21.8 C12.7,21.8 12.8,21.8 12.8,21.7 C12.7,21.8 12.7,21.5 12.8,21.6 C12.8,21.6 12.7,21.5 12.8,21.6 C12.8,21.6 12.7,21.5 12.8,21.5 C12.8,21.5 12.8,21.5 12.8,21.5 C12.7,21.4 12.7,21.4 12.8,21.4 C12.8,21.3 12.8,21.4 12.7,21.4 C12.7,21.4 12.7,21.3 12.7,21.3 C12.7,21.3 12.7,21.3 12.6,21.3 C12.5,21.3 12.6,21.2 12.6,21.3 L12.6,21.3 C12.5,21.3 12.5,21.2 12.6,21.3 C12.5,21.3 12.5,21.2 12.6,21.2 C12.6,21.2 12.6,21.2 12.6,21.1 C12.6,21.1 12.5,21.2 12.5,21 C12.5,20.9 12.6,21 12.4,20.8 C12.4,20.8 12.5,20.8 12.5,20.9 C12.4,20.8 12.7,21 12.6,20.8 C12.6,20.8 12.6,20.8 12.6,20.8 C12.6,20.8 12.6,20.8 12.5,20.8 C12.5,20.8 12.4,20.8 12.4,20.8 C12.4,20.8 12.3,20.8 12.3,20.8 L12.3,20.8 C12.3,20.7 12.4,20.8 12.3,20.7 C12.4,20.7 12.4,20.6 12.3,20.6 C12.3,20.7 12.1,20.5 12.1,20.6 C12,20.5 12.2,20.5 12.2,20.5 C12.3,20.5 12.1,20.5 12.3,20.4 C12.3,20.4 12.3,20.4 12.3,20.4 C12.4,20.4 12.4,20.5 12.3,20.5 C12.3,20.5 12.4,20.5 12.3,20.5 C12.3,20.5 12.3,20.5 12.4,20.5 C12.4,20.5 12.4,20.5 12.4,20.6 C12.5,20.6 12.4,20.5 12.5,20.4 C12.4,20.4 12.5,20.3 12.6,20.4 C12.4,20.3 12.6,20.4 12.6,20.2 C12.5,20.2 12.6,19.7 12.7,19.8 C12.7,19.6 12.2,19.7 12.5,19.3 C12.4,18.9 12.6,18.7 12.7,18.4 C12.8,17.6 13.2,16.5 13,15.7 C12.7,15.3 12,15.3 11.9,14.8 C11.8,14.3 10.7,13.7 11.3,13.3 C11.3,13.3 11.4,13.1 11.3,13.2 C10.9,13.2 11.5,12.6 11.5,12.6 C11.8,12.4 11.9,12 11.7,11.7 C11.5,11.5 11.9,11.6 11.6,11.5 C11.3,11.3 11.3,11.9 11.2,11.7 C11.1,11.6 11,11.6 10.8,11.6 C10.8,11.2 10.9,11.6 11.2,11.5 C11.5,11.4 11.8,11.4 11.9,11.7 C11.9,11.8 11.9,11.6 11.9,11.6 C12.2,11.5 12.1,11.2 12.4,11.2 C12.4,11.1 12.8,10.9 12.9,10.8 Z M11.2,20.7 C11.5,20.9 11.5,21.5 11.9,21.6 C12,21.9 10.8,21.6 11,21.6 C10.9,21.6 10.9,21.6 10.8,21.6 C10.7,21.6 11.1,21.4 11,21.6 C11.2,21.6 11,21.5 11,21.5 C11,21.5 11.1,21.6 11.1,21.5 C11.1,21.6 11.1,21.4 11.3,21.6 C11.1,21.4 11.1,21.3 11.2,21.1 C11,21 11,21 11.1,20.8 C11.1,20.8 11.1,20.8 11.1,20.7 C11.2,20.8 11.1,20.7 11.2,20.7 Z M10.2,3.3 C10.8,3.7 11.8,3.3 11.5,4 C11.6,3.9 11.4,4.1 11.5,4.1 C11.6,4.1 11.7,4 11.6,4.1 L11.6,4.1 L11.6,4.1 C11.5,4 12,4 11.9,4.1 C12,4 12.1,4 12,4.1 C12.1,4.1 12.4,4 12.2,4.2 C12.4,4.1 12.3,4.2 12.3,4.2 C12.3,4.2 12.7,4.1 12.4,4.3 C12.5,4.3 12.6,4.3 12.4,4.4 C12.6,4.3 12.7,4.4 12.5,4.5 C12.7,4.5 12.7,4.6 12.5,4.6 C12.6,4.7 12.4,4.7 12.6,4.7 C12.8,4.8 12.7,4.7 12.7,4.8 C12.7,4.8 12.8,4.8 12.7,4.9 C12.8,4.9 13.2,5 13.1,5.1 C13.2,5 13,5 13.1,5.1 C12.8,5.4 12.7,4.9 12.6,5 C12.7,5.1 12.5,5 12.6,5.1 C12.7,5.1 13,5.5 12.8,5.3 C13,5.7 12.1,5.1 12.7,5.5 C12.3,5.5 12.1,5.1 12,5.2 C11.6,5.4 11.6,4.9 11.9,5.1 C12.8,4.9 11.8,4.2 11.1,4.4 C11.2,4.5 11.4,4.6 11.2,4.6 C11.5,5.3 10.8,4.8 11,5 C9.5,6.2 10.6,5.8 11.6,6.9 C11.9,6.7 11.5,5.5 12,5.5 C12.6,5.4 12.7,6 12.6,6.1 C12.7,6.1 12.7,6 12.7,6.1 C12.8,6 12.8,6 12.8,6.1 C13,6 12.8,5.5 13.1,6 C13.2,5.9 13.2,6.1 13.2,6.1 C13.3,6 13.4,6.3 13.3,6.3 C13.4,6.4 14,6.6 13.4,6.7 C14.6,6.7 13,7.2 12.5,7.3 C12.6,7.5 12.6,7 13,7.1 C12.7,7.3 13.5,7.5 13.2,7.6 C12.8,7.8 12.8,7.7 12.9,7.6 C13,7.3 12.1,8.2 12,8.2 C12,8.3 11.9,8.5 11.9,8.4 C11.8,8.1 11.9,8.5 11.8,8.3 C11.8,8.4 12,8.5 11.9,8.6 C11,10.3 12.1,8.8 10.3,9.2 C9.4,11 11.2,9.7 11,10.1 C10.6,10.7 11.6,10.2 11.3,10.8 C9.9,10.8 8.5,9.2 8.1,8.4 C7.8,8.6 7.8,7.4 8,7.4 C7.9,7.2 7.7,7 7.5,7.1 L7.5,7.1 C7.5,7.1 7.5,7.1 7.4,7.1 C7.4,7.1 7.5,7 7.4,7 C7.5,7 7.3,6.9 7.4,6.9 C7.4,6.9 7.3,6.8 7.3,6.8 C7.3,6.8 7.3,6.7 7.3,6.7 C7.3,6.7 7.1,6.4 6.9,6.1 C7,6.4 6.8,6 6.8,6.1 C7.1,6.3 6.2,5.9 6.4,5.9 C6,5.7 4.8,6.2 5.5,5.8 C5.3,5.8 4.8,6.6 4.4,6.5 C4.8,6.4 5.3,5.8 4.5,6.1 C4.3,5.9 4.5,5.8 4.3,5.9 C3.9,5.8 4.6,5.8 4.2,5.8 C3.9,5.6 4.6,5.6 4.6,5.4 C4.2,5.5 3.6,4.9 4.4,5.1 C4.6,5.1 4.4,5 4.5,5 C3.3,3.9 7.6,4.6 8.5,4.8 C8.7,4.9 8.3,4.9 8.7,4.9 C9.1,4.8 9.3,5.3 9.1,4.8 C9.4,4.7 10,4.9 10.2,4.8 C10.2,5.1 10.2,4.8 10.4,4.7 C10.8,4.7 9,4.2 9.8,4.2 C9.9,4.1 9.6,4 9.8,4.1 C9.6,3.9 9.9,4 9.8,3.9 C10.4,4 9.9,4 10.2,4.3 C10.3,4.2 10.6,4.5 10.4,4.6 C10.5,4.6 10.6,4.6 10.5,4.7 C10.6,4.7 10.6,4.9 10.6,4.8 C10.6,4.6 10.8,4.8 10.7,4.9 C10.8,5.2 11.1,4.7 10.9,4.7 L10.9,4.7 L10.9,4.7 C10.7,4.7 10.4,4.5 10.6,4.1 C10.2,4.4 10.4,3.7 10.1,3.7 C10.2,3.6 9.9,3.3 10.2,3.3 Z M12.2,10.2 C13,10.3 12.4,11 12.1,10.6 C12.1,10.6 12.3,10.6 12.2,10.2 Z M11.2,7.5 C10.7,7.6 10.9,8.4 11.1,7.6 C11.4,7.4 11.4,8 11.5,7.6 C11.8,7.8 11.3,7.5 11.2,7.5 Z M10.8,7.2 C10.7,7.2 10.7,7.2 10.8,7.2 C10,7.6 11.8,7.6 10.8,7.2 Z M9.1,3.9 C10.9,5.1 7.5,4.5 8.7,4.4 C7.6,4.3 8.4,3.9 8.9,4.1 C8.8,3.8 9.2,4.3 9.1,4.1 C9.1,4.1 9.1,3.9 9.1,3.9 Z M11.7,2.1 C11.9,1.9 14.2,2.2 12.5,2.3 C12.9,2.4 12.5,2.3 12.4,2.4 C13.2,2.1 12.5,2.5 12.3,2.6 C12.5,2.6 12.1,2.7 12,2.7 C12.3,2.8 12,2.8 11.9,2.8 C12.2,2.9 11.9,2.8 11.7,2.8 C11.9,2.8 11.8,2.8 11.7,2.9 C11.8,2.9 12.1,3 11.8,3 C12,3 11.5,3.3 11.4,3.2 C12.4,3.4 10.2,3.5 11,3.1 C10.7,2.9 11.5,3.2 11.4,3 C11.1,3.3 11.1,3 11.2,3 C11.2,2.9 10.9,3.1 10.9,3 C10.9,2.8 11.4,3 11.3,2.9 C11.7,2.9 10.9,2.8 11.2,2.8 C10.7,2.4 11.3,2.6 11.5,2.7 C11.2,2.6 11.4,2.6 11.7,2.5 C11.5,2.5 11.8,2.4 11.8,2.4 C11.7,2.4 11.5,2.4 11.7,2.3 C11.6,2.3 11.1,2.7 11.3,2.4 C11.4,2.3 11.2,2.4 11.2,2.4 C11.1,2.5 10.9,2.5 11,2.4 C10.9,2.4 10.6,2.5 10.8,2.3 C10.9,2.3 11.2,2.2 10.9,2.2 C10.6,2.3 10.5,2.2 10.7,2.1 C10.2,2.1 10.8,1.9 11.3,2 C11.7,2.1 10.9,1.9 11.2,1.9 C11.6,1.9 11.5,2.1 11.7,2.1 Z M10.4,2.5 C12,3 9.8,3.2 10.6,2.9 L10.5,2.9 L10.5,2.9 C10.6,2.9 9.8,2.8 10.3,2.7 C10,2.7 10.2,2.6 10.2,2.6 C9.9,2.5 10.4,2.5 10.4,2.5 C10.3,2.5 10.3,2.5 10.4,2.5 Z"/>
    <path fill="#FFF" fill-rule="nonzero" d="M12,0 C5.372583,0 0,5.372583 0,12 C0,18.627417 5.372583,24 12,24 C18.627417,24 24,18.627417 24,12 C24,5.372583 18.627417,0 12,0 Z M12,0.96 C18.0972236,0.96 23.04,5.90277636 23.04,12 C23.04,18.0972236 18.0972236,23.04 12,23.04 C5.90277636,23.04 0.96,18.0972236 0.96,12 C0.96,5.90277636 5.90277636,0.96 12,0.96 Z"/>
  </g>
</svg>
