<?xml version="1.0" encoding="UTF-8"?>
<svg width="24px" height="24px" viewBox="0 0 24 24" version="1.1" xmlns="http://www.w3.org/2000/svg" xmlns:xlink="http://www.w3.org/1999/xlink">
    <!-- Generator: Sketch 55.1 (78136) - https://sketchapp.com -->
    <title>Flags/bolivia</title>
    <desc>Created with Sketch.</desc>
    <g id="Icons" stroke="none" stroke-width="1" fill="none" fill-rule="evenodd">
        <g id="Flags/bolivia">
            <g id="bolivia" transform="translate(0.000000, -0.000000)">
                <path d="M24,11.9766082 C24,10.5122807 23.7380117,9.10877193 23.251462,7.8128655 L12.0233918,7.28888889 L0.795321637,7.8128655 C-0.203276232,10.4988831 -0.203276232,13.4543332 0.795321637,16.1403509 L12.0233918,16.6643275 L23.251462,16.1403509 C23.7380117,14.8444444 24,13.4409357 24,11.9766082 Z" id="Path" fill="#FFDA44" fill-rule="nonzero"></path>
                <path d="M12.0233918,23.9532164 C17.0314619,23.9526051 21.5103752,20.8360279 23.251462,16.1403509 L0.795321637,16.1403509 C2.53640847,20.8360279 7.01532174,23.9526051 12.0233918,23.9532164 Z" id="Path" fill="#6DA544" fill-rule="nonzero"></path>
                <path d="M0.895322,7.812866 L23.151462,7.812866 C21.4245947,3.23896569 16.9858643,0.203941 12.023392,0.203941 C7.06091973,0.203941 2.62218927,3.23896569 0.895322,7.812866 Z" id="Path" fill="#D80027" fill-rule="nonzero"></path>
                <circle id="Oval" stroke="#FFFFFF" cx="12" cy="12" r="11.5"></circle>
                <path d="M11.1842344,8.41954688 C11.1842344,8.41954688 11.1679688,8.43989063 11.1375,8.478 C11.1120938,8.51315625 11.0739375,8.56734375 11.0323125,8.63929688 C10.9503281,8.7823125 10.8643594,9.00403125 10.8620625,9.26835938 C10.8612188,9.39721875 10.8878438,9.5536875 10.9318125,9.67814063 C10.9794844,9.81548438 11.0585156,9.946875 11.1585,10.0642031 C11.258625,10.1826094 11.3923125,10.273875 11.5352813,10.3412813 C11.6062031,10.3772813 11.6840156,10.3979531 11.7612656,10.4170313 C11.7995625,10.4287031 11.8402969,10.4293125 11.8795781,10.437 C11.8993125,10.44075 11.91975,10.4390625 11.9397656,10.4406094 L11.9699063,10.4419688 L11.9849531,10.4427188 L11.9925,10.4431406 L11.99625,10.4433281 L11.998125,10.4434219 C11.9920313,10.4436094 12.0143906,10.4430938 11.9849531,10.4438906 C12.0338906,10.4410313 12.0932813,10.4406563 12.1336406,10.4357813 C12.1688438,10.4275781 12.1984688,10.4290313 12.2387813,10.4170313 C12.3160313,10.3979531 12.3938438,10.3772813 12.4647656,10.3412813 C12.6077344,10.273875 12.7414688,10.1825625 12.8415469,10.0642031 C12.9414844,9.946875 13.0205625,9.81553125 13.0682344,9.67814063 C13.1138438,9.53835938 13.1382188,9.40471875 13.1378906,9.26779688 C13.1356875,9.00464063 13.049625,8.782125 12.9676875,8.63929688 C12.9262969,8.567625 12.888,8.51310938 12.8607656,8.47640625 C12.8324531,8.44021875 12.8173594,8.42090625 12.8173594,8.42090625 L12.8135625,8.41607813 C12.786375,8.38134375 12.7924688,8.33109375 12.82725,8.30390625 C12.8546719,8.2824375 12.8918906,8.28182813 12.9196406,8.29954688 C12.9196406,8.29954688 12.9429375,8.3145 12.9866719,8.34253125 C13.0280156,8.37351563 13.0920938,8.41748438 13.1611406,8.48840625 C13.2997031,8.6255625 13.4796094,8.87001563 13.5444844,9.22523438 C13.5765938,9.39520313 13.5801094,9.60084375 13.5358125,9.80301563 C13.492875,10.0072031 13.4058281,10.2183281 13.26525,10.4031094 C13.1272031,10.5886875 12.9416719,10.7528438 12.7210781,10.8635625 C12.6123281,10.9215938 12.4938281,10.9637344 12.3723281,10.9930313 C12.3141094,11.0101406 12.2401875,11.0172188 12.1743281,11.0275781 C12.1126406,11.034375 12.0687656,11.0345156 12.0150469,11.0382656 L11.9941406,11.0383594 L11.9882813,11.0380781 L11.9765625,11.0375156 L11.9530781,11.0363438 L11.9061563,11.0338125 C11.8749375,11.0312813 11.8435313,11.03175 11.8125469,11.0263594 C11.7508125,11.0154844 11.6879531,11.0104219 11.6277188,10.9929844 C11.5062188,10.9636406 11.3877188,10.9215469 11.2789688,10.8635156 C11.058375,10.7527969 10.8728438,10.5886406 10.7347969,10.4030625 C10.5942188,10.2182813 10.5071719,10.0071094 10.4642344,9.80296875 C10.4182969,9.58546875 10.4240625,9.40260938 10.4556094,9.224625 C10.5203906,8.87057813 10.7003906,8.62528125 10.8389063,8.48835938 C10.9077188,8.41771875 10.9719844,8.37342188 11.0151094,8.34089063 C11.0566406,8.31478125 11.0788125,8.30085938 11.0788125,8.30085938 C11.1164531,8.27723438 11.1660938,8.28857813 11.1897656,8.32617188 C11.2084219,8.35598438 11.2049531,8.39357813 11.1842344,8.41954688 Z" id="Shape" fill="#73AF00" fill-rule="nonzero"></path>
                <path d="M12.2738906,14.7091406 L12.2738906,15.7087031 C12.2738906,15.8084063 11.9889992,15.858375 11.8224064,15.787875 L11.6924772,15.7328906 C11.5844799,15.6871875 11.5238906,15.6252188 11.5238906,15.560625 L11.5238906,14.7091875 L12.2738906,14.7091875 L12.2738906,14.7091406 L12.2738906,14.7091406 Z" id="Shape" fill="#FF4B55" fill-rule="nonzero"></path>
                <path d="M11.365125,14.5504219 L11.365125,15.2759062 C11.365125,15.3195469 11.4470801,15.3613594 11.5928273,15.3922031 L12.115125,15.5027344 L12.115125,14.550375 L11.365125,14.550375 L11.365125,14.5504219 Z" id="Shape" fill="#FFE15A" fill-rule="nonzero"></path>
                <path d="M11.2064063,14.5504219 L11.2064063,15.0103887 C11.2064063,15.0760586 11.3107329,15.1390155 11.4963501,15.1854163 L11.9564063,15.3004219 L11.9564063,14.5504772 L11.2064063,14.5504772 L11.2064063,14.5504219 Z" id="Shape" fill="#73AF00" fill-rule="nonzero"></path>
                <path d="M12.1587188,14.7091406 L12.1587188,15.7087031 C12.1587188,15.8084063 12.4436102,15.858375 12.610203,15.787875 L12.7401321,15.7328906 C12.8481295,15.6871875 12.9087188,15.6252188 12.9087188,15.560625 L12.9087188,14.7091875 L12.1587188,14.7091875 L12.1587188,14.7091406 Z" id="Shape" fill="#FF4B55" fill-rule="nonzero"></path>
                <path d="M13.2262031,14.5504219 L13.2262031,15.2759062 C13.2262031,15.3195469 13.144248,15.3613594 12.9985008,15.3922031 L12.4762031,15.5027344 L12.4762031,14.550375 L13.2262031,14.550375 L13.2262031,14.5504219 L13.2262031,14.5504219 Z" id="Shape" fill="#FFE15A" fill-rule="nonzero"></path>
                <path d="M13.3849219,14.5504219 L13.3849219,15.0103887 C13.3849219,15.0760586 13.2805952,15.1390155 13.094978,15.1854163 L12.6349219,15.3004219 L12.6349219,14.5504772 L13.3849219,14.5504772 L13.3849219,14.5504219 Z" id="Shape" fill="#73AF00" fill-rule="nonzero"></path>
                <path d="M12.7936406,11.6933906 L14.5395937,10.4235937 L14.5395937,13.0348594 C14.5395937,13.7842031 13.9321406,14.3916562 13.1827969,14.3916562 L13.1827969,14.3916562 C12.9285,14.3916562 12.6793125,14.3201719 12.4636875,14.1854062 L11.5238906,13.5980156 L11.5238906,11.6713125 L12.7936406,11.6933906 Z" id="Shape" fill="#FF4B55" fill-rule="nonzero"></path>
                <path d="M13.9046719,10.8853594 L13.9046719,12.7174219 C13.9046719,13.4667656 13.2972187,14.0742188 12.547875,14.0742188 C12.4352344,14.0742188 12.3240937,14.0579531 12.2159062,14.0305781 L11.5238437,13.5980156 L11.5238437,11.6713125 L12.7936406,11.6933438 L13.9046719,10.8853594 Z" id="Shape" fill="#FFE15A" fill-rule="nonzero"></path>
                <path d="M13.4285156,11.2316719 L13.4285156,12.4144219 C13.4285156,13.1637656 12.8210625,13.7712187 12.0717187,13.7712187 C11.9590781,13.7712187 11.8479375,13.7549531 11.73975,13.7275781 L11.5238437,13.592625 L11.5238437,11.6713125 L12.7936406,11.6933437 L13.4285156,11.2316719 Z" id="Shape" fill="#73AF00" fill-rule="nonzero"></path>
                <polygon id="Shape" fill="#F5F5F5" fill-rule="nonzero" points="14.6347969 10.2012326 15.3331875 9.78871875 14.8252969 10.5387188 14.5395937 10.5387188"></polygon>
                <path d="M13.7459531,12.4870312 L15.4919062,11.2172344 L15.4919062,13.8285 C15.4919062,14.5778437 14.8844531,15.1852969 14.1351094,15.1852969 L14.1351094,15.1852969 C13.8808125,15.1852969 13.631625,15.1138125 13.416,14.9790469 L12.4762031,14.3916562 L12.4762031,12.465 L13.7459531,12.4870312 Z" id="Shape" fill="#FF4B55" fill-rule="nonzero"></path>
                <path d="M14.380875,12.0253125 L14.380875,13.2080625 C14.380875,13.9574062 13.7734219,14.5648594 13.0240781,14.5648594 C12.9114375,14.5648594 12.8002969,14.5485937 12.6921094,14.5212187 L12.4762031,14.3862656 L12.4762031,12.465 L13.746,12.4870312 L14.380875,12.0253125 Z" id="Shape" fill="#73AF00" fill-rule="nonzero"></path>
                <polygon id="Shape" fill="#F5F5F5" fill-rule="nonzero" points="15.5871562 10.9948483 16.2855469 10.5823594 15.7776094 11.3323594 15.4919062 11.3323594"></polygon>
                <path d="M13.2697969,12.1695937 L15.01575,10.8997969 L15.01575,13.5110625 C15.01575,14.2604062 14.4082969,14.8678594 13.6589531,14.8678594 L13.6589531,14.8678594 C13.4046563,14.8678594 13.1554688,14.796375 12.9398438,14.6616094 L12,14.0742656 L12,12.1475625 L13.2697969,12.1695937 Z" id="Shape" fill="#FF4B55" fill-rule="nonzero"></path>
                <path d="M14.380875,11.3615625 L14.380875,13.193625 C14.380875,13.9429688 13.7734219,14.5504219 13.0240781,14.5504219 C12.9114375,14.5504219 12.8002969,14.5341563 12.6921094,14.5067813 L12,14.0742656 L12,12.1475625 L13.2697969,12.1695938 L14.380875,11.3615625 Z" id="Shape" fill="#FFE15A" fill-rule="nonzero"></path>
                <path d="M13.9046719,11.7078281 L13.9046719,12.8905781 C13.9046719,13.6399219 13.2972187,14.247375 12.547875,14.247375 C12.4352344,14.247375 12.3240937,14.2311094 12.2159062,14.2037344 L12,14.0688281 L12,12.1475156 L13.2697969,12.1695469 L13.9046719,11.7078281 Z" id="Shape" fill="#73AF00" fill-rule="nonzero"></path>
                <polygon id="Shape" fill="#F5F5F5" fill-rule="nonzero" points="15.111 10.6774108 15.8093437 10.2649219 15.3014531 11.0149219 15.01575 11.0149219"></polygon>
                <path d="M11.2064063,11.6933906 L9.46045312,10.4235937 L9.46045312,13.0348594 C9.46045312,13.7842031 10.0679063,14.3916562 10.81725,14.3916562 L10.81725,14.3916562 C11.0715469,14.3916562 11.3207344,14.3201719 11.5363594,14.1854062 L12.4761562,13.5980156 L12.4761562,11.6713125 L11.2064063,11.6933906 Z" id="Shape" fill="#FF4B55" fill-rule="nonzero"></path>
                <path d="M10.0953281,10.8853594 L10.0953281,12.7174219 C10.0953281,13.4667656 10.7027813,14.0742188 11.452125,14.0742188 C11.5647656,14.0742188 11.6759063,14.0579531 11.7840938,14.0305781 L12.4761562,13.5980156 L12.4761562,11.6713125 L11.2063594,11.6933438 L10.0953281,10.8853594 Z" id="Shape" fill="#FFE15A" fill-rule="nonzero"></path>
                <path d="M10.5714844,11.2316719 L10.5714844,12.4144219 C10.5714844,13.1637656 11.1789375,13.7712187 11.9282812,13.7712187 C12.0409219,13.7712187 12.1520625,13.7549531 12.26025,13.7275781 L12.4761563,13.592625 L12.4761563,11.6713125 L11.2063594,11.6933437 L10.5714844,11.2316719 Z" id="Shape" fill="#73AF00" fill-rule="nonzero"></path>
                <polygon id="Shape" fill="#F5F5F5" fill-rule="nonzero" points="9.36520313 10.2012326 8.6668125 9.78871875 9.17475 10.5387188 9.46045313 10.5387188"></polygon>
                <path d="M10.2540469,12.4870312 L8.50809375,11.2172344 L8.50809375,13.8285 C8.50809375,14.5778437 9.11554687,15.1852969 9.86489062,15.1852969 L9.86489062,15.1852969 C10.1191875,15.1852969 10.368375,15.1138125 10.584,14.9790469 L11.5237969,14.3916562 L11.5237969,12.465 L10.2540469,12.4870312 Z" id="Shape" fill="#FF4B55" fill-rule="nonzero"></path>
                <path d="M9.61917187,12.0253125 L9.61917187,13.2080625 C9.61917187,13.9574062 10.226625,14.5648594 10.9759687,14.5648594 C11.0886094,14.5648594 11.19975,14.5485937 11.3079375,14.5212187 L11.5238437,14.3862656 L11.5238437,12.465 L10.2540469,12.4870312 L9.61917187,12.0253125 Z" id="Shape" fill="#73AF00" fill-rule="nonzero"></path>
                <polygon id="Shape" fill="#F5F5F5" fill-rule="nonzero" points="8.41289062 10.9948483 7.7145 10.5823594 8.22239062 11.3323594 8.50809375 11.3323594"></polygon>
                <path d="M10.73025,12.1695937 L8.98429688,10.8997969 L8.98429688,13.5110625 C8.98429688,14.2604062 9.59175,14.8678594 10.3410938,14.8678594 L10.3410938,14.8678594 C10.5953906,14.8678594 10.8445781,14.796375 11.0602031,14.6616094 L12,14.0742656 L12,12.1475625 L10.73025,12.1695937 Z" id="Shape" fill="#FF4B55" fill-rule="nonzero"></path>
                <path d="M9.61917187,11.3615625 L9.61917187,13.193625 C9.61917187,13.9429688 10.226625,14.5504219 10.9759687,14.5504219 C11.0886094,14.5504219 11.19975,14.5341563 11.3079375,14.5067813 L12,14.0742656 L12,12.1475625 L10.7302031,12.1695938 L9.61917187,11.3615625 Z" id="Shape" fill="#FFE15A" fill-rule="nonzero"></path>
                <path d="M10.0953281,11.7078281 L10.0953281,12.8905781 C10.0953281,13.6399219 10.7027812,14.247375 11.452125,14.247375 C11.5647656,14.247375 11.6759062,14.2311094 11.7840937,14.2037344 L12,14.0687812 L12,12.1474687 L10.7302031,12.1695 L10.0953281,11.7078281 Z" id="Shape" fill="#73AF00" fill-rule="nonzero"></path>
                <g id="Group" transform="translate(9.609375, 10.593750)" fill="#FFBE5A" fill-rule="nonzero">
                    <path d="M0.312046875,3.93571875 L0.102796875,3.72646875 C-0.02409375,3.59957812 -0.020671875,3.39276563 0.110390625,3.2701875 L3.57445312,0.015140625 L4.023375,0.4640625 L0.768328125,3.928125 C0.645703125,4.0591875 0.4389375,4.06265625 0.312046875,3.93571875 Z" id="Shape"></path>
                    <path d="M0.78935353,4.09482443 C0.694794876,4.53155852 0.143939499,4.53155852 0.0493808448,4.09482443 C0.0426959684,4.0639297 0.0426959684,4.0308203 0.0493808448,3.99992557 C0.143939499,3.56319148 0.694794876,3.56319148 0.78935353,3.99992557 C0.796038407,4.0308203 0.796038407,4.0639297 0.78935353,4.09482443 Z" id="Shape"></path>
                </g>
                <circle id="Oval" fill="#F5F5F5" fill-rule="nonzero" transform="translate(13.520215, 10.639752) rotate(-135.000000) translate(-13.520215, -10.639752) " cx="13.5202149" cy="10.639752" r="1"></circle>
                <g id="Group" transform="translate(10.359375, 10.593750)" fill="#FFBE5A" fill-rule="nonzero">
                    <path d="M3.71925,3.93571875 L3.9285,3.72646875 C4.05539063,3.59957812 4.05196875,3.39276563 3.92090625,3.2701875 L0.45684375,0.015140625 L0.007921875,0.4640625 L3.26296875,3.928125 C3.38554688,4.0591875 3.59235938,4.06265625 3.71925,3.93571875 Z" id="Shape"></path>
                    <path d="M3.66583397,4.09482443 C3.76039262,4.53155852 4.311248,4.53155852 4.40580666,4.09482443 C4.41249153,4.0639297 4.41249153,4.0308203 4.40580666,3.99992557 C4.311248,3.56319148 3.76039262,3.56319148 3.66583397,3.99992557 C3.65914909,4.0308203 3.65914909,4.0639297 3.66583397,4.09482443 Z" id="Shape"></path>
                </g>
                <circle id="Oval" fill="#F5F5F5" fill-rule="nonzero" transform="translate(10.785411, 10.946043) rotate(-45.000000) translate(-10.785411, -10.946043) " cx="10.785411" cy="10.9460427" r="1"></circle>
                <ellipse id="Oval" fill="#FFBE5A" fill-rule="nonzero" cx="12" cy="12.7251563" rx="1.4034375" ry="1.66659375"></ellipse>
                <polygon id="Shape" fill="#FF4B55" fill-rule="nonzero" points="12 11.2172344 12.0744844 11.5405312 12.24525 11.2560937 12.2161875 11.5866094 12.4665 11.3688281 12.3367031 11.6741719 12.6420469 11.544375 12.4242656 11.7946875 12.7547812 11.765625 12.4702969 11.9363906 12.7936406 12.010875 12.4702969 12.0853594 12.7547812 12.2560781 12.4242656 12.2270156 12.6420469 12.4773281 12.3367031 12.3475781 12.4665 12.6529219 12.2161875 12.4351406 12.24525 12.7656094 12.0744844 12.4811719 12 12.8044687 11.9255156 12.4811719 11.75475 12.7656094 11.7838594 12.4351406 11.5335469 12.6529219 11.6632969 12.3475781 11.3579531 12.4773281 11.5757344 12.2270156 11.2452188 12.2560781 11.5297031 12.0853594 11.2064063 12.010875 11.5297031 11.9363906 11.2452188 11.765625 11.5757344 11.7946875 11.3579531 11.544375 11.6632969 11.6741719 11.5335469 11.3688281 11.7838594 11.5866094 11.75475 11.2560937 11.9255156 11.5405312"></polygon>
                <path d="M13.7558906,12.6953437 C13.7558906,12.6953437 13.2301406,12.8342344 12.8878594,12.5465625 C12.5075156,12.226875 12.2222812,12.0758906 12.1001719,12.0191719 C12.0583125,11.9997187 12.0115312,11.9997656 11.969625,12.0190781 C11.8820625,12.0594844 11.7209531,12.14325 11.5784063,12.2688281 C11.3700938,12.4523437 10.73025,12.8144531 10.60125,12.8144531 L10.60125,13.6035 L11.608125,14.4760781 L12.7985625,14.4413437 L13.7558906,12.6953437 Z" id="Shape" fill="#73AF00" fill-rule="nonzero"></path>
                <path d="M12,14.7885 C10.9935,14.7885 10.1746875,13.8628125 10.1746875,12.7251094 C10.1746875,11.5874062 10.9935,10.6617187 12,10.6617187 C13.0065,10.6617187 13.8253125,11.5874062 13.8253125,12.7251094 C13.8253125,13.8628125 13.0065,14.7885 12,14.7885 Z M12,11.137875 C11.2560469,11.137875 10.6508437,11.8499531 10.6508437,12.7251094 C10.6508437,13.6002656 11.2560937,14.3123437 12,14.3123437 C12.7439531,14.3123437 13.3491562,13.6002656 13.3491562,12.7251094 C13.3491562,11.8499531 12.7439531,11.137875 12,11.137875 Z" id="Shape" fill="#3CC8FF" fill-rule="nonzero"></path>
                <g id="Group" transform="translate(10.218750, 12.703125)" fill="#FFBE5A" fill-rule="nonzero">
                    <path d="M1.7245947,1.6666926 L1.79974028,1.90270901 L2.03726479,1.90460811 C2.06798785,1.90481912 2.08078073,1.94596638 2.05600082,1.96506292 L1.86491346,2.11287651 L1.93653345,2.35005349 C1.94580073,2.38075567 1.91245866,2.40618256 1.88737655,2.38740253 L1.69407311,2.24275412 L1.50076966,2.38740253 C1.47578828,2.40618256 1.44234548,2.38075567 1.45161276,2.35005349 L1.52323275,2.11287651 L1.33214539,1.96506292 C1.30736548,1.94596638 1.32015836,1.90481912 1.35088142,1.90460811 L1.58840593,1.90270901 L1.66355151,1.6666926 C1.67362464,1.63620143 1.71492449,1.63620143 1.7245947,1.6666926 Z" id="Shape"></path>
                    <path d="M1.22842283,1.45341135 L1.30356841,1.68942776 L1.54109292,1.69132686 C1.57181598,1.69153787 1.58460886,1.73268513 1.55982895,1.75178167 L1.36874159,1.89959526 L1.44036157,2.13677224 C1.44962886,2.16747442 1.41628678,2.19290131 1.39120468,2.17412128 L1.19790123,2.02947287 L1.00459778,2.17412128 C0.97961641,2.19290131 0.946173604,2.16747442 0.955440888,2.13677224 L1.02706087,1.89959526 L0.835973515,1.75178167 C0.811193604,1.73268513 0.823986485,1.69153787 0.854709545,1.69132686 L1.09223405,1.68942776 L1.16737963,1.45341135 C1.17745277,1.42292018 1.21865189,1.42292018 1.22842283,1.45341135 Z" id="Shape"></path>
                    <path d="M0.829985327,1.0913904 L0.905130909,1.32738191 L1.14265542,1.32928082 C1.17337848,1.32949181 1.18617136,1.37063472 1.16139145,1.38972925 L0.970304088,1.53752724 L1.04192407,1.7746792 C1.05119136,1.80537814 1.01784928,1.83080235 0.992767177,1.8120243 L0.79946373,1.66739115 L0.606160283,1.8120243 C0.58117891,1.83080235 0.547736104,1.80537814 0.557003388,1.7746792 L0.628623373,1.53752724 L0.437536015,1.38972925 C0.412756104,1.37063472 0.425548985,1.32949181 0.456272045,1.32928082 L0.693796551,1.32738191 L0.768942133,1.0913904 C0.778914536,1.06079695 0.820214387,1.06079695 0.829985327,1.0913904 Z" id="Shape"></path>
                    <path d="M0.558250952,0.609421647 L0.633396534,0.845413163 L0.870921041,0.847312067 C0.9016441,0.847523056 0.914436981,0.888665967 0.889657071,0.907760497 L0.698569713,1.05555849 L0.770189698,1.29271045 C0.779456981,1.32340939 0.746114907,1.3488336 0.721032802,1.33005555 L0.527729355,1.1854224 L0.334425908,1.33005555 C0.309444535,1.3488336 0.276001729,1.32340939 0.285269013,1.29271045 L0.356888998,1.05555849 L0.16580164,0.907760497 C0.141021729,0.888665967 0.15381461,0.847523056 0.18453767,0.847312067 L0.422062176,0.845413163 L0.497207758,0.609421647 C0.507280893,0.578828201 0.548480012,0.578828201 0.558250952,0.609421647 Z" id="Shape"></path>
                    <path d="M0.438297827,0.0489372723 L0.513443409,0.284928788 L0.750967916,0.286827692 C0.781690975,0.287038681 0.794483856,0.328181592 0.769703946,0.347276122 L0.578616588,0.495074117 L0.650236573,0.732226074 C0.659503856,0.762925015 0.626161782,0.788349224 0.601079677,0.769571177 L0.40777623,0.624938022 L0.214472783,0.769571177 C0.18949141,0.788349224 0.156048604,0.762925015 0.165315888,0.732226074 L0.236935873,0.495074117 L0.0458485149,0.347276122 C0.0210686045,0.328181592 0.033861485,0.287038681 0.0645845447,0.286827692 L0.302109051,0.284928788 L0.377254633,0.0489372723 C0.387327768,0.0183438259 0.428526887,0.0183438259 0.438297827,0.0489372723 Z" id="Shape"></path>
                    <path d="M2.23823841,1.6666926 L2.16308273,1.90270901 L1.92552632,1.90460811 C1.89479913,1.90481912 1.88200453,1.94596638 1.90678777,1.96506292 L2.0979008,2.11287651 L2.02627119,2.35005349 C2.01700266,2.38075567 2.05034922,2.40618256 2.07543469,2.38740253 L2.26866336,2.24275412 L2.46199277,2.38740253 C2.4869775,2.40618256 2.5204248,2.38075567 2.51115627,2.35005349 L2.43952666,2.11287651 L2.63063969,1.96506292 C2.65542293,1.94596638 2.64262833,1.90481912 2.61190114,1.90460811 L2.37434473,1.90270901 L2.29918905,1.6666926 C2.28921531,1.63620143 2.24790991,1.63620143 2.23823841,1.6666926 Z" id="Shape"></path>
                    <path d="M2.73436401,1.45341135 L2.65921843,1.68942776 L2.42169392,1.69132686 C2.39097086,1.69153787 2.37817798,1.73268513 2.40295789,1.75178167 L2.59404525,1.89959526 L2.52242526,2.13677224 C2.51315798,2.16747442 2.54650005,2.19290131 2.57158216,2.17412128 L2.76488561,2.02947287 L2.95818905,2.17412128 C2.98317043,2.19290131 3.01661323,2.16747442 3.00734595,2.13677224 L2.93572596,1.89959526 L3.12681332,1.75178167 C3.15159323,1.73268513 3.13880035,1.69153787 3.10807729,1.69132686 L2.87055278,1.68942776 L2.7954072,1.45341135 C2.78533407,1.42292018 2.74403422,1.42292018 2.73436401,1.45341135 Z" id="Shape"></path>
                    <path d="M3.13284778,1.0913904 L3.0576921,1.32738191 L2.82013569,1.32928082 C2.78940851,1.32949181 2.77661391,1.37063472 2.80139715,1.38972925 L2.99251017,1.53752724 L2.92088057,1.7746792 C2.91161204,1.80537814 2.94495859,1.83080235 2.97004406,1.8120243 L3.16337348,1.66739115 L3.35660215,1.8120243 C3.38158687,1.83080235 3.41503417,1.80537814 3.40576564,1.7746792 L3.33413604,1.53752724 L3.52524906,1.38972925 C3.5500323,1.37063472 3.5372377,1.32949181 3.50651052,1.32928082 L3.26895411,1.32738191 L3.19379843,1.0913904 C3.18392543,1.06079695 3.14262003,1.06079695 3.13284778,1.0913904 Z" id="Shape"></path>
                    <path d="M3.40453588,0.609421647 L3.3293903,0.845413163 L3.09186579,0.847312067 C3.06114274,0.847523056 3.04834985,0.888665967 3.07312976,0.907760497 L3.26421712,1.05555849 L3.19259714,1.29271045 C3.18332985,1.32340939 3.21667193,1.3488336 3.24175403,1.33005555 L3.43505748,1.1854224 L3.62836093,1.33005555 C3.6533423,1.3488336 3.68678511,1.32340939 3.67751782,1.29271045 L3.60589784,1.05555849 L3.7969852,0.907760497 C3.82176511,0.888665967 3.80897223,0.847523056 3.77824917,0.847312067 L3.54072466,0.845413163 L3.46557908,0.609421647 C3.45550594,0.578828201 3.41430682,0.578828201 3.40453588,0.609421647 Z" id="Shape"></path>
                    <path d="M3.52448901,0.0489372723 L3.44934343,0.284928788 L3.21181892,0.286827692 C3.18109586,0.287038681 3.16830298,0.328181592 3.19308289,0.347276122 L3.38417025,0.495074117 L3.31255026,0.732226074 C3.30328298,0.762925015 3.33662505,0.788349224 3.36170716,0.769571177 L3.55501061,0.624938022 L3.74831405,0.769571177 C3.77329543,0.788349224 3.80673823,0.762925015 3.79747095,0.732226074 L3.72585096,0.495074117 L3.91693832,0.347276122 C3.94171823,0.328181592 3.92892535,0.287038681 3.89820229,0.286827692 L3.66067778,0.284928788 L3.5855322,0.0489372723 C3.57545907,0.0183438259 3.53425995,0.0183438259 3.52448901,0.0489372723 Z" id="Shape"></path>
                </g>
                <path d="M11.3115686,13.7426719 L11.3732553,13.9949062 L11.3997943,13.9949062 L11.3997943,13.8228281 C11.3997943,13.8228281 11.4437151,13.942875 11.5057308,13.9949062 L11.5560123,13.9949062 C11.5319956,13.9685625 11.4887875,13.9137187 11.4887875,13.8570937 C11.4887875,13.779 11.5614407,13.7683594 11.5614407,13.6849219 L11.6237305,13.6849219 L11.6237305,13.9949062 L11.6601393,13.9949062 L11.7275286,13.718625 C11.7275286,13.718625 11.7831288,13.8914062 11.8878042,13.9949062 L11.9343022,13.9949062 C11.9007995,13.9527187 11.8311073,13.8440156 11.8438285,13.6795781 C11.8438285,13.6795781 11.9434593,13.6369687 11.9434593,13.5216094 L11.9434593,13.3575 C11.9434593,13.3267969 11.9725754,13.3018594 12.0085455,13.3018594 L12.0533437,13.3018594 C12.0533437,13.3018594 11.986777,13.1914687 11.9154946,13.1754375 L11.9154946,13.10625 L11.8618136,13.1755312 C11.8105999,13.185 11.7803872,13.2255 11.7803872,13.2688594 L11.7803872,13.3687969 C11.7803872,13.3995 11.7512711,13.4244375 11.7153009,13.4244375 L11.4825914,13.4244375 C11.4136669,13.4244375 11.3033437,13.4833594 11.3033437,13.5587812 C11.3033437,13.6342031 11.3695267,13.6837031 11.3695267,13.6837031 L11.3115686,13.7426719 Z" id="Shape" fill="#F5F5F5" fill-rule="nonzero"></path>
                <path d="M12.3483106,13.4912813 L12.3190019,13.4912813 C12.0877645,13.5026134 11.9586563,13.6381297 11.9586563,13.6381297 L12.1932755,13.8474726 L12.1932755,14.2412813 L12.474037,14.2412813 L12.474037,13.8474726 L12.7086563,13.6381297 C12.7086563,13.6381297 12.579548,13.5026134 12.3483106,13.4912813 Z" id="Shape" fill="#FFBE5A" fill-rule="nonzero"></path>
                <g id="Group" transform="translate(8.156250, 10.218750)" fill="#F5F5F5" fill-rule="nonzero">
                    <polygon id="Rectangle-path" points="4.3528125 2.82234375 5.1028125 2.82234375 5.1028125 3.7978125 4.3528125 3.7978125"></polygon>
                    <path d="M4.381125,2.81470313 L4.0959375,3.15942188 C4.0959375,3.15942188 4.05871875,2.99325 4.22489062,2.8295625 L3.85785937,2.8965 C3.85785937,2.8965 3.96946875,2.6881875 4.26210938,2.7105 L3.96201563,2.46 C3.96201563,2.46 4.21992188,2.44514063 4.35135938,2.63854688 C4.35135938,2.63854688 4.42575,2.41532813 4.6340625,2.4054375 L4.462125,2.66667188 C4.462125,2.66667188 4.6340625,2.5790625 4.87214063,2.6559375 L4.51748438,2.75015625 C4.51748438,2.75015625 4.71590625,2.76998438 4.79775,3.06014063 L4.49020313,2.84934375 C4.49020313,2.84934375 4.58442188,2.96095312 4.54973438,3.17920312 L4.381125,2.81470313 Z" id="Shape"></path>
                    <polygon id="Shape" points="0.732796875 0.4586608 0.03440625 0.046171875 0.54234375 0.796171875 0.828046875 0.796171875"></polygon>
                </g>
                <path d="M12.4965469,10.2097969 L14.380875,9.63 L13.3805625,9.25490625 C13.2023438,9.1880625 13.0135781,9.15384375 12.8232656,9.15384375 L12.6349219,9.15384375 C12.5472656,9.15384375 12.4762031,9.22490625 12.4762031,9.3125625 L12.4762031,9.47128125 L12,9.47128125 L11.5238437,9.47128125 L11.5238437,9.3125625 C11.5238437,9.22490625 11.4527813,9.15384375 11.365125,9.15384375 L11.1767812,9.15384375 C10.9864688,9.15384375 10.7976563,9.1880625 10.6194844,9.25490625 L9.61917187,9.63 L11.5035,10.2097969 C11.59725,10.238625 11.642625,10.34475 11.5987969,10.4325 L11.365125,10.8997969 L12.6349219,10.8997969 L12.40125,10.4325 C12.357375,10.34475 12.4027969,10.238625 12.4965469,10.2097969 Z" id="Shape" fill="#825546" fill-rule="nonzero"></path>
                <path d="M12.3558448,9.4462302 C12.6056883,9.82760218 12.1975883,10.2357206 11.8161782,9.98592111 C11.793586,9.97113582 11.7740392,9.95158822 11.7592546,9.92899496 C11.5094664,9.54762298 11.917511,9.13950457 12.2989212,9.38930405 C12.3215134,9.40408934 12.3410601,9.42358156 12.3558448,9.4462302 Z" id="Shape" fill="#F5F5F5" fill-rule="nonzero"></path>
                <path d="M12.1587187,9.84628125 L12.1587187,9.84628125 C12.1587187,10.053384 12.0876562,10.2212813 12,10.2212813 L11.365125,10.2212813 L11.6360625,9.5811454 C11.6658281,9.51081905 11.7061875,9.47128125 11.7482812,9.47128125 L12,9.47128125 C12.0876562,9.47128125 12.1587187,9.63917847 12.1587187,9.84628125 Z" id="Shape" fill="#FFBE5A" fill-rule="nonzero"></path>
            </g>
        </g>
    </g>
</svg>