<?xml version="1.0" encoding="UTF-8"?>
<svg width="24px" height="24px" viewBox="0 0 24 24" version="1.1" xmlns="http://www.w3.org/2000/svg" xmlns:xlink="http://www.w3.org/1999/xlink">
    <!-- Generator: Sketch 55.1 (78136) - https://sketchapp.com -->
    <title>Flags/mexico</title>
    <desc>Created with Sketch.</desc>
    <g id="Icons" stroke="none" stroke-width="1" fill="none" fill-rule="evenodd">
        <g id="Flags/mexico">
            <g id="mexico">
                <g id="Group-2" transform="translate(0.500000, 0.500000)" fill-rule="nonzero">
                    <path d="M7.66681641,0.654318955 L7.66681641,22.345681 C3.20016743,20.7670171 0,16.5072281 0,11.5 C0,6.49277188 3.20016743,2.23298291 7.66681641,0.654318955 Z" id="Combined-Shape" fill="#73AF00"></path>
                    <path d="M15.3336328,0.654477735 L15.3336328,22.3455223 C14.1345623,22.7693704 12.8442144,23 11.5,23 C10.1559535,23 8.86575997,22.769428 7.66681641,22.345681 L7.66681641,0.654318955 C8.86575997,0.230571983 10.1559535,0 11.5,0 C12.8442144,0 14.1345623,0.23062958 15.3336328,0.654477735 Z" id="Combined-Shape" fill="#F5F5F5"></path>
                    <path d="M15.3331836,22.345681 L15.3331836,0.654318955 C19.7998326,2.23298291 23,6.49277188 23,11.5 C23,16.5072281 19.7998326,20.7670171 15.3331836,22.345681 Z" id="Combined-Shape" fill="#FF4B55"></path>
                </g>
                <polygon id="Shape" fill="#FFD250" fill-rule="nonzero" points="12.7137187 12.370125 12 12.7269844 12 13.0838437 12.3568594 13.0838437"></polygon>
                <g id="Group" transform="translate(10.031250, 12.187500)" fill="#00C3A0" fill-rule="nonzero">
                    <path d="M2.04034375,1.78846875 C1.90214091,1.78846875 1.79034375,1.7086875 1.79034375,1.6100625 L1.79034375,0.89634375 C1.79034375,0.79771875 1.90214091,0.7179375 2.04034375,0.7179375 C2.17854659,0.7179375 2.29034375,0.79771875 2.29034375,0.89634375 L2.29034375,1.6100625 C2.29034375,1.70864063 2.17854659,1.78846875 2.04034375,1.78846875 Z" id="Shape"></path>
                    <path d="M1.96875,1.07475 C1.26796875,1.07475 0.5911875,0.804328125 0.063046875,0.3133125 C-0.00909375,0.246234375 -0.013265625,0.1333125 0.0538125,0.061171875 C0.12140625,-0.01078125 0.234140625,-0.014625 0.305953125,0.0519375 C0.767859375,0.481453125 1.35839063,0.717890625 1.96875,0.717890625 C2.57910938,0.717890625 3.16964063,0.481453125 3.63154688,0.0519375 C3.7035,-0.0148125 3.81623438,-0.01115625 3.8836875,0.061171875 C3.95076563,0.1333125 3.94659375,0.246234375 3.87445313,0.3133125 C3.3463125,0.804328125 2.66953125,1.07475 1.96875,1.07475 Z" id="Shape"></path>
                </g>
                <path d="M12,13.9759688 C11.5425937,13.9759688 11.0995313,13.8423281 10.718625,13.5893438 L10.9162031,13.2921094 C11.5602187,13.7200313 12.4397812,13.7200313 13.0837969,13.2921094 L13.281375,13.5893438 C12.9004687,13.8423281 12.4574062,13.9759688 12,13.9759688 Z" id="Shape" fill="#00AADC" fill-rule="nonzero"></path>
                <polygon id="Shape" fill="#732D37" fill-rule="nonzero" points="11.7174844 11.56725 11.3234531 12.1768594 11.2565625 12.3775781 12.2825156 12.1396875"></polygon>
                <path d="M10.9080469,12.5736562 C10.4363906,12.5736562 9.87028125,12.1767187 9.72004687,11.2922812 L10.0720312,11.2327031 C10.1967656,11.9681719 10.6492969,12.2173594 10.9209375,12.2166562 C11.0042344,12.2144062 11.0911875,12.185625 11.0979844,12.12675 C11.106,12.0563437 11.1079219,12.0396094 10.9213125,11.9765625 C10.8199219,11.94225 10.7048906,11.9033906 10.6242187,11.8110469 C10.297875,11.4383437 10.7397187,11.0438438 10.9519687,10.8542812 C10.9894219,10.8208125 11.0049375,10.7924062 11.0009531,10.781625 C10.9892812,10.7511562 10.91925,10.7049375 10.8403125,10.7049375 C10.613625,10.7049375 10.4416406,10.576875 10.391625,10.3709062 C10.3396875,10.157625 10.4377969,9.93285937 10.6245937,9.83634375 L10.788375,10.1534531 C10.7446406,10.1760937 10.7272031,10.2405937 10.7383594,10.2865781 C10.7427187,10.3050469 10.7533594,10.3480781 10.8403125,10.3480781 C11.0587969,10.3480781 11.2666875,10.4770312 11.3342812,10.6544062 C11.3632031,10.7300156 11.40675,10.9265625 11.1896719,11.1204844 C10.9552969,11.3297344 10.8150469,11.4872812 10.8927656,11.5759687 C10.9103437,11.5959844 10.9858125,11.621625 11.0356406,11.6383594 C11.1962812,11.6927344 11.4952969,11.7937969 11.4524062,12.1675312 C11.4255937,12.4025625 11.2157812,12.5656875 10.9307344,12.5733281 C10.9231875,12.5734687 10.9155,12.5736562 10.9080469,12.5736562 Z" id="Shape" fill="#AAD264" fill-rule="nonzero"></path>
                <path d="M12.3568594,10.5859219 C12.3568594,10.5859219 12.7137187,9.87220312 12,9.51539062 C12,9.51539062 14.4979219,9.15853125 14.1411094,12.3701719 L14.1409219,12.3700312 C13.9067344,12.1826719 13.5590156,11.8402969 13.4348438,11.5672969 L12.3568594,10.9427812 L12.3568594,10.5859219 Z" id="Shape" fill="#874150" fill-rule="nonzero"></path>
                <path d="M12,11.2995937 L13.78425,12.370125 C13.78425,12.370125 13.78425,12.370125 13.0705781,12.7269844 L12,11.6564531 L12,11.2995937 Z" id="Shape" fill="#732D37" fill-rule="nonzero"></path>
                <path d="M11.2862813,10.2290625 L11.2862813,10.2290625 C11.4833438,10.2290625 11.6431406,10.3888125 11.6431406,10.5859219 L11.6427656,10.5862969 C11.4299063,10.7991562 11.377125,11.124375 11.51175,11.3936719 L11.592375,11.5549687 C11.6259844,11.6221875 11.6702344,11.6835938 11.7233906,11.73675 L12.7136719,12.7270312 L12.7136719,12.2338594 C12.7136719,11.6194687 12.5706094,11.0135625 12.295875,10.4640469 L12.295875,10.4640469 C12.1145156,10.101375 11.7438281,9.87225 11.3383594,9.87225 L11.2862813,9.87225 L11.2862813,10.2290625 L11.2862813,10.2290625 Z" id="Shape" fill="#783C46" fill-rule="nonzero"></path>
                <path d="M11.2862813,9.87220313 L10.9294219,10.2290625 L10.9294219,10.5859219 C10.9294219,10.5859219 11.3539219,10.3706719 11.4969844,10.3021406 C11.5969688,10.2542344 11.5787813,10.1408906 11.5214063,10.0863281 C11.4767812,10.0438594 11.2862813,9.87220313 11.2862813,9.87220313 Z" id="Shape" fill="#FFD250" fill-rule="nonzero"></path>
                <path d="M12,14.6896406 C10.3274531,14.6896406 8.9668125,13.329 8.9668125,11.6564531 L9.32367187,11.6564531 C9.32367187,13.1322656 10.5241875,14.3328281 12.0000469,14.3328281 C13.4759062,14.3328281 14.6764219,13.1323125 14.6764219,11.6564531 L15.0332812,11.6564531 C15.0331875,13.329 13.6725469,14.6896406 12,14.6896406 Z" id="Shape" fill="#AAD264" fill-rule="nonzero"></path>
                <path d="M12.1784063,14.154375 L11.8215469,14.154375 C11.6244844,14.154375 11.4646875,13.994625 11.4646875,13.7975156 L11.4646875,13.7975156 C11.4646875,13.6004531 11.6244375,13.4406562 11.8215469,13.4406562 L12.1784063,13.4406562 C12.3754687,13.4406562 12.5352656,13.6004063 12.5352656,13.7975156 L12.5352656,13.7975156 C12.5352656,13.994625 12.3755156,14.154375 12.1784063,14.154375 Z" id="Shape" fill="#FFB478" fill-rule="nonzero"></path>
                <path d="M13.4348438,11.56725 C13.5538125,11.9166563 13.8065625,12.2363437 14.1409219,12.3699844 L14.1411094,12.370125 C14.4979219,9.15853125 12,9.51534375 12,9.51534375 C13.78425,9.51534375 13.4348438,11.56725 13.4348438,11.56725 Z" id="Shape" fill="#9B4B5A" fill-rule="nonzero"></path>
                <circle id="Oval" stroke="#FFFFFF" cx="12" cy="12" r="11.5"></circle>
                <g id="Group" transform="translate(9.093750, 12.468750)" fill="#FFE15A" fill-rule="nonzero">
                    <circle id="Oval" cx="0.24890625" cy="0.2465625" r="1"></circle>
                    <circle id="Oval" cx="0.78421875" cy="1.1015625" r="1"></circle>
                    <circle id="Oval" cx="1.65421875" cy="1.7484375" r="1"></circle>
                    <circle id="Oval" cx="5.58890625" cy="0.2465625" r="1"></circle>
                    <circle id="Oval" cx="5.05359375" cy="1.1015625" r="1"></circle>
                    <circle id="Oval" cx="4.18359375" cy="1.7484375" r="1"></circle>
                </g>
            </g>
        </g>
    </g>
</svg>