<?xml version="1.0" encoding="UTF-8"?>
<svg width="24px" height="24px" viewBox="0 0 24 24" version="1.1" xmlns="http://www.w3.org/2000/svg" xmlns:xlink="http://www.w3.org/1999/xlink">
    <!-- Generator: Sketch 55.1 (78136) - https://sketchapp.com -->
    <title>Flags/ecuador</title>
    <desc>Created with Sketch.</desc>
    <g id="Icons" stroke="none" stroke-width="1" fill="none" fill-rule="evenodd">
        <g id="Flags/ecuador">
            <g id="ecuador">
                <path d="M1.801566,17.9933906 L22.298434,17.9933906 C20.3418904,21.258194 16.7542867,23.5008944 12.609093,23.6868286 L11.490907,23.6868286 C7.34571328,23.5008944 3.75810961,21.258194 1.801566,17.9933906 Z" id="Combined-Shape" fill="#FF4B55" fill-rule="nonzero"></path>
                <path d="M11.4374511,0.213172 L12.5625489,0.213172 C18.8735394,0.504397929 23.9,5.67014657 23.9,12.0000009 L0.1,12.000047 C0.1,5.67014657 5.12646061,0.504397929 11.4374511,0.213172 Z" id="Combined-Shape" fill="#FFE15A" fill-rule="nonzero"></path>
                <path d="M23.8,12 C23.8,14.1830145 23.2267969,16.2298812 22.2251003,17.9934375 L1.7748997,17.9934375 C0.773203129,16.2298812 0.2,14.1830145 0.2,12 L23.8,12 Z" id="Combined-Shape" fill="#41479B" fill-rule="nonzero"></path>
                <path d="M11.5682344,14.307375 L14.5907344,11.7166875 L14.5907344,15.4660781 C14.5907344,16.0979531 14.0784844,16.61025 13.4465625,16.61025 L13.4465625,16.61025 C13.1639063,16.61025 12.8912813,16.505625 12.6811875,16.3165312 L11.5682344,15.3149062 L11.5682344,14.307375 L11.5682344,14.307375 Z" id="Shape" fill="#FFE15A" fill-rule="nonzero"></path>
                <path d="M13.1625469,15.7815938 L12.2878594,14.994375 L12.2878594,13.6905469 L13.8710625,12.3334687 L13.8710625,13.2812812 L13.8710625,15.4660313 C13.8710625,15.700125 13.6806094,15.8905313 13.4465625,15.8905313 C13.3415156,15.8905781 13.2406406,15.8519063 13.1625469,15.7815938 Z" id="Shape" fill="#FF4B55" fill-rule="nonzero"></path>
                <path d="M12.719625,13.3204688 L12.719625,14.8025156 L13.43925,15.45225 L13.43925,13.2723281 L13.43925,12.7036406 L13.8710156,12.3335156 L13.8710156,13.2813281 L13.8710156,15.4660781 C13.8710156,15.7001719 13.6805625,15.8905781 13.4465156,15.8905781 C13.3414687,15.8905781 13.2405937,15.8518594 13.1625,15.7815938 L12.2878125,14.994375 L12.2878125,13.6905469 L12.719625,13.3204688 Z" id="Shape" fill="#41479B" fill-rule="nonzero"></path>
                <path d="M12.4317656,14.307375 L9.40926562,11.7166875 L9.40926562,15.4660781 C9.40926562,16.0979531 9.92151562,16.61025 10.5534375,16.61025 L10.5534375,16.61025 C10.8360937,16.61025 11.1087187,16.505625 11.3188125,16.3165312 L12.4317656,15.3149062 L12.4317656,14.307375 Z" id="Shape" fill="#FFE15A" fill-rule="nonzero"></path>
                <path d="M10.8374531,15.7815938 L11.7121406,14.994375 L11.7121406,13.6905469 L10.1289375,12.3334687 L10.1289375,13.2812812 L10.1289375,15.4660313 C10.1289375,15.700125 10.3193906,15.8905313 10.5534375,15.8905313 C10.6584844,15.8905781 10.7593594,15.8519063 10.8374531,15.7815938 Z" id="Shape" fill="#FF4B55" fill-rule="nonzero"></path>
                <g id="Group" transform="translate(9.281250, 11.718750)" fill="#41479B" fill-rule="nonzero">
                    <path d="M1.999125,1.60171875 L1.999125,3.08376563 L1.2795,3.7335 L1.2795,1.55357813 L1.2795,0.984890625 L0.847734375,0.614765625 L0.847734375,1.56257813 L0.847734375,3.74732813 C0.847734375,3.98142187 1.0381875,4.17182813 1.27223437,4.17182813 C1.37728125,4.17182813 1.47815625,4.13310937 1.55625,4.06284375 L2.4309375,3.275625 L2.4309375,1.97179688 L1.999125,1.60171875 Z" id="Shape"></path>
                    <polygon id="Rectangle-path" points="5.205 0.01078125 5.955 0.01078125 5.955 1.25053125 5.205 1.25053125"></polygon>
                    <polygon id="Rectangle-path" points="0.02390625 0.01078125 0.77390625 0.01078125 0.77390625 1.25053125 0.02390625 1.25053125"></polygon>
                </g>
                <g id="Group" transform="translate(8.671875, 9.890625)" fill="#5A4646" fill-rule="nonzero">
                    <path d="M2.89635937,1.25034375 C2.89635937,1.25034375 3.18421875,-0.116953125 2.17673437,0.062953125 C1.16925,0.242859375 1.16925,0.53071875 0.0178125,1.1064375 C0.0178125,1.1064375 1.31315625,1.39429688 1.888875,1.25034375 C1.888875,1.25034375 2.32064062,1.8260625 2.75245312,1.96996875 L3.18421875,1.96996875 L2.89635937,1.25034375 Z" id="Shape"></path>
                    <path d="M3.75989063,1.25034375 C3.75989063,1.25034375 3.47203125,-0.116953125 4.47951562,0.062953125 C5.487,0.242859375 5.487,0.53071875 6.6384375,1.1064375 C6.6384375,1.1064375 5.34309375,1.39429688 4.767375,1.25034375 C4.767375,1.25034375 4.33560938,1.8260625 3.90379688,1.96996875 L3.47203125,1.96996875 L3.75989063,1.25034375 Z" id="Shape"></path>
                    <path d="M3.75989063,1.96996875 L2.8963125,1.96996875 L2.8963125,1.245 C2.8963125,1.00945312 3.08723438,0.81853125 3.32278125,0.81853125 L3.33342188,0.81853125 C3.56896875,0.81853125 3.75989063,1.00945312 3.75989063,1.245 L3.75989063,1.96996875 L3.75989063,1.96996875 Z" id="Shape"></path>
                </g>
                <circle id="Oval" fill="#E6E1CD" fill-rule="nonzero" cx="12.4621406" cy="11.6029219" r="1"></circle>
                <path d="M11.3823281,11.0452785 L11.951501,11.4403673 C11.9992648,11.4734942 12.0580207,11.4621529 12.0963204,11.4124304 L12.0963204,11.4124304 C12.1443307,11.350021 12.1443307,11.248846 12.0963204,11.1864365 L11.7291948,10.7092031 L11.6409131,10.7092031 C11.4980654,10.7092031 11.3823281,10.8596521 11.3823281,11.0452785 L11.3823281,11.0452785 Z" id="Shape" fill="#FFD0AF" fill-rule="nonzero"></path>
                <path d="M11.7012587,11.4592031 L11.1364688,11.4592031 L11.3836598,10.8804293 C11.4300691,10.7717337 11.4979734,10.7092031 11.5694194,10.7092031 L11.8864687,10.7092031 L11.8864687,11.0889051 C11.8864077,11.2933507 11.8034815,11.4592031 11.7012587,11.4592031 Z" id="Shape" fill="#FFAF94" fill-rule="nonzero"></path>
                <g id="Group" transform="translate(9.656250, 11.437500)" fill="#8CB400" fill-rule="nonzero">
                    <path d="M3.57121875,0.42346875 C3.47409375,0.308203125 3.45342187,0.155484375 3.50071875,0.023109375 C3.6391875,-0.001078125 3.78623437,0.045234375 3.8833125,0.160453125 C3.96628125,0.258890625 3.99032812,0.3841875 3.9669375,0.50128125 C3.99567187,0.550125 4.030875,0.6129375 4.06954687,0.687046875 C4.07146875,0.6765 4.07104687,0.666046875 4.07404687,0.6555 C4.10798437,0.536203125 4.202625,0.451734375 4.31475,0.42309375 C4.395,0.5064375 4.43114062,0.628078125 4.39720312,0.747375 C4.368,0.85003125 4.2928125,0.924421875 4.20126562,0.962109375 C4.23740625,1.04498437 4.27317187,1.13442187 4.30654687,1.22882812 C4.30846875,1.22329687 4.30860937,1.21767187 4.3108125,1.2121875 C4.3576875,1.09729687 4.46109375,1.02379687 4.57565625,1.00771875 C4.64625,1.09935937 4.66875,1.22428125 4.621875,1.33907812 C4.58085937,1.43957812 4.49578125,1.50585937 4.39860937,1.53225 C4.44867187,1.72973437 4.48185937,1.93926562 4.48185937,2.15020312 L4.33795312,2.15020312 C4.33795312,1.96640625 4.30973437,1.78223437 4.26717187,1.60607812 C4.17834375,1.63476562 4.07910937,1.62867187 3.99323437,1.57603125 C3.88842187,1.5118125 3.83310937,1.3989375 3.8356875,1.28432812 C3.93660937,1.22995312 4.06232812,1.22798437 4.16714062,1.29220312 C4.17089062,1.2945 4.17346875,1.297875 4.177125,1.30035937 C4.14632812,1.21176562 4.11346875,1.12767187 4.0798125,1.048875 C3.99342187,1.08970312 3.89175,1.09598437 3.79851562,1.05215625 C3.68728125,0.999890625 3.61982812,0.893765625 3.60979687,0.779578125 C3.70382812,0.714609375 3.82804687,0.698859375 3.93904687,0.750515625 C3.89939062,0.674296875 3.86367187,0.61059375 3.8356875,0.562921875 C3.73626562,0.55171875 3.64078125,0.5060625 3.57121875,0.42346875 Z" id="Shape"></path>
                    <path d="M1.11628125,0.42346875 C1.21340625,0.308203125 1.23407813,0.155484375 1.18678125,0.023109375 C1.0483125,-0.001078125 0.901265625,0.045234375 0.8041875,0.160453125 C0.72121875,0.258890625 0.697171875,0.3841875 0.7205625,0.50128125 C0.691828125,0.550125 0.656625,0.6129375 0.617953125,0.687046875 C0.61603125,0.6765 0.616453125,0.666046875 0.613453125,0.6555 C0.579515625,0.536203125 0.484875,0.451734375 0.37275,0.42309375 C0.2925,0.5064375 0.256359375,0.628078125 0.290296875,0.747375 C0.3195,0.85003125 0.3946875,0.924421875 0.486234375,0.962109375 C0.45009375,1.04498437 0.414328125,1.13442187 0.380953125,1.22882812 C0.37903125,1.22329687 0.378890625,1.21767187 0.3766875,1.2121875 C0.3298125,1.09729687 0.22640625,1.02379687 0.11184375,1.00771875 C0.04125,1.09935937 0.01875,1.22428125 0.065625,1.33907812 C0.106640625,1.43957812 0.19171875,1.50585937 0.288890625,1.53225 C0.238828125,1.72973437 0.205640625,1.93926562 0.205640625,2.15020312 L0.349546875,2.15020312 C0.349546875,1.96640625 0.377765625,1.78223437 0.420328125,1.60607812 C0.50915625,1.63476562 0.608390625,1.62867187 0.694265625,1.57603125 C0.799078125,1.5118125 0.854390625,1.3989375 0.8518125,1.28432812 C0.750890625,1.22995312 0.625171875,1.22798437 0.520359375,1.29220312 C0.516609375,1.2945 0.51403125,1.297875 0.510375,1.30035937 C0.541171875,1.21176562 0.57403125,1.12767187 0.6076875,1.048875 C0.694078125,1.08970312 0.79575,1.09598437 0.888984375,1.05215625 C1.00021875,0.999890625 1.06767188,0.893765625 1.07770313,0.779578125 C0.983671875,0.714609375 0.859453125,0.698859375 0.748453125,0.750515625 C0.788109375,0.674296875 0.823828125,0.61059375 0.8518125,0.562921875 C0.951234375,0.55171875 1.04671875,0.5060625 1.11628125,0.42346875 Z" id="Shape"></path>
                </g>
                <path d="M12,15.0270469 L8.9775,12.4363594 L8.9775,16.18575 C8.9775,16.817625 9.48975,17.3299219 10.1216719,17.3299219 L10.1216719,17.3299219 C10.4043281,17.3299219 10.6769531,17.2252969 10.8870469,17.0362031 L12,16.0345313 L12,15.0270469 Z" id="Shape" fill="#FFE15A" fill-rule="nonzero"></path>
                <path d="M10.4056406,16.5012656 L11.2803281,15.7140469 L11.2803281,14.4102188 L9.697125,13.0531406 L9.697125,14.0009531 L9.697125,16.1857031 C9.697125,16.4197969 9.88757812,16.6102032 10.121625,16.6102032 C10.2267187,16.61025 10.3275938,16.5715312 10.4056406,16.5012656 Z" id="Shape" fill="#FF4B55" fill-rule="nonzero"></path>
                <path d="M10.8485625,14.0400937 L10.8485625,15.5221406 L10.1289375,16.171875 L10.1289375,13.9919531 L10.1289375,13.4232656 L9.69717187,13.0531406 L9.69717187,14.0009531 L9.69717187,16.1857031 C9.69717187,16.4197969 9.887625,16.6102031 10.1216719,16.6102031 C10.2267187,16.6102031 10.3275938,16.5714844 10.4056875,16.5012187 L11.280375,15.714 L11.280375,14.4101719 L10.8485625,14.0400937 Z" id="Shape" fill="#41479B" fill-rule="nonzero"></path>
                <path d="M12,15.0270469 L15.0225,12.4363594 L15.0225,16.18575 C15.0225,16.817625 14.51025,17.3299219 13.8783281,17.3299219 L13.8783281,17.3299219 C13.5956719,17.3299219 13.3230469,17.2252969 13.1129531,17.0362031 L12,16.0345313 L12,15.0270469 Z" id="Shape" fill="#FFE15A" fill-rule="nonzero"></path>
                <path d="M13.5943594,16.5012656 L12.7196719,15.7140469 L12.7196719,14.4102188 L14.302875,13.0531406 L14.302875,14.0009531 L14.302875,16.1857031 C14.302875,16.4197969 14.1124219,16.6102032 13.878375,16.6102032 C13.7732813,16.61025 13.6724063,16.5715312 13.5943594,16.5012656 Z" id="Shape" fill="#FF4B55" fill-rule="nonzero"></path>
                <path d="M13.1514375,14.0400937 L13.1514375,15.5221406 L13.8710625,16.171875 L13.8710625,13.9919531 L13.8710625,13.4232656 L14.3028281,13.0531406 L14.3028281,14.0009531 L14.3028281,16.1857031 C14.3028281,16.4197969 14.112375,16.6102031 13.8783281,16.6102031 C13.7732813,16.6102031 13.6724063,16.5714844 13.5943125,16.5012187 L12.719625,15.714 L12.719625,14.4101719 L13.1514375,14.0400937 Z" id="Shape" fill="#41479B" fill-rule="nonzero"></path>
                <ellipse id="Oval" fill="#69C3FF" fill-rule="nonzero" cx="12" cy="14.0193281" rx="1.43929688" ry="2.1590625"></ellipse>
                <path d="M10.7046563,14.5952344 L13.2953438,14.5952344 L13.43925,14.0195156 L12.7833281,14.1288281 C12.6517031,14.1507656 12.5171719,14.1132656 12.415875,14.0264531 L11.6713125,13.38825 C11.6047969,13.3312031 11.5200469,13.2998906 11.4323906,13.2998906 L11.4323906,13.2998906 C11.3350313,13.2998906 11.2416563,13.3385625 11.1727969,13.4074219 L10.7046094,13.8756094 L10.7046563,14.5952344 L10.7046563,14.5952344 Z" id="Shape" fill="#009B64" fill-rule="nonzero"></path>
                <path d="M11.8634531,13.9491526 L12.1107188,13.7845161 L11.6713125,13.3920265 C11.6047969,13.3325717 11.5200469,13.2999375 11.4323906,13.2999375 L11.4323906,13.2999375 C11.3350313,13.2999375 11.2416563,13.3402417 11.1727969,13.4120076 L10.7046094,13.899957 L10.7046094,14.0499375 L11.4242344,13.899957 L11.5515,13.9662513 C11.6511563,14.0181338 11.7696094,14.0115874 11.8634531,13.9491526 Z" id="Shape" fill="#F5F5F5" fill-rule="nonzero"></path>
                <polygon id="Shape" fill="#5AA0E6" fill-rule="nonzero" points="10.7046562 14.5952344 10.8485625 15.4588125 11.5682344 16.1784375 12 16.1784375 12.5757187 16.0345313 13.1514375 15.4588125 13.2953437 14.5952344"></polygon>
                <path d="M12,16.3223906 C11.127,16.3223906 10.4167969,15.2893125 10.4167969,14.0195625 C10.4167969,12.7498125 11.127,11.7167344 12,11.7167344 C12.873,11.7167344 13.5832031,12.7498125 13.5832031,14.0195625 C13.5832031,15.2893125 12.873,16.3223906 12,16.3223906 Z M12,12.0045 C11.2857656,12.0045 10.7046562,12.9083906 10.7046562,14.0194687 C10.7046562,15.1305469 11.2857656,16.0344844 12,16.0344844 C12.7142344,16.0344844 13.2953437,15.1305937 13.2953437,14.0194687 C13.2953437,12.9084375 12.7142344,12.0045 12,12.0045 Z" id="Shape" fill="#FFC88C" fill-rule="nonzero"></path>
                <g id="Group" transform="translate(9.937500, 15.890625)" fill="#E1E1E1" fill-rule="nonzero">
                    <path d="M1.04714062,0.274921875 C0.9264375,0.108328125 0.746859375,0 0.543375,0 C0.339890625,0 0.1603125,0.108328125 0.039609375,0.274921875 C0.245390625,0.33196875 0.413765625,0.49903125 0.4935,0.71925 C0.525609375,0.8079375 0.543328125,0.90525 0.543328125,1.00748437 C0.543375,0.651421875 0.75853125,0.354890625 1.04714062,0.274921875 Z" id="Shape"></path>
                    <path d="M1.18429688,0.734499281 C1.18429688,0.734499281 1.14652936,1.23910076 0.81622092,1.475625 L0.80237283,1.46675072 C0.472064395,1.23022648 0.434296875,0.725625 0.434296875,0.725625 L1.18429688,0.734499281 Z" id="Shape"></path>
                </g>
                <path d="M13.8,17.2882969 L10.2,17.2882969 C10.1607656,17.2882969 10.1289375,17.1224174 10.1289375,16.9179386 L10.1289375,16.9086552 C10.1289375,16.7041764 10.1607656,16.5382969 10.2,16.5382969 L13.8,16.5382969 C13.8392344,16.5382969 13.8710625,16.7041764 13.8710625,16.9086552 L13.8710625,16.9179386 C13.8710625,17.1224174 13.8392344,17.2882969 13.8,17.2882969 Z" id="Shape" fill="#966446" fill-rule="nonzero"></path>
                <path d="M12.7231875,17.0724375 L11.2768125,17.0724375 C11.1197812,17.0724375 10.9925156,16.9065715 10.9925156,16.7020483 L10.9925156,16.6928267 C10.9925156,16.4882424 11.1198281,16.3224375 11.2768125,16.3224375 L12.7231875,16.3224375 C12.8802188,16.3224375 13.0074844,16.4883035 13.0074844,16.6928267 L13.0074844,16.7020483 C13.0074844,16.9065715 12.8802188,17.0724375 12.7231875,17.0724375 Z" id="Shape" fill="#BE915A" fill-rule="nonzero"></path>
                <path d="M10.8789375,16.53825 L10.2226722,16.53825 C10.1708891,16.53825 10.1289375,16.7060839 10.1289375,16.91325 C10.1289375,17.1204161 10.1708891,17.28825 10.2226722,17.28825 L10.8789375,17.28825 L10.8789375,16.53825 L10.8789375,16.53825 Z" id="Shape" fill="#B9B9B9" fill-rule="nonzero"></path>
                <polygon id="Shape" fill="#FF4B55" fill-rule="nonzero" points="12.1742812 16.8981094 12.1742812 18.2130937 11.4242812 18.0495 11.7992812 16.8981094"></polygon>
                <polygon id="Shape" fill="#41479B" fill-rule="nonzero" points="11.8560937 16.8981094 11.5682344 17.9055937 10.9925156 17.7616406 11.4242812 16.8981094"></polygon>
                <polygon id="Shape" fill="#FFE15A" fill-rule="nonzero" points="11.2985723 16.8981094 10.8485625 17.4981289 11.2985723 17.6481094 11.5985625 16.8981094"></polygon>
                <polygon id="Shape" fill="#FF4B55" fill-rule="nonzero" points="12 16.8981094 12 18.2130937 12.75 18.0495 12.375 16.8981094"></polygon>
                <polygon id="Shape" fill="#41479B" fill-rule="nonzero" points="12.1439063 16.8981094 12.4317656 17.9055937 13.0074844 17.7616406 12.5757188 16.8981094"></polygon>
                <polygon id="Shape" fill="#FFE15A" fill-rule="nonzero" points="12.7317559 16.8981094 13.1817656 17.4981289 12.7317559 17.6481094 12.4317656 16.8981094"></polygon>
                <g id="Group" transform="translate(8.859375, 12.421875)" fill="#41479B" fill-rule="nonzero">
                    <polygon id="Shape" points="0.764765625 1.25404687 0.014765625 1.04554688 0.014765625 0.014296875 0.764765625 0.014296875"></polygon>
                    <polygon id="Shape" points="6.80779688 1.04554688 6.05779688 1.25404687 6.05779688 0.014296875 6.80779688 0.014296875"></polygon>
                </g>
                <circle id="Oval" stroke="#FFFFFF" cx="12" cy="12" r="11.5"></circle>
            </g>
        </g>
    </g>
</svg>