<?xml version="1.0" encoding="utf-8"?>
<!-- Generator: Adobe Illustrator 16.0.0, SVG Export Plug-In . SVG Version: 6.00 Build 0)  -->
<!DOCTYPE svg PUBLIC "-//W3C//DTD SVG 1.1//EN" "http://www.w3.org/Graphics/SVG/1.1/DTD/svg11.dtd">
<svg version="1.1" id="Layer_1" xmlns="http://www.w3.org/2000/svg" xmlns:xlink="http://www.w3.org/1999/xlink" x="0px" y="0px"
	 width="20px" height="16px" viewBox="0 0 20 16" enable-background="new 0 0 20 16" xml:space="preserve">
<path fill="#FFFFFF" enable-background="new    " d="M18.086,0.046V0.018H1.03v0.028C0.477,0.084,0.065,0.524,0,1.056v11.211
	c0,0.215,0.056,0.396,0.15,0.56c0.215,0.38,0.533,0.571,0.973,0.571h6.156v1.553H6.11c-0.28-0.004-0.511,0.221-0.514,0.502
	c0,0.004,0,0.009,0,0.013c0,0.29,0.225,0.515,0.515,0.515h6.896c0.29,0,0.524-0.225,0.524-0.515
	c-0.001-0.284-0.232-0.516-0.518-0.515c-0.002,0-0.004,0-0.007,0h-1.17v-1.553h6.157c0.439,0,0.76-0.191,0.973-0.57
	c0.102-0.17,0.156-0.363,0.159-0.561V1.057C19.061,0.524,18.62,0.084,18.086,0.046L18.086,0.046z M18.086,1.15v11.118
	c0,0.065-0.027,0.094-0.093,0.094H1.123c-0.066,0-0.094-0.028-0.094-0.094V1.057h17.057V1.15z"/>
</svg>
