<svg xmlns="http://www.w3.org/2000/svg" width="24" height="24" viewBox="0 0 24 24">
    <g fill="none" fill-rule="nonzero">
        <path fill="#5A5249" d="M22.757 9.475c.717.12 1.238.736 1.228 1.463v2.11a1.48 1.48 0 0 1-1.238 1.462l-1.683.28c-.17.562-.401 1.108-.677 1.634l.993 1.393c.42.591.35 1.398-.16 1.91l-1.494 1.492a1.47 1.47 0 0 1-1.047.436 1.47 1.47 0 0 1-.862-.275l-1.388-.993a9.506 9.506 0 0 1-1.633.677l-.286 1.683a1.48 1.48 0 0 1-1.463 1.238h-2.114a1.48 1.48 0 0 1-1.463-1.238l-.28-1.683a9.479 9.479 0 0 1-1.584-.651l-1.408 1.002a1.47 1.47 0 0 1-1.904-.16L2.8 19.76a1.477 1.477 0 0 1-.16-1.909l.987-1.373a9.272 9.272 0 0 1-.687-1.628l-1.703-.29A1.48 1.48 0 0 1 0 13.096v-2.11a1.48 1.48 0 0 1 1.238-1.462l1.663-.28c.17-.567.39-1.113.666-1.64L2.565 6.199a1.483 1.483 0 0 1 .16-1.91l1.499-1.492c.275-.28.651-.436 1.047-.436.31 0 .611.095.862.275l1.378.993a9.272 9.272 0 0 1 1.628-.687l.29-1.703A1.48 1.48 0 0 1 10.894 0h2.11a1.48 1.48 0 0 1 1.462 1.238l.28 1.663c.587.175 1.153.41 1.694.696l1.393-.992a1.47 1.47 0 0 1 1.904.16L21.23 4.26c.516.51.581 1.318.16 1.909l-.992 1.388c.276.52.502 1.067.677 1.633l1.683.286z"/>
        <path fill="#E5E0DC" d="M12 8c2.207 0 4 1.793 4 4s-1.793 4-4 4-4-1.793-4-4 1.793-4 4-4z"/>
    </g>
</svg>
