<svg xmlns="http://www.w3.org/2000/svg" width="16" height="15" viewBox="0 0 16 15">
    <g fill="#323232" fill-rule="nonzero" opacity=".9">
        <path d="M2.326 11.266l.367-.478.55.358c.245-.418.49-.836.674-1.315l-.612-.179.183-.597.612.179c.123-.478.184-.956.245-1.435h-.612v-.597h.612c0-.478-.122-1.016-.245-1.435l-.612.18-.183-.598.612-.18c-.184-.477-.367-.896-.673-1.314l-.551.358-.367-.478.55-.358c-.244-.359-.55-.658-.856-.956C.796 3.735 0 5.527 0 7.5c0 1.733.612 3.346 1.591 4.602.184.179.429.478.429.478.306-.3.612-.598.856-.897l-.55-.418zM13.28 2.42c-.306.3-.612.598-.856.897l.55.359-.367.537-.55-.358c-.245.418-.49.837-.674 1.315l.612.179-.183.598-.612-.18c-.062.419-.184.957-.184 1.435h.612v.597h-.612c0 .479.122 1.016.245 1.435l.612-.18.183.598-.612.18c.184.478.368.896.674 1.314l.55-.358.368.478-.551.358c.245.3.55.658.857.897 0 0 .244-.24.367-.418 1.04-1.256 1.652-2.929 1.652-4.662a7.615 7.615 0 0 0-2.08-5.02z"/>
        <path d="M11.506 12.342l-.368-.479.49-.298a6.809 6.809 0 0 1-.734-1.494l-.612.12-.184-.599.55-.179c-.122-.478-.244-1.076-.244-1.614h-.612v-.597h.612c0-.538.122-1.136.245-1.614l-.551-.18.184-.597.55.18a6.809 6.809 0 0 1 .735-1.495l-.49-.299.367-.478.49.3c.306-.36.612-.718.918-1.017A7.855 7.855 0 0 0 7.65.03c-2.02 0-3.856.777-5.202 1.972.306.299.612.658.918 1.016l.428-.299.368.478-.49.3c.306.477.55.956.734 1.493l.551-.179.184.598-.551.18c.122.537.245 1.075.245 1.613h.612v.597h-.612c0 .538-.123 1.136-.245 1.614l.55.18-.183.597-.55-.18a6.81 6.81 0 0 1-.735 1.495l.49.299-.368.478-.428-.299c-.306.359-.612.717-.918 1.016 1.346 1.255 3.182 1.972 5.202 1.972s3.856-.777 5.202-1.972c-.306-.299-.612-.657-.918-.956l-.428.299z"/>
    </g>
</svg>
