<svg xmlns="http://www.w3.org/2000/svg" width="16" height="15" viewBox="0 0 16 15">
    <g fill="#323232" fill-rule="nonzero" opacity=".9">
        <path d="M5.73.839c.12-.156.1-.486.083-.777L5.811.024a5.38 5.38 0 0 0-2.383.31c.416.197 1.059.534 1.774 1.031.243-.206.427-.395.528-.526zM8.414 3.802c-.26.03-.48.071-.67.13.901 1.54 1.252 3.488 1.338 4.898a5.126 5.126 0 0 0 1.512-3.43c-.614-.74-1.429-1.681-2.18-1.598zM3.062 2.472c.632-.129 1.227-.44 1.7-.77A11.334 11.334 0 0 0 2.786.622 5.256 5.256 0 0 0 .461 3.08c.62-.242 1.293-.365 1.953-.485.214-.04.435-.08.648-.123z"/>
        <path d="M6.724 2.623c.056.056.113.112.169.17.206.212.393.445.565.69.25-.092.544-.158.897-.197.83-.092 1.569.553 2.202 1.263A5.125 5.125 0 0 0 9.25 1.73c-.383.045-.81.122-1.245.249-.285.083-.74.31-1.28.643zM6.027 5.305c.217-.721.469-1.241.956-1.579a4.876 4.876 0 0 0-.474-.575 9.855 9.855 0 0 0-.239-.237C4.313 4.22 1.633 6.618 1.39 8.695a5.32 5.32 0 0 0 3.18 1.64c.456-.89.886-2.7 1.14-3.777.124-.517.23-.964.317-1.253z"/>
        <path d="M3.808 4.161A18.84 18.84 0 0 1 5.87 2.548c-.22-.19-.44-.366-.657-.527-.547.403-1.263.8-2.044.96-.218.044-.442.085-.658.124-.833.152-1.633.299-2.306.667a5.097 5.097 0 0 0 .748 4.387c.388-1.504 1.717-2.97 2.855-3.998zM6.326 2.252c.63-.394 1.174-.667 1.527-.77.316-.092.627-.16.92-.21A5.321 5.321 0 0 0 6.347.103c.02.362.03.76-.193 1.05a4.078 4.078 0 0 1-.518.53c.228.174.46.364.691.57zM6.535 5.452c-.083.275-.187.714-.308 1.224-.357 1.503-.698 2.848-1.096 3.706.057.002.113.004.17.004 1.235 0 2.37-.415 3.271-1.109-.036-1.476-.397-3.563-1.306-5.113-.353.257-.542.661-.731 1.288z"/>
        <g>
            <path d="M11.46 4.017a11.541 11.541 0 0 1 2.465-.093 1.214 1.214 0 0 1 1.13 1.108 10.92 10.92 0 0 1-.092 2.418L11.46 4.017zm-6.808 6.669a10.92 10.92 0 0 0-.092 2.418c.043.589.528 1.065 1.13 1.107a11.545 11.545 0 0 0 2.465-.092l-3.503-3.433zm10.18-2.548c-.29 1.277-.881 2.658-2.024 3.856a.312.312 0 0 1-.014.014c-1.217 1.115-2.624 1.697-3.937 1.983L4.782 9.997c.29-1.277.882-2.658 2.025-3.856a.312.312 0 0 1 .014-.014c1.217-1.115 2.624-1.697 3.937-1.983l4.074 3.994zm-2.84.022l-.422-.412.328-.321a.285.285 0 0 0 0-.408.299.299 0 0 0-.416 0l-.328.32-.421-.412a.299.299 0 0 0-.416 0 .285.285 0 0 0 0 .408l.42.413-.48.472-.422-.413a.299.299 0 0 0-.416 0 .285.285 0 0 0 0 .408l.42.413-.48.471-.422-.412a.299.299 0 0 0-.416 0 .285.285 0 0 0 0 .408l.421.413-.481.471-.421-.412a.299.299 0 0 0-.417 0 .285.285 0 0 0 0 .408l.421.412-.327.321a.285.285 0 0 0 0 .409.297.297 0 0 0 .416 0l.328-.321.42.412a.297.297 0 0 0 .417 0 .285.285 0 0 0 0-.408l-.42-.413.48-.471.422.412a.297.297 0 0 0 .416 0 .285.285 0 0 0 0-.408l-.42-.412.48-.472.422.412a.297.297 0 0 0 .416 0 .285.285 0 0 0 0-.408l-.421-.412.481-.472.421.413a.297.297 0 0 0 .417 0 .285.285 0 0 0 0-.409z"/>
        </g>
    </g>
</svg>
