<svg xmlns="http://www.w3.org/2000/svg" width="16" height="16" viewBox="0 0 16 16">
    <g fill="#323232" fill-rule="nonzero" opacity=".9">
        <path d="M2.038 5.14l.015.111c.23.298.75.889 1.642 1.502l.174-.051c.298-.736.83-1.811 1.271-2.442l.003-.004C6.799 1.694 8.926.853 10.418.598l.016-.222A7.559 7.559 0 0 0 8.776.04 7.072 7.072 0 0 0 8.117 0c-.291 0-.574.032-.888.102-.976.215-1.896.757-2.895 1.706-1.056 1.003-1.805 2.087-2.29 3.317l-.006.014z"/>
        <path d="M3.823 11.12a9.413 9.413 0 0 0 3.044.49 11.206 11.206 0 0 0 2.038-.19l.066-.01.095-.132c-.182-1.076-.606-2.073-1.194-2.805L7.76 8.43a5.303 5.303 0 0 1-1.937.047C3.936 8.168 2.4 7.185 1.256 5.557a7.497 7.497 0 0 1-.403-.658l-.21.014C.205 6.038.01 7.318.001 7.753l.018.064c.148.231.522.807.78 1.144a6.283 6.283 0 0 0 3.024 2.158zM1.602 4.284a10.631 10.631 0 0 1 1.645-2.447L3.09 1.67a8.06 8.06 0 0 0-1.729 1.813c-.047.067-.129.2-.189.3l-.002.114c.073.13.15.263.228.395l.204-.008z"/>
        <path d="M4.888 6.255c-.114.258-.211.52-.315.798l-.023.062.068.147a6.741 6.741 0 0 0 2.288.425c.265 0 .524-.019.77-.056l.092-.077.033-.093a5.144 5.144 0 0 1 .888-1.59c1.21-1.465 2.835-2.294 4.833-2.467.169-.014.347-.021.563-.021.072 0 .144 0 .216.002l.091-.187c-.77-.934-1.798-1.738-2.176-1.962l-.065-.016a21.51 21.51 0 0 0-1.393.102 6.321 6.321 0 0 0-3.397 1.522c-1.035.896-1.867 2.043-2.473 3.411zM15.274 4.496a7.12 7.12 0 0 0-.168-.312l-.1-.059c-.15-.002-.307-.003-.46-.002l-.095.179c.579.845 1.024 1.73 1.324 2.63l.11-.025v.104-.104L16 6.881a7.947 7.947 0 0 0-.726-2.385zM7.161 15.37c-.747 0-1.482-.075-2.182-.223l-.069.218c.766.316 1.591.512 2.453.583.082.007.24.011.357.014l.101-.055c.054-.087.138-.226.235-.392l-.109-.172c-.264.018-.529.026-.786.026z"/>
        <path d="M13.495 4.26l-.012-.013-.105-.043c-.376.049-1.154.198-2.137.655l-.042.175c.496.622 1.173 1.615 1.506 2.308l.002.004c.909 1.729 1.212 3.462.902 5.153a7.003 7.003 0 0 1-.327 1.186l.186.125c.418-.371.784-.779 1.12-1.247.312-.435.53-.765.718-1.356.3-.943.284-2.001-.049-3.33-.352-1.405-.928-2.588-1.762-3.616z"/>
        <path d="M11.081 6.13c-.168-.227-.35-.441-.542-.67l-.042-.05-.164-.015c-.85.698-1.506 1.562-1.85 2.433l.02.117.066.075c.416.472.736.995.95 1.554.68 1.767.595 3.573-.253 5.37-.116.246-.253.48-.372.675l.119.172c1.203-.193 2.422-.67 2.807-.883l.046-.047c.128-.244.442-.853.607-1.243a6.142 6.142 0 0 0 .363-3.668c-.268-1.334-.858-2.62-1.755-3.82z"/>
        <path d="M8.946 12.2c-.645.09-1.454.145-2.111.145-.252 0-.476-.008-.666-.024h-.004c-1.97-.095-3.638-.71-4.96-1.827a7.104 7.104 0 0 1-.871-.876l-.203.096c.113.543.285 1.062.525 1.584.223.486.402.839.823 1.296.674.73 1.607 1.25 2.937 1.636a9.96 9.96 0 0 0 2.768.411c.427 0 .859-.03 1.28-.093l.018-.002.091-.07c.147-.344.409-1.083.504-2.153l-.131-.123z"/>
    </g>
</svg>
