<svg xmlns="http://www.w3.org/2000/svg" width="16" height="16" viewBox="0 0 16 16">
    <g fill="#323232" fill-rule="nonzero" opacity=".9">
        <path d="M15.838 7.512a7.891 7.891 0 0 0-1.35-4.032A7.948 7.948 0 0 0 9.837.243 7.887 7.887 0 0 0 7.929.001 7.89 7.89 0 0 0 5.487.39a7.955 7.955 0 0 0-4.39 3.538A7.832 7.832 0 0 0 .065 6.97 8.019 8.019 0 0 0 0 7.93c0 1.755.58 3.371 1.548 4.687a7.957 7.957 0 0 0 3.862 2.826 7.898 7.898 0 0 0 2.52.416 7.866 7.866 0 0 0 3.33-.743 7.983 7.983 0 0 0 2.827-2.2 7.893 7.893 0 0 0 1.772-4.986c0-.14-.015-.278-.02-.417zm-1.61 0l-1.63 2.823 1.074 1.861a7.216 7.216 0 0 1-2.794 2.257l-.82-1.417H6.8L5.797 14.77A7.196 7.196 0 0 1 2.01 11.96L3.26 9.793 1.63 6.97H.838c.15-1.114.55-2.15 1.152-3.041h2.28L5.9 1.105l-.02-.037A7.103 7.103 0 0 1 9.44.928l-.102.177 1.63 2.823h2.901a7.127 7.127 0 0 1 1.204 3.584h-.845z"/>
        <path d="M6.3 5.011L4.67 7.834l1.63 2.823h3.26l1.63-2.823-1.63-2.823z"/>
    </g>
</svg>
